<svg xmlns="http://www.w3.org/2000/svg" viewBox="0 0 425.25 857.6"><defs><style>.cls-1{fill:none;stroke:#ff2727;stroke-miterlimit:10;stroke-width:0.75px;}</style></defs><g id="레이어_2" data-name="레이어 2"><g id="레이어_1-2" data-name="레이어 1"><path class="cls-1" d="M365.08,805.13v-10H326.76V784.71H286.7V756.27h-5.53V745.86h-43.8V176.55l-13.24,10.66v-7.9c10.51-5,17.9-16.52,17.9-29.94s-7.39-25-17.9-29.95v-32h1.48V80h22.75V43.17a25.89,25.89,0,0,0,3.77.31q.87,0,1.71-.06a1.61,1.61,0,0,0,1.35-2.23A33.08,33.08,0,0,0,250.87,34a25.78,25.78,0,0,0,3.78-2.39,1.61,1.61,0,0,0,.63-1.27,1.58,1.58,0,0,0-.63-1.27,28.58,28.58,0,0,0-9.85-4.76,31.12,31.12,0,0,0,3.09-5.54,1.61,1.61,0,0,0-1.35-2.23,29.77,29.77,0,0,0-14.89,3.23A39.28,39.28,0,0,0,233,7.64a1.6,1.6,0,0,0-2.39-1.3c-4.18,2.33-8.26,6.43-11.62,11.6a41.73,41.73,0,0,0-5-16.77,1.6,1.6,0,0,0-2.76,0,41.73,41.73,0,0,0-5,16.76c-3.36-5.16-7.44-9.26-11.63-11.59a1.6,1.6,0,0,0-2.38,1.3,39.28,39.28,0,0,0,1.35,12.09,29.81,29.81,0,0,0-14.89-3.23,1.61,1.61,0,0,0-1.25.77,1.63,1.63,0,0,0-.1,1.46,31.7,31.7,0,0,0,3.08,5.54A28.58,28.58,0,0,0,170.59,29,1.6,1.6,0,0,0,170,30.3a1.63,1.63,0,0,0,.62,1.27A25.37,25.37,0,0,0,174.38,34a32.69,32.69,0,0,0-4.32,7.23,1.6,1.6,0,0,0,1.35,2.23q.84.06,1.71.06a25.75,25.75,0,0,0,3.76-.31V80h22.76V87.4h1.48v32c-10.52,5-17.9,16.52-17.9,30s7.38,25,17.9,29.94v7.9l-13.25-10.66V745.86h-43.8v10.41h-5.53v28.44H98.48v10.38H60.16v10H.38v52.1H424.87v-52.1Zm-3.21-6.83v6.83H326.76V798.3ZM63.37,836.58l10.25-3.1-3.35,6.38h-6.9Zm0-27.75H98.48v6.83H85.9l.51-1-.7,1H76.37L76,811l-.22,4.64H66.17l-.45-.6.34.6H63.37Zm78.38-18.25v-2.21H283.49v2.21Zm174,3.3v1.21H109.46v-1.21Zm0,4.42v6.83H109.46V798.3Zm-213.65,31,.2.09h-.2Zm14.91-10.34-6.12,8.6-.66-8.6Zm25.88,0-.42,8.63L136,818.92Zm1,0h6.78l-6.12,8.6Zm32.66,0-.42,8.63-6.56-8.63Zm1,0h6.78l-6.12,8.6Zm32.67,0-.42,8.63-6.57-8.63Zm1,0H218l-6.13,8.6Zm32.67,0-.42,8.63-6.56-8.63Zm1,0h6.78l-6.12,8.6Zm32.66,0-.42,8.63-6.56-8.63Zm1,0h6.78l-6.12,8.6Zm32.66,0-.42,8.63-6.56-8.63Zm1,0H319l-6.12,8.6Zm-.25-3.3-.35-4.6-.23,4.6H301.7l-.42-.56.32.56H287.83l.49-.94-.66.94h-9.38l-.36-4.6-.22,4.6h-9.65l-.42-.56.31.56H254.18l.49-.94-.66.94h-9.39l-.35-4.6-.22,4.6H234.4l-.42-.56.31.56H220.53l.49-.94-.66.94H211l-.35-4.6-.22,4.6h-9.65l-.42-.56.31.56H186.88l.49-.94-.67.94h-9.38L177,811l-.23,4.6H167.1l-.42-.56.31.56H153.23l.48-.94-.66.94h-9.38l-.35-4.6-.23,4.6h-9.65l-.42-.56.31.56H119.57l.49-.94-.66.94H110l-.35-4.6-.2,4.26v-6.45H315.79v6.79Zm-202.65,3.3-.42,8.63-6.6-8.68h3.9v0ZM107.21,829l-5.07-1.34V820Zm5.41-.1,5.22-10h17.35L140.86,829l-14.09-3.72,9.22,4.09H116.93l9.67-4.71Zm33.65,0,5.22-10h17.36L174.51,829l-14.09-3.72,9.22,4.09H150.58l9.67-4.71Zm33.65,0,5.23-10H202.5L208.16,829l-14.09-3.72,9.22,4.09H184.23l9.67-4.71Zm33.66,0,5.22-10h17.35L241.82,829l-14.09-3.72,9.22,4.09H217.88l9.67-4.71Zm33.65,0,5.22-10H269.8L275.47,829l-14.09-3.72,9.22,4.09H251.53l9.68-4.71Zm33.65,0,5.22-10h17.35L309.12,829,295,825.26l9.22,4.09H285.19l9.67-4.71Zm33.65,0,5.25-10h3.32v7.41Zm8.57-1.61v2.08h-4.26Zm-1.64-11.61.52-1-.7,1h-2.19v-6.83h4v6.83Zm-2.37-10.53V798.3h4v6.83Zm-212.93,0h-4V798.3h4Zm0,3.7v6.83h-4v-6.83Zm-22.73,10-6.16,8.65-.66-8.65Zm-7.8,0-.42,8.68-6.6-8.68Zm-7.77,0L73.56,829l-10.19-2.69v-7.42ZM73,831.24l-9.58,4.66V827Zm2.36,3.6.38,5h-4Zm2.07,0,3.84,5.06H77.13ZM79,833.38l14.09,3.72-13.48-6,13.3-6.48-14,4.24,5.24-10H98.48v7.8l-5.36-1.41,5.36,2.38V833H103l-9.67,4.7,14-4.23-3.34,6.38H82.68ZM109,834.84l.39,5h-4Zm2.07,0,3.84,5.06h-4.09Zm1.65-1.42,14.09,3.72L117.55,833h19.07l-9.68,4.7,14-4.23-3.34,6.38H116.33Zm29.93,1.46.39,5h-4Zm2.07,0,3.84,5.06h-4.08Zm1.65-1.42,14.09,3.72L151.2,833h19.07l-9.67,4.7,14-4.23-3.34,6.38H150Zm29.94,1.46.38,5h-4Zm2.06,0,3.84,5.06h-4.08Zm1.66-1.42,14.08,3.72L184.85,833h19.07l-9.67,4.7,14-4.23-3.35,6.38H183.63Zm29.93,1.46.38,5h-4Zm2.07,0,3.84,5.06h-4.09Zm1.65-1.42,14.09,3.72L218.51,833h19.06l-9.67,4.7,14-4.23-3.35,6.38H217.29Zm29.93,1.46.39,5h-4Zm2.07,0,3.84,5.06h-4.09Zm1.65-1.42,14.09,3.72L252.16,833h19.07l-9.68,4.7,14-4.23-3.34,6.38H250.94Zm29.93,1.46.39,5h-4Zm2.07,0,3.84,5.06H279Zm1.65-1.42L295,837.1,285.81,833h19.07l-9.67,4.7,14-4.23-3.34,6.38H284.59Zm29.94,1.46.38,5h-4Zm2.06,0,3.84,5.06H312.7Zm1.65-1.42,14.09,3.72L319.46,833h7.3v-7.52l1.75-.85-1.75.53v-6.3h10.32L342.77,829l-14.09-3.72,13.49,6-13.31,6.47,14-4.23-3.35,6.38H318.24Zm23.24-14.51h7l-.42,8.68Zm6.7,16,.38,5h-4Zm2.06,0,3.85,5.06h-4.09Zm-.76-15.93h6.82l-6.16,8.65Zm2.42,14.51,13.62,3.6v2.88h-10Zm13.62,3.51-13-5.77,13-6.34Zm0-12.16-13.69,4.15,5.25-10h8.44Zm-6.75-9.07.51-1-.7,1h-9.35l-.35-4.64-.23,4.64h-9.61l-.45-.6.33.6h-8.51v-6.83h35.11v6.83Zm-32-27.29v6.72h-4v-4.51H286.7v-2.21ZM278,749.07v7.2h-2.87v-4.5H237.37v-2.7ZM147.28,759.48h2.88v18H275.09v-18H278v20.73H147.28ZM206,23.87c0,.88,0,1.77.08,2.65a29.1,29.1,0,0,0-2.84-1.26A29.22,29.22,0,0,0,205,22C205.35,22.64,205.67,23.25,206,23.87ZM220.24,22A30.87,30.87,0,0,0,222,25.26a27.89,27.89,0,0,0-2.83,1.26c0-.88.07-1.77.08-2.65C219.57,23.25,219.9,22.64,220.24,22Zm24.91,41.48L242,49.17l-11.69-6.35h14.83ZM244.37,75l-13.83-8.71-4.31-22,13,7Zm-20.1-46.5.42.53c-.58,1.12-1.2,2.2-1.84,3.24-.58-.23-1.13-.48-1.68-.74A40.42,40.42,0,0,1,224.27,28.45Zm-23.3,0a38.68,38.68,0,0,1,3.1,3c-.54.26-1.1.51-1.67.74-.65-1-1.26-2.12-1.84-3.24C200.7,28.8,200.84,28.63,201,28.45ZM206.18,34c.42.55.81,1.1,1.18,1.66.18.77.39,1.53.6,2.27-.48,0-1-.09-1.46-.17q-1.17-1.34-2.28-2.85C204.89,34.64,205.55,34.34,206.18,34Zm11.1,3.93c.22-.74.42-1.5.61-2.27.37-.56.76-1.11,1.17-1.66.64.33,1.29.63,2,.91-.73,1-1.49,2-2.27,2.85C218.25,37.85,217.77,37.9,217.28,37.94Zm6.86-1.86c.15.05.31.08.46.12l-.73.28ZM226,33.27c.34-.57.68-1.15,1-1.74.8.82,1.63,1.62,2.5,2.38l-.15.08C228.18,33.8,227.06,33.56,226,33.27Zm9.45,1.17-.4-.28a42.61,42.61,0,0,0,6.08-5.32,39,39,0,0,1,4.45,3.92A33.29,33.29,0,0,1,235.42,34.44Zm3-7.44a39.7,39.7,0,0,1-6.08,5.12,37.94,37.94,0,0,1-3.83-3.65c.29-.62.57-1.24.84-1.87a34.16,34.16,0,0,1,5.58-.47c.74,0,1.48,0,2.21.07C237.56,26.45,238,26.73,238.41,27Zm-11.64-4.49h0c-.63.42-1.25.86-1.86,1.31q-.61-.95-1.14-1.92a22.75,22.75,0,0,1,3.3.42A2.9,2.9,0,0,0,226.77,22.51Zm-26.42,1.31c-.61-.45-1.23-.89-1.87-1.31l-.29-.19a22.58,22.58,0,0,1,3.3-.42Q201,22.88,200.35,23.82Zm-10,2.31a34.16,34.16,0,0,1,5.58.47c.26.63.55,1.25.83,1.87a38.91,38.91,0,0,1-3.82,3.65A39.31,39.31,0,0,1,186.83,27c.43-.27.86-.55,1.29-.8C188.85,26.16,189.59,26.13,190.33,26.13Zm-6.18,2.71a42.52,42.52,0,0,0,6.07,5.32l-.39.28a33.35,33.35,0,0,1-10.14-1.68A40.08,40.08,0,0,1,184.15,28.84Zm11.62,5.07c.88-.76,1.71-1.56,2.5-2.38.33.59.66,1.17,1,1.74-1.08.29-2.2.53-3.34.72Zm5.33,2.17.28.4-.73-.28Zm-15,15.21,12.95-7-4.31,22L180.88,75Zm-6,12.23V42.82h14.84l-11.69,6.35Zm22.76-22.31v-.93c.68.18,1.35.33,2,.46a29.43,29.43,0,0,0,7,5.6,1.68,1.68,0,0,0,.78.2h0a1.65,1.65,0,0,0,.78-.2,29.43,29.43,0,0,0,7-5.6c.67-.13,1.34-.28,2-.46v6.77H202.85Zm1.48,10.63h16.59V84.19h-3.17v-27H207.5v27h-3.17Zm6.38,8.55h3.83v23.8h-3.83Zm3.83,27v29.5c-.64,0-1.27-.07-1.92-.07s-1.28,0-1.91.07V87.4ZM212.62,120c.65,0,1.28,0,1.92.08V126a17.51,17.51,0,0,0-1.92-.1,17.33,17.33,0,0,0-1.91.1v-5.87C211.34,120.07,212,120,212.62,120Zm-1.91,18.49a8.44,8.44,0,0,1,3.83,0V160.2a8.44,8.44,0,0,1-3.83,0Zm-3.21,20.23a10.46,10.46,0,0,1-3.17-3.58V143.55A10.46,10.46,0,0,1,207.5,140ZM217.75,140a10.57,10.57,0,0,1,3.17,3.58v11.64a10.63,10.63,0,0,1-3.17,3.57Zm3.17-1.57a13.19,13.19,0,0,0-3.17-2.14v-6.32a17.06,17.06,0,0,1,3.17,1.44Zm-6.38-3.13a12.24,12.24,0,0,0-1.92-.17,12.11,12.11,0,0,0-1.91.17v-6.06a16.72,16.72,0,0,1,3.83,0Zm-7,1a13,13,0,0,0-3.17,2.14v-7a16.77,16.77,0,0,1,3.17-1.44Zm-3.17,24.07a13,13,0,0,0,3.17,2.14v6.32a16.77,16.77,0,0,1-3.17-1.44Zm6.38,3.13a12.11,12.11,0,0,0,1.91.17,12.24,12.24,0,0,0,1.92-.17v6.06a16.72,16.72,0,0,1-3.83,0Zm7-1a13.19,13.19,0,0,0,3.17-2.14v7a17.06,17.06,0,0,1-3.17,1.44Zm3.17,8.51v6.2a23.13,23.13,0,0,1-3.17.95v-6A19.75,19.75,0,0,0,220.92,171Zm3.21-15a15.41,15.41,0,0,0,0-13.18v-9a21.86,21.86,0,0,1,0,31.21Zm-6.38-29.38v-6a23.13,23.13,0,0,1,3.17,1v6.2A19.75,19.75,0,0,0,217.75,126.58Zm-10.25,0a19.75,19.75,0,0,0-3.17,1.17v-6.2a24.62,24.62,0,0,1,3.17-1Zm-6.38,16.2a15.39,15.39,0,0,0,0,13.17v9a21.86,21.86,0,0,1,0-31.21Zm6.38,29.37v6a23.13,23.13,0,0,1-3.17-.95V171A19.75,19.75,0,0,0,207.5,172.15Zm3.21.6c.63.06,1.27.09,1.91.09s1.28,0,1.92-.09v5.86c-.64,0-1.27.09-1.92.09s-1.28,0-1.91-.09Zm1.91,9.16c.65,0,1.28,0,1.92-.08v13.1l-1.92,1.54-1.91-1.54v-13.1C211.34,181.88,212,181.91,212.62,181.91Zm-9.55,66.19h3.85a12.94,12.94,0,0,0-3.85,4.36ZM210.84,202h3.57l.13.1v7.73h-3.83v-7.73Zm3.7,11v7.4h-3.83v-7.4Zm6.38,521.22c0,4.64-2.28,8.59-5.46,10.1L220.84,733A11.76,11.76,0,0,1,220.92,734.29ZM204.33,223.68h3.17v15.87h10.25V223.68h3.17v21.21H204.33Zm6.38,0h3.83v12.66h-3.83Zm10.21,36.55c0,4.64-2.28,8.59-5.46,10.1l5.38-11.44A11.9,11.9,0,0,1,220.92,260.23Zm0,26.7c0,4.64-2.28,8.6-5.46,10.11l5.38-11.45A11.9,11.9,0,0,1,220.92,286.93Zm0,26.71c0,4.64-2.28,8.59-5.46,10.1l5.38-11.44A11.76,11.76,0,0,1,220.92,313.64Zm0,24.74c0,4.64-2.28,8.6-5.46,10.11L220.84,337A11.9,11.9,0,0,1,220.92,338.38Zm0,24.75c0,4.64-2.28,8.59-5.46,10.1l5.38-11.44A11.76,11.76,0,0,1,220.92,363.13Zm0,24.74c0,4.64-2.28,8.59-5.46,10.1l5.38-11.44A11.9,11.9,0,0,1,220.92,387.87Zm0,24.75c0,4.64-2.28,8.59-5.46,10.1l5.38-11.45A12.08,12.08,0,0,1,220.92,412.62Zm0,24.74c0,4.64-2.28,8.59-5.46,10.1L220.84,436A11.9,11.9,0,0,1,220.92,437.36Zm0,24.74c0,4.64-2.28,8.6-5.46,10.11l5.38-11.45A11.9,11.9,0,0,1,220.92,462.1Zm0,24.75c0,4.64-2.28,8.59-5.46,10.1l5.38-11.44A11.76,11.76,0,0,1,220.92,486.85Zm0,24.74c0,4.64-2.28,8.59-5.46,10.1l5.38-11.44A11.9,11.9,0,0,1,220.92,511.59Zm0,24.75c0,4.64-2.28,8.59-5.46,10.1L220.84,535A12.08,12.08,0,0,1,220.92,536.34Zm0,24.74c0,4.64-2.28,8.59-5.46,10.1l5.38-11.44A11.9,11.9,0,0,1,220.92,561.08Zm0,24.74c0,4.64-2.28,8.6-5.46,10.11l5.38-11.45A11.9,11.9,0,0,1,220.92,585.82Zm0,24.75c0,4.64-2.28,8.59-5.46,10.1l5.38-11.44A11.76,11.76,0,0,1,220.92,610.57Zm0,24.74c0,4.64-2.28,8.59-5.46,10.1L220.84,634A11.9,11.9,0,0,1,220.92,635.31Zm0,24.75c0,4.64-2.28,8.59-5.46,10.1l5.38-11.44A11.76,11.76,0,0,1,220.92,660.06Zm0,24.74c0,4.64-2.28,8.59-5.46,10.1l5.38-11.44A11.9,11.9,0,0,1,220.92,684.8Zm0,24.74c0,4.64-2.28,8.6-5.46,10.11l5.38-11.45A11.9,11.9,0,0,1,220.92,709.54Zm-1.8-456c.13.22.26.43.38.65l-1.18,2.5Zm-4.89,6.22V249.67a7.09,7.09,0,0,1,2.3,1.07Zm-3.21,0-2.3-9a7,7,0,0,1,2.3-1.07Zm-4.1-3.07-1.17-2.5.37-.65Zm12.2,23.56c.13.21.26.42.38.65l-1.18,2.49Zm-12.2,3.14-1.17-2.49c.12-.23.24-.44.37-.65ZM219.12,307c.13.22.26.43.38.65l-1.18,2.5Zm-4.89,426.87V723.73a7.09,7.09,0,0,1,2.3,1.07Zm4.89-31c.13.21.26.42.38.65l-1.18,2.5Zm-4.89,6.22V699a7.3,7.3,0,0,1,2.3,1.07Zm4.89-31c.13.22.26.43.38.65l-1.18,2.5Zm-4.89,6.22V674.24a7.09,7.09,0,0,1,2.3,1.07Zm4.89-31c.13.21.26.43.38.65l-1.18,2.5Zm-4.89,6.22V649.5a7.27,7.27,0,0,1,2.3,1.06Zm4.89-31c.13.21.26.42.38.65l-1.18,2.49Zm-4.89,6.21V624.75a7.09,7.09,0,0,1,2.3,1.07Zm4.89-31c.13.21.26.43.38.65l-1.18,2.5Zm-4.89,6.22V600a7.09,7.09,0,0,1,2.3,1.07Zm4.89-31c.13.21.26.42.38.65l-1.18,2.49Zm-4.89,6.22V575.26a7.3,7.3,0,0,1,2.3,1.07Zm4.89-31c.13.22.26.43.38.65l-1.18,2.5Zm-4.89,6.22V550.52a7.09,7.09,0,0,1,2.3,1.07Zm4.89-31c.13.21.26.43.38.65l-1.18,2.5Zm-4.89,6.22V525.78a7.27,7.27,0,0,1,2.3,1.06Zm4.89-31c.13.21.26.42.38.65l-1.18,2.49Zm-4.89,6.21V501a7.09,7.09,0,0,1,2.3,1.07Zm4.89-31c.13.21.26.43.38.65l-1.18,2.5Zm-4.89,6.22V476.29a7.09,7.09,0,0,1,2.3,1.07Zm4.89-31c.13.21.26.42.38.65l-1.18,2.5Zm-4.89,6.22V451.54a7.3,7.3,0,0,1,2.3,1.07Zm4.89-31c.13.22.26.43.38.65l-1.18,2.5Zm-4.89,6.22V426.8a7.09,7.09,0,0,1,2.3,1.07Zm4.89-31c.13.21.26.42.38.65l-1.18,2.5Zm-4.89,6.22V402.06a7.06,7.06,0,0,1,2.3,1.06Zm4.89-31c.13.21.26.42.38.64l-1.18,2.5Zm-4.89,6.21V377.31a7.09,7.09,0,0,1,2.3,1.07Zm4.89-31c.13.21.26.43.38.65l-1.18,2.5Zm-4.89,6.22V352.57a7.09,7.09,0,0,1,2.3,1.07Zm4.89-31c.13.21.26.42.38.65l-1.18,2.49Zm-4.89,6.22V327.82a7.3,7.3,0,0,1,2.3,1.07Zm-7.31-27.82-1.17-2.5.37-.65Zm4.1,27.82-2.3-9.05a7.2,7.2,0,0,1,2.3-1.07Zm-4.1-3.08-1.17-2.49c.12-.23.24-.44.37-.65Zm4.1,27.82-2.3-9a7,7,0,0,1,2.3-1.07Zm-4.1-3.07-1.17-2.5c.12-.22.24-.44.37-.65Zm4.1,27.82-2.3-9.05a7,7,0,0,1,2.3-1.07Zm-4.1-3.08-1.17-2.5c.12-.22.24-.43.37-.64Zm4.1,27.82-2.3-9.05a7,7,0,0,1,2.3-1.06Zm-4.1-3.07-1.17-2.5c.12-.22.24-.44.37-.65Zm4.1,27.81-2.3-9a7,7,0,0,1,2.3-1.07Zm-4.1-3.07-1.17-2.5.37-.65Zm4.1,27.82-2.3-9.05a7.2,7.2,0,0,1,2.3-1.07Zm-4.1-3.07-1.17-2.5c.12-.23.24-.44.37-.65ZM211,486.4l-2.3-9a7,7,0,0,1,2.3-1.07Zm-4.1-3.07-1.17-2.5c.12-.22.24-.44.37-.65Zm4.1,27.82-2.3-9A7,7,0,0,1,211,501Zm-4.1-3.08-1.17-2.49c.12-.23.24-.44.37-.65Zm4.1,27.82-2.3-9a7.17,7.17,0,0,1,2.3-1.06Zm-4.1-3.07-1.17-2.5c.12-.22.24-.44.37-.65Zm4.1,27.81-2.3-9a7,7,0,0,1,2.3-1.07Zm-4.1-3.07-1.17-2.5.37-.65Zm4.1,27.82-2.3-9a7.2,7.2,0,0,1,2.3-1.07Zm-4.1-3.08-1.17-2.49c.12-.23.24-.44.37-.65Zm4.1,27.82-2.3-9A7,7,0,0,1,211,600Zm-4.1-3.07-1.17-2.5c.12-.22.24-.44.37-.65Zm4.1,27.82-2.3-9a7,7,0,0,1,2.3-1.07Zm-4.1-3.08-1.17-2.49c.12-.23.24-.44.37-.65Zm4.1,27.82-2.3-9.05a7.17,7.17,0,0,1,2.3-1.06Zm-4.1-3.07-1.17-2.5c.12-.22.24-.44.37-.65Zm4.1,27.81-2.3-9a7,7,0,0,1,2.3-1.07Zm-4.1-3.07-1.17-2.5c.12-.22.24-.43.37-.64ZM211,709.1l-2.3-9.05A7.2,7.2,0,0,1,211,699Zm-4.1-3.07-1.17-2.5c.12-.23.24-.44.37-.65Zm4.1,27.81-2.3-9a7,7,0,0,1,2.3-1.07Zm-4.1-3.07-1.17-2.5c.12-.22.24-.44.37-.65Zm12.2-3.15c.13.21.26.43.38.65l-1.18,2.5Zm-4.89-414.43V303.08a7.09,7.09,0,0,1,2.3,1.07Zm0-26.7V276.37a7.3,7.3,0,0,1,2.3,1.07Zm-9.83-27.6,5.38,11.44c-3.17-1.51-5.45-5.46-5.45-10.1C204.33,259.77,204.36,259.33,204.4,258.89Zm6.62,27.6-2.3-9.05a7.2,7.2,0,0,1,2.3-1.07Zm-6.62-.9L209.78,297c-3.17-1.51-5.45-5.47-5.45-10.11C204.33,286.48,204.36,286,204.4,285.59Zm6.62,27.6-2.3-9a7,7,0,0,1,2.3-1.07Zm-6.62-.89,5.38,11.44c-3.17-1.51-5.45-5.46-5.45-10.1C204.33,313.18,204.36,312.74,204.4,312.3Zm0,24.74,5.38,11.45c-3.17-1.51-5.45-5.47-5.45-10.11C204.33,337.93,204.36,337.48,204.4,337Zm0,24.75,5.38,11.44c-3.17-1.51-5.45-5.46-5.45-10.1C204.33,362.67,204.36,362.23,204.4,361.79Zm0,24.74L209.78,398c-3.17-1.51-5.45-5.46-5.45-10.1C204.33,387.42,204.36,387,204.4,386.53Zm0,24.74,5.38,11.45c-3.17-1.51-5.45-5.46-5.45-10.1C204.33,412.16,204.36,411.72,204.4,411.27Zm0,24.75,5.38,11.44c-3.17-1.51-5.45-5.46-5.45-10.1C204.33,436.91,204.36,436.46,204.4,436Zm0,24.74,5.38,11.45c-3.17-1.51-5.45-5.47-5.45-10.11C204.33,461.65,204.36,461.2,204.4,460.76Zm0,24.75L209.78,497c-3.17-1.51-5.45-5.46-5.45-10.1C204.33,486.39,204.36,486,204.4,485.51Zm0,24.74,5.38,11.44c-3.17-1.51-5.45-5.46-5.45-10.1C204.33,511.14,204.36,510.69,204.4,510.25Zm0,24.74,5.38,11.45c-3.17-1.51-5.45-5.46-5.45-10.1C204.33,535.88,204.36,535.44,204.4,535Zm0,24.75,5.38,11.44c-3.17-1.51-5.45-5.46-5.45-10.1C204.33,560.62,204.36,560.18,204.4,559.74Zm0,24.74,5.38,11.45c-3.17-1.51-5.45-5.47-5.45-10.11C204.33,585.37,204.36,584.92,204.4,584.48Zm0,24.75,5.38,11.44c-3.17-1.51-5.45-5.46-5.45-10.1C204.33,610.11,204.36,609.67,204.4,609.23Zm0,24.74,5.38,11.44c-3.17-1.51-5.45-5.46-5.45-10.1C204.33,634.86,204.36,634.41,204.4,634Zm0,24.74,5.38,11.45c-3.17-1.51-5.45-5.46-5.45-10.1C204.33,659.6,204.36,659.16,204.4,658.71Zm0,24.75,5.38,11.44c-3.17-1.51-5.45-5.46-5.45-10.1C204.33,684.35,204.36,683.9,204.4,683.46Zm0,24.74,5.38,11.45c-3.17-1.51-5.45-5.47-5.45-10.11C204.33,709.09,204.36,708.64,204.4,708.2Zm0,24.75,5.38,11.44c-3.17-1.51-5.45-5.46-5.45-10.1C204.33,733.83,204.36,733.39,204.4,733Zm17.78-6.43a12.69,12.69,0,0,0-4.22-4.6,12.77,12.77,0,0,0,4.22-4.6Zm0-24.75a12.77,12.77,0,0,0-4.22-4.6,12.69,12.69,0,0,0,4.22-4.6Zm0-24.74a12.77,12.77,0,0,0-4.22-4.6,12.77,12.77,0,0,0,4.22-4.6Zm0-24.74a12.8,12.8,0,0,0-4.22-4.61,12.69,12.69,0,0,0,4.22-4.6Zm0-24.75a12.77,12.77,0,0,0-4.22-4.6,12.77,12.77,0,0,0,4.22-4.6Zm0-24.74a12.69,12.69,0,0,0-4.22-4.6,12.85,12.85,0,0,0,4.22-4.6Zm0-24.75a12.77,12.77,0,0,0-4.22-4.6,12.77,12.77,0,0,0,4.22-4.6Zm0-24.74a12.77,12.77,0,0,0-4.22-4.6,12.77,12.77,0,0,0,4.22-4.6Zm0-24.74A12.8,12.8,0,0,0,218,524a12.69,12.69,0,0,0,4.22-4.6Zm0-24.75a12.77,12.77,0,0,0-4.22-4.6,12.77,12.77,0,0,0,4.22-4.6Zm0-24.74a12.69,12.69,0,0,0-4.22-4.6,12.85,12.85,0,0,0,4.22-4.6Zm0-24.75a12.77,12.77,0,0,0-4.22-4.6,12.69,12.69,0,0,0,4.22-4.6Zm0-24.74A12.77,12.77,0,0,0,218,425a12.77,12.77,0,0,0,4.22-4.6Zm0-24.74a12.8,12.8,0,0,0-4.22-4.61,12.69,12.69,0,0,0,4.22-4.6Zm0-24.75a12.77,12.77,0,0,0-4.22-4.6,12.77,12.77,0,0,0,4.22-4.6Zm0-24.74a12.69,12.69,0,0,0-4.22-4.6,12.8,12.8,0,0,0,4.22-4.61Zm0-24.75A12.77,12.77,0,0,0,218,326a12.77,12.77,0,0,0,4.22-4.6Zm0-24.74a12,12,0,0,0-6.15-5.58,12.11,12.11,0,0,0,6.15-5.58Zm0-26.71a12.11,12.11,0,0,0-6.15-5.58,12,12,0,0,0,6.15-5.58Zm0-26.7a12.86,12.86,0,0,0-3.86-4.36h3.86Zm-4.43-32v-7.4h3.17v7.4Zm-10.25,0h-3.17v-7.4h3.17ZM203.07,268a12,12,0,0,0,6.15,5.58,12.08,12.08,0,0,0-6.15,5.58Zm0,26.71a12.08,12.08,0,0,0,6.15,5.58,12,12,0,0,0-6.15,5.58Zm0,26.7a12.69,12.69,0,0,0,4.22,4.6,12.69,12.69,0,0,0-4.22,4.6Zm0,24.75a12.77,12.77,0,0,0,4.22,4.6,12.65,12.65,0,0,0-4.22,4.59Zm0,24.74a12.69,12.69,0,0,0,4.22,4.6,12.69,12.69,0,0,0-4.22,4.6Zm0,24.75a12.65,12.65,0,0,0,4.22,4.59,12.77,12.77,0,0,0-4.22,4.6Zm0,24.74a12.69,12.69,0,0,0,4.22,4.6,12.69,12.69,0,0,0-4.22,4.6Zm0,24.74a12.61,12.61,0,0,0,4.22,4.6,12.69,12.69,0,0,0-4.22,4.6Zm0,24.75a12.69,12.69,0,0,0,4.22,4.6,12.61,12.61,0,0,0-4.22,4.6Zm0,24.74a12.69,12.69,0,0,0,4.22,4.6,12.69,12.69,0,0,0-4.22,4.6Zm0,24.75a12.65,12.65,0,0,0,4.22,4.59,12.77,12.77,0,0,0-4.22,4.6Zm0,24.74a12.69,12.69,0,0,0,4.22,4.6,12.69,12.69,0,0,0-4.22,4.6Zm0,24.74a12.69,12.69,0,0,0,4.22,4.6,12.69,12.69,0,0,0-4.22,4.6Zm0,24.75a12.69,12.69,0,0,0,4.22,4.6,12.61,12.61,0,0,0-4.22,4.6Zm0,24.74a12.69,12.69,0,0,0,4.22,4.6,12.69,12.69,0,0,0-4.22,4.6Zm0,24.75a12.65,12.65,0,0,0,4.22,4.59,12.77,12.77,0,0,0-4.22,4.6Zm0,24.74a12.69,12.69,0,0,0,4.22,4.6,12.69,12.69,0,0,0-4.22,4.6Zm0,24.74a12.61,12.61,0,0,0,4.22,4.6,12.69,12.69,0,0,0-4.22,4.6Zm0,24.75a12.69,12.69,0,0,0,4.22,4.6,12.61,12.61,0,0,0-4.22,4.6Zm0,24.74a12.92,12.92,0,0,0,3.11,3.8h-3.11Zm19.11,0v3.8h-3.11A13.24,13.24,0,0,0,222.18,742.06Zm1.95-521.59v-7.4h4.92V745.86h-3.66V220.47Zm0-10.61h0Zm-3.21,0h-3.17v-5.15l3.17,2.55ZM219.53,202h1.39v1.11Zm-1.78-3.21v-2.35l3.17-2.55v4.9Zm-10.25,0h-3.17v-4.91l3.17,2.56ZM205.72,202l-1.39,1.12V202Zm1.78,2.68v5.15h-3.17v-2.59Zm-6.38,5.15h0Zm-4.93,3.21h4.93v7.4h-1.26V745.86h-3.67Zm3.67,536h29.19v2.7H196.19v-2.7Zm72,7.2H237.37V755h34.51Zm-37.72,0h-1.9V755h1.9Zm-43.08,3.21H193v.2h39.28v-.2h1.9v8H191.08Zm5.11-3.21V755h32.86v1.29Zm36.07-4.5v-2.7h1.9v2.7Zm-39.28,0h-1.9v-2.7H193Zm0,3.21v1.29h-1.9V755Zm-5.11,1.29h-34.5V755h34.5Zm0,3.21v11.25h49.5V759.48h34.51v14.83H153.37V759.48Zm46.29-13.62h-1.9v-536h-3l-5.13-4.13V202h10Zm0-562.61v15.57h-10v-7.49Zm-13.24,6.54-3.17,2.56V181.4a26.82,26.82,0,0,0,3.17-.82Zm17.9-40.42c0,11.55-6,21.56-14.69,26.34V169.1a24.83,24.83,0,0,0,0-39.47V123C232.82,127.8,238.82,137.81,238.82,149.37Zm-17.9-31.22a26.82,26.82,0,0,0-3.17-.82V87.4h3.17Zm4.69-41.41v-19l1.92,9.79a1.54,1.54,0,0,0,.72,1l12.95,8.16Zm-1-37.13a38.22,38.22,0,0,0,5.27-2.29,37.91,37.91,0,0,0,4.55.33c1.11.72,2.24,1.37,3.38,2Zm26.55.64a23.48,23.48,0,0,1-2.82-.33v-.31h-1.54a32.73,32.73,0,0,1-6.49-2.33,35,35,0,0,0,7.52-2A32.36,32.36,0,0,1,251.18,40.25Zm-2.44-8.81a44.33,44.33,0,0,0-4.09-3.88,26.44,26.44,0,0,1,6.2,2.74A23.59,23.59,0,0,1,248.74,31.44ZM241.4,23.5c-1.08-.18-2.18-.34-3.3-.43-.93-.52-1.87-1-2.81-1.42a27,27,0,0,1,8.59-2A31.55,31.55,0,0,1,241.4,23.5ZM229.83,10.67a39,39,0,0,1-1.37,8.66,25.61,25.61,0,0,0-6.1-.65A34.07,34.07,0,0,1,229.83,10.67ZM212.62,5.49A45.05,45.05,0,0,1,216,23.11a52.47,52.47,0,0,0-3.42,8.94,51.65,51.65,0,0,0-3.42-8.94A45.09,45.09,0,0,1,212.62,5.49Zm-9.73,13.19a25.56,25.56,0,0,0-6.1.65,39,39,0,0,1-1.37-8.66A34.28,34.28,0,0,1,202.89,18.68Zm-21.52,1a27,27,0,0,1,8.58,2c-.94.43-1.88.9-2.81,1.42-1.11.09-2.21.25-3.29.44A31.23,31.23,0,0,1,181.37,19.67Zm-7,10.63a26.81,26.81,0,0,1,6.2-2.74,43,43,0,0,0-4.08,3.88C175.78,31.08,175.06,30.71,174.39,30.3Zm-.32,10a32.36,32.36,0,0,1,3.33-4.93,34.73,34.73,0,0,0,7.52,2,33,33,0,0,1-6.49,2.33h-1.55v.31A23.32,23.32,0,0,1,174.07,40.25Zm16.72-2.6a38.08,38.08,0,0,0,4.56-.33,37.7,37.7,0,0,0,5.27,2.29h-13.2C188.55,39,189.68,38.37,190.79,37.65Zm-6.74,39.09L197,68.58a1.61,1.61,0,0,0,.72-1l1.92-9.79v19ZM204.33,87.4h3.17v29.93a25.85,25.85,0,0,0-3.17.82Zm-17.9,62c0-11.56,6-21.57,14.69-26.35v6.61a24.83,24.83,0,0,0,0,39.47v6.61C192.43,170.93,186.43,160.92,186.43,149.37Zm17.9,31.21a25.85,25.85,0,0,0,3.17.82v10.95l-3.17-2.56Zm-3.21,10.75v7.49h-10V183.25Zm-10,10.7h10v3.7L196,209.86h-3v536h-1.9Zm-43.8,547h40.59v2.7H150.16v4.5h-2.88Zm-5.53,10.41h2.32v23.94h137.1V759.48h2.32v25.23H141.75Zm-39.61,28.89h36.4v2.21H106.16v4.51h-4ZM63.37,798.3H98.48v6.83H63.37Zm357.8,55.22H4.08V808.83H60.16v16.61l-.69-.18.69.31v11.89l-.52.25.52-.16v5.52h8.43l-2.42,4.6,3.28-4.6h6.49l.63,8.26.41-8.26h6.68l3.21,4.22-2.38-4.22h17.75l-2.41,4.6,3.27-4.6h6.49l.64,8.26.4-8.26h6.68l3.21,4.22-2.38-4.22h17.75l-2.41,4.6,3.28-4.6h6.48l.64,8.26.4-8.26H151l3.21,4.22-2.38-4.22h17.76l-2.42,4.6,3.28-4.6h6.49l.63,8.26.4-8.26h6.68l3.21,4.22-2.38-4.22H203.2l-2.42,4.6,3.28-4.6h6.49l.63,8.26.4-8.26h6.69l3.2,4.22-2.38-4.22h17.76l-2.41,4.6,3.27-4.6h6.49l.63,8.26.41-8.26h6.68l3.21,4.22-2.38-4.22H270.5l-2.41,4.6,3.27-4.6h6.49l.64,8.26.4-8.26h6.68l3.21,4.22-2.38-4.22h17.75l-2.41,4.6,3.28-4.6h6.49l.63,8.26.4-8.26h6.68l3.21,4.22-2.38-4.22h17.76l-2.42,4.6,3.28-4.6h6.49l.63,8.26.4-8.26h6.68l3.21,4.22-2.38-4.22h11.38V808.83h56.09Z"/><path class="cls-1" d="M10.19,843.31H51.44V815.42H10.19Zm3.7-24.19H47.74v20.49H13.89Z"/><path class="cls-1" d="M413.94,843.31V815.42H372.69v27.89Zm-37.55-24.19h33.84v20.49H376.39Z"/></g></g></svg>