<svg xmlns="http://www.w3.org/2000/svg" viewBox="0 0 674.78 89.18"><defs><style>.cls-1{fill:none;stroke:#ff2727;stroke-linecap:round;stroke-linejoin:bevel;}</style></defs><g id="레이어_2" data-name="레이어 2"><g id="레이어_1-2" data-name="레이어 1"><path class="cls-1" d="M3.58,53.21l-2-11.56a1.49,1.49,0,0,1,.1-1c.12-.16.45-.21,1-.15q6.36.78,13.15,1.26t13.74.72q6.93.24,13.83.29t13.29-.1c4.28-.09,8.32-.24,12.15-.43s7.27-.45,10.36-.77l-5,2.21,6.55-5.2A1.65,1.65,0,0,1,81.74,38a1.88,1.88,0,0,1,1,.62,27.09,27.09,0,0,1,3.76,5.21,28.19,28.19,0,0,1,2.8,6.84,7.09,7.09,0,0,1,.09,2.55c-.13.55-.64.86-1.54.92a40.29,40.29,0,0,1-4.53-.1q-7-.48-15.18-.77t-16.67-.38q-8.52-.1-16.91,0t-15.85.43q-7.47.33-13.45,1C4.26,54.44,3.71,54.05,3.58,53.21Zm9.16,13.5L11,58.61a1.69,1.69,0,0,1,.1-1.06c.13-.19.45-.29,1-.29H33.17v8.68c-2.19.06-4.8.22-7.85.48s-6.7.74-10.94,1.44C13.48,68.06,12.93,67.67,12.74,66.71ZM13,94.27V75.48l-.39-3.38c-.06-.9.36-1.31,1.26-1.25l9.15.58a2,2,0,0,1,1.83,1.35l.39,1.15,2.79,1.64V91.09a3.16,3.16,0,0,1-1.88,3,13.46,13.46,0,0,1-5.25,1.15l-6.55.29C13.48,95.58,13,95.17,13,94.27Zm32.38-56a80.41,80.41,0,0,1-13.16-1,37.64,37.64,0,0,1-9.92-2.89,16.49,16.49,0,0,1-6.27-4.77,10.59,10.59,0,0,1-2.16-6.6,10.83,10.83,0,0,1,2.16-6.65,16.65,16.65,0,0,1,6.27-4.86A36.48,36.48,0,0,1,32.25,8.6a80.41,80.41,0,0,1,13.16-1,80.06,80.06,0,0,1,13.2,1,36.4,36.4,0,0,1,9.88,2.94A16.11,16.11,0,0,1,74.7,16.4a10.93,10.93,0,0,1,2.12,6.65,10.68,10.68,0,0,1-2.12,6.6,16,16,0,0,1-6.21,4.77,37.55,37.55,0,0,1-9.88,2.89A80.06,80.06,0,0,1,45.41,38.28ZM18.71,85q4.44,0,8.73-.24a73.6,73.6,0,0,0,8-.87,30,30,0,0,0,6.36-1.69l-10.5,4.53L41,81.16a1.46,1.46,0,0,1,2,.29,19.12,19.12,0,0,1,2.12,3.61,48.91,48.91,0,0,1,1.93,4.77,5.4,5.4,0,0,1,.43,2.46c-.1.55-.58.92-1.45,1.11a33.44,33.44,0,0,1-4.48.48c-2.25.07-4.69.08-7.32.05s-5.27-.08-7.9-.14-5.11-.16-7.42-.29ZM20,79.43V71.81H34.13v7.62Zm7.42-.68V57.46l-.58.09,3.57-2.31a2.64,2.64,0,0,1,2.4-.19,32.49,32.49,0,0,1,5.59,3.13A22.25,22.25,0,0,1,42.81,62a1.53,1.53,0,0,1,0,2.12l-.49.68V77.31A1.53,1.53,0,0,1,41,79c-1,.19-2.3.37-3.81.53s-3,.3-4.53.43-2.81.19-3.9.19A1.19,1.19,0,0,1,27.39,78.75Zm18-51.17a33.57,33.57,0,0,0,6.41-.53,10.27,10.27,0,0,0,4.09-1.59,3.06,3.06,0,0,0,0-5.2,10.27,10.27,0,0,0-4.09-1.59,32.78,32.78,0,0,0-6.41-.53,32.87,32.87,0,0,0-6.36.53,10.4,10.4,0,0,0-4.15,1.59,3.07,3.07,0,0,0,0,5.2,10.4,10.4,0,0,0,4.15,1.59A33.68,33.68,0,0,0,45.41,27.58ZM35.19,48.3l-.48-7.42-.29-4.53a1.72,1.72,0,0,1,.24-1.06,1.32,1.32,0,0,1,1-.29H53.21c1,0,1.35.45,1.16,1.35a13,13,0,0,1-.24,1.3,7.74,7.74,0,0,1-.34,1.11L53,48.3Zm9.93,23.85a2,2,0,0,1-.48-1L43,62.85a1.43,1.43,0,0,1,.1-1c.12-.16.44-.21,1-.14q4.53.57,9.54.86t9.69.29c3.11,0,5.86-.1,8.23-.29a22.84,22.84,0,0,0,5.21-.86l-7.42,2.4,9.06-3.75c.9-.39,1.51-.16,1.83.67a20,20,0,0,1,1.35,3.28c.38,1.22.73,2.57,1.06,4,.38,1.74.29,2.78-.29,3.14s-2.41.37-5.5,0C73.1,71.2,69.45,71,65.89,71s-7,0-10.31.24a81,81,0,0,0-9.4,1.06A1.44,1.44,0,0,1,45.12,72.15ZM63,95.81q-7.51,0-12.09-3.18a9.94,9.94,0,0,1-4.58-8.58A9.68,9.68,0,0,1,51,75.52q4.57-3,12.09-3,8.1,0,12.44,3a9.82,9.82,0,0,1,4.33,8.53,10,10,0,0,1-4.53,8.58Q70.75,95.81,63,95.81ZM55,57.36A1.7,1.7,0,0,1,55,56.3a1.4,1.4,0,0,1,1-.39l13.59-.77c1-.06,1.31.36,1.06,1.25l-2,9.45H56.88Zm8.09,30a4.1,4.1,0,0,0,2.61-.77,3,3,0,0,0,1-2.51,3.18,3.18,0,0,0-1-2.55A3.89,3.89,0,0,0,63,80.68a3.93,3.93,0,0,0-2.5.82,3,3,0,0,0-1.06,2.55,2.89,2.89,0,0,0,1.06,2.51A4.15,4.15,0,0,0,63,87.33Z" transform="translate(-1.03 -7.13)"/><path class="cls-1" d="M93.3,84.34l-2.12-12a1.69,1.69,0,0,1,.1-1.06q.19-.28,1-.09,6.47.67,13.4,1.15t14,.73q7,.24,13.83.28c4.53,0,8.9,0,13.11-.09s8.12-.24,11.75-.44,6.86-.45,9.69-.77l-4.63,2.22,6.56-5.3a2.08,2.08,0,0,1,1.06-.48,1.56,1.56,0,0,1,1,.58,31.09,31.09,0,0,1,3.9,5.59,29,29,0,0,1,2.94,7.22,7,7,0,0,1,.1,2.56c-.13.54-.64.85-1.54.91a42.17,42.17,0,0,1-4.53-.09q-6.75-.39-14.79-.73t-16.63-.43q-8.58-.09-17,0t-16,.43q-7.56.35-13.54.92C94,85.69,93.5,85.31,93.3,84.34Zm10.6-54.25-3.18-12.24a1.68,1.68,0,0,1,.1-1.06c.13-.2.45-.29,1-.29h53.49l-.19,12.82q-8.1.09-16.19.38t-16.39.68q-8.28.38-17,1A1.42,1.42,0,0,1,103.9,30.09Zm15.42,49.05-.48-26L118.46,47a1.19,1.19,0,0,1,1.34-1.35h19.37a1.33,1.33,0,0,1,1,.29c.16.19.17.55.05,1.06s-.15.92-.25,1.4a6.34,6.34,0,0,1-.33,1.2l-.77,29.59Zm25.35-15.9c-.52,0-.84-.1-1-.29a1.72,1.72,0,0,1-.09-1.06,144.85,144.85,0,0,0,4-22.31q1.05-10.84,1.06-22.5h3.18l3.27-2.9a2,2,0,0,1,2.22-.38,47,47,0,0,1,6,3.08,48.11,48.11,0,0,1,6,4.34c.44.32.67.61.67.87a2.11,2.11,0,0,1-.48,1.06L168,25.27a162.3,162.3,0,0,1-1.93,17.58A126.34,126.34,0,0,1,162,60.06a2.58,2.58,0,0,1-1.63,1.73,26.19,26.19,0,0,1-4.63.92c-1.86.22-3.77.37-5.73.43S146.27,63.24,144.67,63.24Z" transform="translate(-1.03 -7.13)"/><path class="cls-1" d="M208.56,81.64l-2.12-12a1.7,1.7,0,0,1,.1-1.06q.18-.28,1-.09,6.45.67,13.4,1.15t14,.73q7,.24,13.83.29t13.1-.1q6.31-.15,11.76-.43c3.63-.2,6.86-.45,9.69-.78l-4.63,2.22,6.55-5.3a2.11,2.11,0,0,1,1.06-.48,1.58,1.58,0,0,1,1,.58A31.61,31.61,0,0,1,291.1,72,29,29,0,0,1,294,79.23a7.45,7.45,0,0,1,.1,2.56c-.13.54-.65.85-1.55.91a37.38,37.38,0,0,1-4.53-.09q-6.74-.39-14.79-.73t-16.62-.43q-8.58-.09-17,0t-15.95.43q-7.58.34-13.54.92C209.3,83,208.75,82.61,208.56,81.64Zm10.12-49.92L215.5,19.29a1.42,1.42,0,0,1,0-1.06c.13-.19.45-.29,1-.29h51.66V31q-7.81.11-15.66.39T236.65,32q-8,.39-16.24,1A1.53,1.53,0,0,1,218.68,31.72Zm38.64,36.43c-.51,0-.83-.09-1-.29a1.68,1.68,0,0,1-.1-1.06,172.1,172.1,0,0,0,4.24-24.09q1.15-11.57,1.16-24.19h3.08l3.28-3a1.94,1.94,0,0,1,2.22-.48,41.24,41.24,0,0,1,6,3.18,57.67,57.67,0,0,1,6,4.44c.45.32.68.61.68.86a2,2,0,0,1-.49,1.06l-1.63,2.12a161.28,161.28,0,0,1-1.93,19.47A144.11,144.11,0,0,1,274.57,65a2.57,2.57,0,0,1-1.64,1.74,26.15,26.15,0,0,1-4.62.91c-1.87.23-3.76.37-5.69.44S258.93,68.15,257.32,68.15Z" transform="translate(-1.03 -7.13)"/><path class="cls-1" d="M297.89,61.7,296,50.81a1.63,1.63,0,0,1,.09-1.06c.13-.2.45-.23,1-.1q6.17.76,12.86,1.25t13.59.73q6.88.24,13.78.28t13.49-.14q6.6-.2,12.58-.48c4-.2,7.64-.45,11-.77l-5.49,2.41,6.56-5.11a2.06,2.06,0,0,1,1.05-.48,1.6,1.6,0,0,1,1,.57A23.54,23.54,0,0,1,381,52.73a26.77,26.77,0,0,1,2.7,6.56,6.92,6.92,0,0,1,.1,2.55c-.13.55-.64.85-1.54.91a37.38,37.38,0,0,1-4.53-.09q-7.23-.48-15.47-.77t-16.82-.44q-8.58-.14-16.86,0t-15.71.43q-7.43.34-13.3,1C298.63,63,298.09,62.66,297.89,61.7ZM308,46.47V30.57l-1.93-6.36c-.25-.84.07-1.22,1-1.16L325,24.59c.52.07.95.13,1.3.2a3,3,0,0,1,1.21.57l2.7,1.55-3.76,1.92v16a1.53,1.53,0,0,1-1.35,1.64q-3.57.68-7.81,1.06a68.07,68.07,0,0,1-7.9.29A1.19,1.19,0,0,1,308,46.47Zm.58-26.41-2.31-9a1.71,1.71,0,0,1,.09-1.06c.13-.19.45-.25,1-.19q12.24.68,24.48.77t24.47-.19v9.44q-9.15-.2-21.2.19t-24.86,1.26A1.42,1.42,0,0,1,308.59,20.06Zm3,74L310.71,77l-1.54-10c-.19-.9.19-1.32,1.16-1.26l17.73.58a1.58,1.58,0,0,1,1.64,1.45l.48,2.79V91.18a3.07,3.07,0,0,1-1.88,2.94,13.2,13.2,0,0,1-5.25,1l-10,.28A1.28,1.28,0,0,1,311.58,94.08Zm4.05-61.68V24.3h39.7v8.1Zm4,43.36V67.19l38.84-1v9.54Zm0,17.83V82.8h38.26V93.59Zm2.41-56.37c2.25.13,4.69.22,7.33.29s5.39.06,8.28,0,5.85-.16,8.87-.29,6.07-.31,9.16-.53,6.13-.47,9.15-.73L351.28,40.3l14.07-6.46a2.35,2.35,0,0,1,2.41.2,19.09,19.09,0,0,1,3.81,3.71,29.34,29.34,0,0,1,2.84,4.38c.71,1.61.8,2.62.29,3s-2.35.69-5.49.82q-6.18.19-11.86.29t-10.74.09c-3.37,0-6.52,0-9.45,0s-5.62-.08-8.09-.14-4.67-.13-6.6-.19Zm26.6-4.92.87-19.46-2.6-1,4.52-3.18a2.92,2.92,0,0,1,2.41-.48A42.76,42.76,0,0,1,360.29,10a66,66,0,0,1,6.46,2.75,27.06,27.06,0,0,1,4.87,2.94,1.12,1.12,0,0,1,.19,1.83l-1.83,2-1.74,10.8A1.79,1.79,0,0,1,366.7,32c-1.41.2-3.13.42-5.15.68s-4.07.46-6.12.62-3.89.28-5.5.34C349,33.65,348.62,33.2,348.68,32.3ZM351.28,65a2.5,2.5,0,0,1,2.32-.58q2.79.58,6.07,1.5t6.41,2a34.45,34.45,0,0,1,5.34,2.36,1.19,1.19,0,0,1,.49,1.83,12.66,12.66,0,0,1-1,1.26,11.35,11.35,0,0,1-1.25,1.25l-1.35,16.57a3.25,3.25,0,0,1-2.07,2.94,14,14,0,0,1-5.35,1l-9.35.28a1.19,1.19,0,0,1-1.35-1.34V70.37l-2.6-2Z" transform="translate(-1.03 -7.13)"/><path class="cls-1" d="M391.08,76.44l-3.47-13.3a1.49,1.49,0,0,1,.1-1q.19-.24,1-.24,6.36.2,13.88.14t15.37-.43q7.86-.39,15.32-1t13.54-1.44a1.45,1.45,0,0,1,1.06.14,1.55,1.55,0,0,1,.39,1l.48,8.09A1.35,1.35,0,0,1,447.46,70q-6.56,1.26-14,2.46T418.5,74.66q-7.47,1-14.17,1.78T392.72,77.6C391.76,77.66,391.21,77.28,391.08,76.44ZM415,56.49a29.66,29.66,0,0,1-13.15-2.79,22,22,0,0,1-9-7.71,19.85,19.85,0,0,1-3.23-11.18,20,20,0,0,1,3.23-11.28,22,22,0,0,1,9-7.71,32.29,32.29,0,0,1,26.26,0A22.1,22.1,0,0,1,437,23.53a20.11,20.11,0,0,1,3.23,11.28A19.93,19.93,0,0,1,437,46a22.1,22.1,0,0,1-8.91,7.71A29.4,29.4,0,0,1,415,56.49Zm0-11.85a5.61,5.61,0,0,0,3.57-1.21A7.88,7.88,0,0,0,421,40a14.17,14.17,0,0,0,.86-5.2A14.26,14.26,0,0,0,421,29.6a8,8,0,0,0-2.41-3.42,5.9,5.9,0,0,0-7.13,0A7.84,7.84,0,0,0,409,29.6a14.25,14.25,0,0,0-.87,5.21A14.16,14.16,0,0,0,409,40a7.72,7.72,0,0,0,2.41,3.42A5.56,5.56,0,0,0,415,44.64Zm32,49.24V18.71l-.87-9.15a1.1,1.1,0,0,1,1.25-1.35h20.72c1,0,1.22.42.77,1.25a14.79,14.79,0,0,1-2.6,4.15V91a3.07,3.07,0,0,1-1.88,2.94,13,13,0,0,1-5.25,1l-10.79.29A1.19,1.19,0,0,1,447,93.88Z" transform="translate(-1.03 -7.13)"/><path class="cls-1" d="M506.44,49.46c-.39-.39-.55-.68-.49-.87s.33-.35.78-.48a50,50,0,0,0,10.55-4.77,42.72,42.72,0,0,0,8.57-6.75,29,29,0,0,0,5.74-8.24,21.79,21.79,0,0,0,2-9.15l-.86-4.34,2.21-3a2.09,2.09,0,0,1,.92-.82,3,3,0,0,1,1.2-.05c1.35.33,3,.82,5,1.5s4,1.43,6,2.26a48.31,48.31,0,0,1,5.25,2.51c.45.26.71.5.77.72s-.06.56-.38,1l-2.41,3.47a26.33,26.33,0,0,1-3.42,11,45.05,45.05,0,0,1-7.91,10.21,55,55,0,0,1-11,8.34A56.72,56.72,0,0,1,516,57.55a2.41,2.41,0,0,1-2.32-.67Zm4.91-23-3.08-10.89c-.26-.83.06-1.25,1-1.25H536.5l-1.15,9.83-22.26,3.37A1.33,1.33,0,0,1,511.35,26.42Zm38.84,69.29A53.12,53.12,0,0,1,535,93.64a26.74,26.74,0,0,1-11.13-6.12,14.2,14.2,0,0,1,0-20.14A26.74,26.74,0,0,1,535,61.26a57.21,57.21,0,0,1,30.5,0,26.38,26.38,0,0,1,11,6.12,14.32,14.32,0,0,1,0,20.14,26.38,26.38,0,0,1-11,6.12A52.91,52.91,0,0,1,550.19,95.71Zm0-11.17a13.13,13.13,0,0,0,4.72-.82,7.74,7.74,0,0,0,3.37-2.41,6.09,6.09,0,0,0,1.26-3.91,6.31,6.31,0,0,0-1.26-4A7.51,7.51,0,0,0,554.91,71a12.92,12.92,0,0,0-4.72-.82,12.66,12.66,0,0,0-4.63.82,7.51,7.51,0,0,0-3.37,2.45,6.3,6.3,0,0,0-1.25,4,6.09,6.09,0,0,0,1.25,3.91,7.74,7.74,0,0,0,3.37,2.41A12.87,12.87,0,0,0,550.19,84.54Zm16.09-35.47a40.51,40.51,0,0,0-9.83,1.25q-4.25,1.16-7.32,2.12a1.21,1.21,0,0,1-1,0,1.61,1.61,0,0,1-.48-1L546.53,40.4c-.07-.52,0-.85.14-1s.5-.21,1-.15c1.48.19,3.15.34,5,.43s3.92.18,6.17.25,4.72.09,7.42.09Zm0-17.35A32.87,32.87,0,0,0,557.46,33l-6.6,2q-1.25.39-1.35-1l-1.25-11c-.06-.51,0-.85.19-1a1.46,1.46,0,0,1,1.06-.15c1.35.2,2.85.36,4.48.49s3.49.21,5.55.24,4.3.05,6.74.05Zm-3.95,25.64V18.23l-.87-8.67a1.11,1.11,0,0,1,1.26-1.35h20.52c1,0,1.22.42.77,1.25a23.94,23.94,0,0,1-1.25,2.22c-.45.71-.9,1.35-1.35,1.93v41a3.05,3.05,0,0,1-1.88,2.94,12.21,12.21,0,0,1-5.25.92l-10.6.29A1.19,1.19,0,0,1,562.33,57.36Z" transform="translate(-1.03 -7.13)"/><path class="cls-1" d="M590.66,68.73c-.77-.58-.74-1.12.1-1.64a64.78,64.78,0,0,0,10.16-8.72,47.21,47.21,0,0,0,7.33-10.21,46.93,46.93,0,0,0,4.34-11.95,53,53,0,0,0,1-13.93l.19-3.47,2.22-3a1.86,1.86,0,0,1,2.12-.77,35.3,35.3,0,0,1,4.57,1.4c1.84.67,3.72,1.43,5.64,2.26s3.66,1.68,5.21,2.51c.45.26.7.5.77.72s-.07.57-.39,1l-2.41,3.46a43.86,43.86,0,0,1-1.64,11.81,58.22,58.22,0,0,1-4.53,11.47,64.94,64.94,0,0,1-6.79,10.45A64.29,64.29,0,0,1,610.13,69a51.44,51.44,0,0,1-9.45,6.51,1.94,1.94,0,0,1-2.21-.29Zm6.07-36.33L594,19.58a1.69,1.69,0,0,1,.1-1.06c.13-.19.45-.29,1-.29h26.6l-1.15,11.66q-8.19.78-13.25,1.55a69.29,69.29,0,0,0-9,1.92C597.44,33.62,596.93,33.3,596.73,32.4Zm44.62,30a16.72,16.72,0,0,0-5.73,1.2q-2.75,1.11-4.77,1.88a1.42,1.42,0,0,1-1.06,0c-.2-.12-.32-.45-.39-1l-1-12c-.07-.51,0-.85.14-1s.5-.21,1-.14a47.74,47.74,0,0,0,5.69.48q3.18.09,6.07,0Zm0-20.33a14.4,14.4,0,0,0-5,1.1c-1.64.68-3.1,1.27-4.39,1.79-.51.19-.86.22-1.06.09s-.32-.45-.38-1l-1-12a1.45,1.45,0,0,1,.15-1.06c.16-.19.5-.22,1-.1,1.48.2,3.2.34,5.16.44s3.77.11,5.44.05Zm-4.24,50V20.35l-.67-8.77a1.1,1.1,0,0,1,1.25-1.35h14.74a1.33,1.33,0,0,1,1,.29c.16.2.17.55,0,1.06s-.41,1.35-.67,2.12-.45,1.42-.58,1.93V89.45a3.05,3.05,0,0,1-1.88,2.94,12.22,12.22,0,0,1-5.25.91l-6.65.1A1.19,1.19,0,0,1,637.11,92.05Zm20.24,1.83V18.42l-.87-8.86c-.06-.9.35-1.35,1.25-1.35h16.58c.9,0,1.19.42.87,1.25a19.89,19.89,0,0,1-1.06,2.17c-.39.68-.81,1.34-1.25,2V91.38A3,3,0,0,1,671,94.27a12.86,12.86,0,0,1-5.26.87l-7,.09A1.19,1.19,0,0,1,657.35,93.88Z" transform="translate(-1.03 -7.13)"/></g></g></svg>