<svg xmlns="http://www.w3.org/2000/svg" viewBox="0 0 389.27 624.43"><defs><style>.cls-1{fill:none;stroke:#ff2727;stroke-miterlimit:10;stroke-width:0.75px;}</style></defs><g id="레이어_2" data-name="레이어 2"><g id="레이어_1-2" data-name="레이어 1"><path class="cls-1" d="M379.21,567.43v-3.17a5.24,5.24,0,0,0,.34-1.81,5.15,5.15,0,0,0-.34-1.81v-.5H379a5.27,5.27,0,0,0-.92-1.28l-1.48-4.5c.81-2.09,1.38-4.32-.22-6.24s-1.82-5.52-2-8.73c-.24-3.48-.46-6.77-2.26-8.61a7.63,7.63,0,0,0-3.93-2l-15.95-48.41c2.45-8.91,5-18.13.34-32.22A45.82,45.82,0,0,0,347,436.55a67.14,67.14,0,0,0-1.3-7.49c1.38-3.15,2.53-6.57,1.46-9.81s-3.9-5-6.77-6.34a55.69,55.69,0,0,0-7.81-13c-.07-3.51-.25-6.76-2.22-8.6s-5.05-1.9-8.07-1.66l-6-18.34c2.45-8.92,5-18.14.34-32.23C313.4,329.39,309,324,304.28,320a8,8,0,0,0,1.47-3.44c.4-2.8-1.34-5.38-3.31-8.07a62.63,62.63,0,0,0-1.66-15.72c1.37-3.16,2.52-6.57,1.46-9.81s-3.91-5-6.78-6.34a55.35,55.35,0,0,0-7.81-13c-.07-3.51-.25-6.76-2.21-8.6a6.4,6.4,0,0,0-3-1.52A44.94,44.94,0,0,0,280.65,230c-4.64-14.09-11.87-19.13-18.86-24l-6.13-18.57c2.42-2.11,4.74-4.33,5.16-7.26s-1.33-5.38-3.31-8.07a61.68,61.68,0,0,0-1.66-15.71c1.38-3.16,2.53-6.58,1.46-9.82s-3.91-5-6.78-6.34a64.49,64.49,0,0,0-3.3-6.51,49.2,49.2,0,0,0-2.52-12.8c-4.64-14.08-11.87-19.13-18.87-24L210.49,50.4c1.95-1.93,3.66-4,4-6.53.35-2.74-1.38-5.32-3.31-8,.06-1.46.08-3,.05-4.56.07-.69.12-1.38.16-2.08a22.18,22.18,0,0,0,1-13.82,9.67,9.67,0,0,0,.18-4.63L212,8.62l-2,1.16a17.57,17.57,0,0,0-31.11,0l-2-1.16-.49,2.14a9.59,9.59,0,0,0,.18,4.61,22,22,0,0,0,1.17,14.33c-.09,2.17-.08,4.21,0,6.15-1.93,2.7-3.67,5.28-3.32,8,.32,2.44,1.91,4.45,3.77,6.31L162.7,97.49c-6.77,4.71-13.66,9.88-18.15,23.49a49.47,49.47,0,0,0-2.49,12.31,64.64,64.64,0,0,0-3.59,7c-2.87,1.35-5.7,3.07-6.77,6.34s.08,6.66,1.45,9.82a62.08,62.08,0,0,0-1.65,15.71c-2,2.69-3.72,5.27-3.32,8.07s2.6,5,4.93,7.06l-6.35,19.27c-6.77,4.71-13.67,9.88-18.15,23.49a45.08,45.08,0,0,0-1.8,23.39,6.43,6.43,0,0,0-3.24,1.56c-2,1.84-2.15,5.09-2.22,8.6a55.57,55.57,0,0,0-7.81,13c-2.87,1.34-5.69,3.07-6.77,6.34s.08,6.65,1.46,9.81a61.68,61.68,0,0,0-1.66,15.71c-2,2.69-3.72,5.27-3.31,8.07a8.06,8.06,0,0,0,1.57,3.58c-4.66,4-9,9.39-12.16,19-4.48,13.6-2.27,22.67.09,31.31l-6.33,19.23c-2.92-.22-5.79-.19-7.78,1.68s-2.15,5.09-2.22,8.6a55.35,55.35,0,0,0-7.81,13c-2.87,1.35-5.7,3.07-6.78,6.34s.09,6.66,1.46,9.82A68.82,68.82,0,0,0,42,437a46.46,46.46,0,0,0-5.23,11.13c-4.49,13.61-2.27,22.67.09,31.31L20.54,528.84a7.52,7.52,0,0,0-3.6,1.94c-1.8,1.84-2,5.13-2.26,8.61-.21,3.21-.46,6.84-2,8.73S11.54,552,12.24,554l-2,6a.56.56,0,0,0,0,.08h-.15v.26a4.78,4.78,0,0,0-.59,2.05l-.16.48.15,0a4.83,4.83,0,0,0,.6,2.11v2.36H.38v26.85H42.43v15H89.48v14.83h210.3V609.23h47.05v-15h42.06V567.43Zm-122.08-390a4.14,4.14,0,0,1,.51,2.28,5.28,5.28,0,0,1-1.21,2.44C256.7,180.66,256.94,179.09,257.13,177.47Zm-125.77,2.29a4.14,4.14,0,0,1,.51-2.28c.19,1.62.43,3.18.7,4.71A5.25,5.25,0,0,1,131.36,179.76ZM376,563.67v.3a2.61,2.61,0,0,1-1.9.81,2.68,2.68,0,0,1-1.39-.39Zm0,3.69v.07h-.2ZM369.78,533c.69.71,1,2.35,1.16,4.23l-1.47-4.48A3.76,3.76,0,0,1,369.78,533Zm3.38,21.21-.09.23A97.62,97.62,0,0,0,363.6,536a2.26,2.26,0,0,0-.16-.26L362,531.42l1.12.05c.87,0,1.74.08,2.57.16ZM38.72,517.86c1-3.34,2.17-7.22,3.61-11.79,2.67-1.45,5.28-3.25,6.29-6.32,1.07-3.24-.08-6.66-1.45-9.82a62.53,62.53,0,0,0,1.66-15.42L49,474c1.9-2.6,3.51-5.11,3.12-7.81a6.21,6.21,0,0,0-.22-1L67.13,419c3.57-3.72,6.83-8.68,9.33-16.27a46,46,0,0,0,2.46-18.36c0-.42,0-.84,0-1.26l.17-.51a55.68,55.68,0,0,0,7.65-12.81c2.86-1.35,5.69-3.07,6.77-6.34s-.08-6.66-1.46-9.82a62.11,62.11,0,0,0,1.67-15.42l.18-.55c1.9-2.6,3.51-5.11,3.12-7.81a6.51,6.51,0,0,0-.23-1l6.24-18.93c3.57-3.73,6.83-8.68,9.33-16.28a45.7,45.7,0,0,0,2.38-19.24l6.19-18.8a6.4,6.4,0,0,0,.71-.55c1.9-1.79,2.13-4.9,2.21-8.29l.17-.51a55.82,55.82,0,0,0,7.64-12.81c2.87-1.35,5.7-3.07,6.78-6.34s-.09-6.66-1.46-9.82a62.06,62.06,0,0,0,1.66-15.42l.19-.55c.28-.39.56-.78.82-1.16a41.83,41.83,0,0,0,8.65-15.56,45.76,45.76,0,0,0,2.38-19.25l15.18-46.07a5.2,5.2,0,0,0,.71-.55c1.9-1.78,2.13-4.9,2.21-8.29l.16-.51a55.25,55.25,0,0,0,7.65-12.81c2.87-1.35,5.7-3.07,6.78-6.34s0-6.53-1.32-9.65a53.67,53.67,0,0,0,2.2-5.6,48,48,0,0,0,2.54-13.81,6.93,6.93,0,0,0,1-4.06,7.17,7.17,0,0,0-.78-2.57L191.7,41a16.29,16.29,0,0,0,2.8.26,17.62,17.62,0,0,0,2.53-.21l4.74,14.38a7,7,0,0,0-.6,2.22,7.28,7.28,0,0,0,1.29,4.54A48,48,0,0,0,205,75.53c.59,1.79,1.22,3.43,1.89,4.94L207,81c-1.33,3.17-2.45,6.6-1.39,9.82s3.91,5,6.78,6.34a55.85,55.85,0,0,0,7.14,12.18l.7,2.14c.11,3,.47,5.69,2.19,7.3l.3.26,15.72,47.67a46.06,46.06,0,0,0,2.49,17.92,43.16,43.16,0,0,0,7.57,14.31q.51.84,1.11,1.68l.7,2.12A62.68,62.68,0,0,0,252,217.28c-1.38,3.16-2.53,6.57-1.46,9.81s3.9,5,6.77,6.34a56.25,56.25,0,0,0,7.15,12.18l.7,2.14c.11,3,.47,5.69,2.18,7.29.1.1.21.18.31.27l6.73,20.41a46.22,46.22,0,0,0,2.49,17.91A42,42,0,0,0,285.34,309l6.71,20.36c0,.16-.09.3-.11.46-.35,2.45.93,4.73,2.59,7.06l.7,2.13a62.68,62.68,0,0,0,1.68,14.59c-1.37,3.16-2.53,6.57-1.46,9.81s3.91,5,6.78,6.34a56.25,56.25,0,0,0,7.14,12.18l.71,2.14c0,.78.07,1.54.16,2.27a46.73,46.73,0,0,0,2.56,16.35,42.19,42.19,0,0,0,8.48,15.37L337,465.69a3.69,3.69,0,0,0-.11.45c-.35,2.45.93,4.73,2.59,7.07l.7,2.12a62.56,62.56,0,0,0,1.68,14.59c-1.37,3.16-2.53,6.58-1.46,9.82,1,3.07,3.63,4.87,6.3,6.32,1.5,4.77,2.69,8.79,3.72,12.23,4.14,13.91,5.9,19.83,15.25,34.39l2.45,7.46H20.61l2.22-6.73C32.58,538.29,34.39,532.26,38.72,517.86ZM27.57,539l.13-.42c.11-.17.22-.35.34-.52Zm7.65-23.24,2.37-7.18.65-.39c-.23.82-.48,1.66-.77,2.53C36.73,513,36,515,35.31,516.88Zm3.84-11.65.27-.8c0,.25-.08.49-.13.73Zm3.84-11.64.81-2.45.09.21c-.24,1-.52,2-.82,3.11C43,493.09,42.93,492.8,42.9,492.51Zm6.28-55.3a8.36,8.36,0,0,0-.45-3.5,40.75,40.75,0,0,1,4.44-3.86l-7.55,22.9a65.28,65.28,0,0,1-.74-6.94C46.75,443.27,48.8,440.41,49.18,437.21Zm-4.26,2.73c0-.58.07-1.17.13-1.77.3-.44.62-.87.93-1.29A9.31,9.31,0,0,1,44.92,439.94ZM47,458.89l10.61-32.21c1.59-1.09,3.18-2.2,4.75-3.42L49.73,461.54A31.44,31.44,0,0,0,47,458.89Zm1.51,6.4-.38,1.14c-.11-.76-.23-1.52-.36-2.26A7.46,7.46,0,0,1,48.49,465.29Zm-2.81,30.25a6.48,6.48,0,0,1-.1,3.2,5.79,5.79,0,0,1-1.7,2.45c.32-1,.66-2,1-3.06C45.17,497.25,45.43,496.39,45.68,495.54ZM75.27,394.3a49.75,49.75,0,0,1-1.86,7.4,48.47,48.47,0,0,1-2.87,6.95Zm-1.85-4.65a6.27,6.27,0,0,1-1.52.25c.68-.58,1.36-1.18,2-1.81Zm10.7-22.2,4.51-13.71.1.21c-.53,2.15-1.17,4.42-2,6.86s-1.6,4.56-2.44,6.55Zm4.62-2.58c.36-1,.72-2,1.07-3.06.29-.89.55-1.74.8-2.59a6.36,6.36,0,0,1-.11,3.2A5.45,5.45,0,0,1,88.74,364.87Zm11.51-56.63a43.94,43.94,0,0,1-5,4.26l15-45.49a56,56,0,0,1,1.31,7Zm11-23a49.55,49.55,0,0,1-1.86,7.41,48.47,48.47,0,0,1-2.87,7Zm-12.93,29-3.63,11a30,30,0,0,0-2.74-2.65l1.62-4.94C95.12,316.53,96.71,315.42,98.28,314.2ZM93.42,329,93,330.11c-.11-.76-.24-1.51-.36-2.26A8,8,0,0,1,93.42,329Zm23.79-72.18-3.56,10.8c-.48-2.1-1-4.14-1.59-6.16l1.55-4.71A22.92,22.92,0,0,0,117.21,256.79Zm-.38-3.2c.68-.59,1.35-1.19,2-1.82l-.51,1.56A6.88,6.88,0,0,1,116.83,253.59ZM129,231.13l4.52-13.71.09.21c-.52,2.15-1.16,4.42-2,6.86s-1.61,4.56-2.44,6.55Zm4.63-2.58c.36-1,.72-2,1.06-3.06.3-.88.55-1.73.81-2.58a6.44,6.44,0,0,1-.11,3.19A5.4,5.4,0,0,1,133.67,228.55Zm5.91-39.65a28.86,28.86,0,0,0-2.75-2.65L146.16,158a55.88,55.88,0,0,1,1.31,7Zm7.57-12.71a49.75,49.75,0,0,1-1.86,7.4,47.35,47.35,0,0,1-2.87,6.95Zm-8.81,16.46-.37,1.14c-.12-.76-.24-1.51-.37-2.26A7.21,7.21,0,0,1,138.34,192.65Zm23.8-72.19-12.55,38.07c-.48-2.1-1-4.14-1.59-6.16l10.54-32A22.92,22.92,0,0,0,162.14,120.46Zm-.38-3.2c.68-.58,1.35-1.19,2-1.81l-.52,1.55A6.17,6.17,0,0,1,161.76,117.26ZM174,94.8l1-3,.61-.65c-.46,1.24-.92,2.42-1.39,3.54Zm4.39-13.32.17-.51s0,.07.05.1S178.43,81.34,178.36,81.48Zm.24,10.75c.36-1,.71-2,1.06-3.06.3-.9.56-1.75.82-2.61a6.68,6.68,0,0,1-.12,3.22A5.51,5.51,0,0,1,178.6,92.23Zm5.31-48.83,1.56-4.74a18,18,0,0,0,3.12,1.53l-3.08,9.36C185,47.45,184.47,45.41,183.91,43.4Zm16.25-3.11a17.22,17.22,0,0,0,3.13-1.48l1.81,5.5c-.56,2-1.1,4.1-1.56,6.24ZM206,36.81c.39-.35.77-.71,1.13-1.09l.11.16c-.19.94-.4,1.86-.63,2.78Zm2.52,49.75c.26.85.52,1.71.81,2.6.35,1.06.71,2.08,1.07,3.06a5.45,5.45,0,0,1-1.76-2.45A6.52,6.52,0,0,1,208.53,86.56Zm4.73,4.1c.07.08.13.16.2.23l.76,2.31C213.89,92.39,213.58,91.54,213.26,90.66Zm12.14,26.2-.61-1.82c.82.78,1.64,1.51,2.46,2.22A5.6,5.6,0,0,1,225.4,116.86Zm4.78,3.55L241,153.27c-.56,2-1.11,4.11-1.57,6.25l-12.88-39.09A20.76,20.76,0,0,0,230.18,120.41Zm19,68.72-7.54-22.87a48.88,48.88,0,0,1,1.21-7.34L252,186.44A26.84,26.84,0,0,0,249.21,189.13Zm2.19,2.4c-.16.94-.32,1.89-.46,2.86l-.45-1.39A6.31,6.31,0,0,1,251.4,191.53Zm-7-6.65c-.15-.44-.31-.85-.46-1.3s-.27-.88-.4-1.32Zm9,38c.25.85.51,1.7.8,2.59.35,1.06.7,2.07,1.07,3.06a5.38,5.38,0,0,1-1.76-2.45A6.37,6.37,0,0,1,253.47,222.89Zm2.36-3.41,3.31,10c-.62-1.57-1.23-3.24-1.82-5.05S256.26,221.08,255.83,219.48Zm14.49,33.7-.6-1.82c.82.77,1.64,1.51,2.46,2.21A5.43,5.43,0,0,1,270.32,253.18Zm4.79,3.55,1.85,5.6c-.56,2-1.11,4.1-1.57,6.25l-3.89-11.83A20.76,20.76,0,0,0,275.11,256.73Zm19,68.71-3.91-11.84c1.58,1.27,3.18,2.41,4.78,3.52l1.86,5.64A26.66,26.66,0,0,0,294.14,325.44Zm2.19,2.4c-.17.94-.32,1.89-.46,2.86l-.46-1.38A6.78,6.78,0,0,1,296.33,327.84Zm-8.16-20.5-10.56-32a49.09,49.09,0,0,1,1.21-7.34l14.48,43.95A38.92,38.92,0,0,1,288.17,307.34Zm-7.8-13.42c-.15-.43-.31-.84-.46-1.29s-.27-.88-.4-1.31Zm18,65.29c.26.85.51,1.7.81,2.58.35,1.07.7,2.08,1.06,3.07a5.51,5.51,0,0,1-1.76-2.45A6.49,6.49,0,0,1,298.39,359.21Zm2.37-3.42,3.31,10c-.62-1.57-1.23-3.24-1.83-5S301.19,357.39,300.76,355.79Zm14.49,33.71-.6-1.82c.82.77,1.64,1.51,2.46,2.21A5.38,5.38,0,0,1,315.25,389.5Zm1.07,13.5c-.16-.44-.32-.86-.47-1.31s-.27-.9-.41-1.34Zm23.5,34.2c.39,3.2,2.43,6.06,4.31,8.6a65.58,65.58,0,0,1-.84,7.54l-7.93-24.06a46.11,46.11,0,0,1,5,4.21A8.65,8.65,0,0,0,339.82,437.2Zm3.19-.69c.3.39.6.78.9,1.2q.12,1.14.18,2.22a9.15,9.15,0,0,1-1.08-3.12C343,436.72,343,436.61,343,436.51Zm.31,59c.26.85.51,1.7.8,2.58.35,1.05.68,2.07,1,3.06a5.8,5.8,0,0,1-1.69-2.44A6.49,6.49,0,0,1,343.32,495.54Zm-1.52-36.46a26.84,26.84,0,0,0-2.74,2.69l-12.89-39.11c1.58,1.26,3.19,2.4,4.78,3.51Zm-.54,5.09c-.17.94-.32,1.89-.46,2.86l-.46-1.38A6.78,6.78,0,0,1,341.26,464.17Zm4.42,27.94.57,1.72a2.62,2.62,0,0,0,0,.28C346,493.43,345.86,492.77,345.68,492.11Zm5.7,17.29,1.42,4.3c-.33-1-.66-1.92-1-3C351.64,510.29,351.52,509.85,351.38,509.4Zm8.73,27.07.41.64.21.66C360.52,537.33,360.31,536.9,360.11,536.47Zm8.6,26.88a5.34,5.34,0,0,0,3.68,4.08H16.53a5.06,5.06,0,0,0,3.3-4.08Zm-4.09-35c-.45,0-.89-.05-1.34-.06-.81,0-1.6-.08-2.35-.14l-4-12a14.83,14.83,0,0,0-.89-7.13,7,7,0,0,0-2.33-2.65l-4.25-12.91a50.27,50.27,0,0,1,1.2-7.33Zm-17.23-84.54q.56,1.2,1.08,2.55-.53-.78-1.11-1.56Zm-.41,6.32a4.17,4.17,0,0,1,.52,2.29,5.35,5.35,0,0,1-1.21,2.43C346.55,453.3,346.8,451.73,347,450.11Zm3.64,3a42.11,42.11,0,0,1-.27,21.68l-4.83-14.66C347.87,458.06,350.11,455.9,350.62,453.09Zm-1.78,27.35c-.56,2-1.11,4.11-1.56,6.25L347,486a9.36,9.36,0,0,0,.68-4.18c-.38-3.2-2.43-6.06-4.3-8.6a65.28,65.28,0,0,1,.74-6.94Zm-4.73-60.19a6.37,6.37,0,0,1,.11,3.2c-.25-.85-.51-1.7-.8-2.58-.35-1.06-.7-2.08-1.07-3.06A5.35,5.35,0,0,1,344.11,420.25Zm-8.27-9.46a4.92,4.92,0,0,1-1.93-1.6,9.57,9.57,0,0,1-1-3.52A54.23,54.23,0,0,1,335.84,410.79Zm-7.67-17.15a4.36,4.36,0,0,1,.95,2.45c-1.2-1.19-2.4-2.28-3.61-3.32A4.27,4.27,0,0,1,328.17,393.64Zm1.22,7.44c.06,3.46.17,7,1.74,9.72,1.17,2,3.62,3.11,6.21,4.26l.6.26c.83,2,1.64,4.16,2.43,6.55s1.44,4.71,2,6.86c-.12.26-.23.52-.35.77l-.36.79a68.75,68.75,0,0,0-8-6.14l-9.26-28.08A52.41,52.41,0,0,1,329.39,401.08Zm-9.35-8,9.2,27.93a40.31,40.31,0,0,1-5.13-4.58l-7.69-23.33A20.88,20.88,0,0,0,320,393.05Zm-2.26-6.84a53.62,53.62,0,0,1-4-4c.24-1.78.57-3.5,1-5.19Zm-15.72-72.42a4.14,4.14,0,0,1,.51,2.28,4.6,4.6,0,0,1-.82,1.89l-.26-.19C301.7,316.47,301.9,315.15,302.06,313.79Zm.08,8.58c4.44,3.76,8.44,8.71,11.4,17.71a42.45,42.45,0,0,1,.87,25.63l-13.82-41.93C301.12,323.32,301.64,322.85,302.14,322.37Zm10.76,49c-.21.76-.42,1.52-.62,2.29a9.73,9.73,0,0,0-.79-1.81,7.65,7.65,0,0,0-2.93-2.66l-6.45-19.56a9.3,9.3,0,0,0,.68-4.17c-.38-3.2-2.43-6.07-4.3-8.6a64.72,64.72,0,0,1,.74-6.94Zm-13.71-87.45a6.61,6.61,0,0,1,.11,3.2c-.26-.85-.52-1.7-.81-2.59-.35-1.06-.7-2.07-1.06-3.06A5.51,5.51,0,0,1,299.19,283.93Zm0,19.68a9.22,9.22,0,0,1-1.08-3.12,6.17,6.17,0,0,1,.46-2.54C298.85,300,299.05,301.82,299.16,303.61Zm-8.24-29.14a4.89,4.89,0,0,1-1.94-1.6,9.57,9.57,0,0,1-1-3.52A53,53,0,0,1,290.92,274.47Zm-9.15-17.85a3.25,3.25,0,0,1,1.47.7,4.36,4.36,0,0,1,.95,2.45c-.86-.85-1.72-1.66-2.59-2.43C281.66,257.1,281.72,256.86,281.77,256.62Zm-1.08,4.23a52.28,52.28,0,0,1,3.78,3.91c0,3.46.16,7,1.73,9.72,1.18,2,3.62,3.11,6.21,4.25l.6.27c.83,2,1.64,4.15,2.43,6.55s1.45,4.7,2,6.86c-.11.26-.23.51-.35.77-1.26,2.76-2.44,5.37-2.16,7.69.38,3.21,2.43,6.07,4.3,8.61-.11,2.15-.33,4.2-.63,6.2l-.84-.59-17.42-52.85C280.44,261.78,280.56,261.31,280.69,260.85ZM277.6,231a41.69,41.69,0,0,1,1.63,22.2c-.62,0-1.24.05-1.86.1l-13.89-42.15C269,215.26,274,220.22,277.6,231Zm-4.74,18.87a51.34,51.34,0,0,1-4.56-4.63c-.06-3.46-.17-7-1.74-9.72a7.58,7.58,0,0,0-2.93-2.66l-6.44-19.56a9.44,9.44,0,0,0,.68-4.17,10.54,10.54,0,0,0-.58-2.34c.59.43,1.19.84,1.78,1.25Zm-15.5-47a43.89,43.89,0,0,1-3.75-3.18c.14-2.11.39-4.12.7-6.08Zm-3.1-55.26a6.37,6.37,0,0,1,.11,3.2c-.25-.85-.51-1.7-.8-2.58-.35-1.06-.71-2.08-1.07-3.06A5.43,5.43,0,0,1,254.26,147.61Zm0,19.68a8.94,8.94,0,0,1-1.08-3.12,6.24,6.24,0,0,1,.45-2.53C253.93,163.63,254.13,165.5,254.24,167.29Zm-7.38-25.15.62.28.6.26c.84,2,1.65,4.16,2.44,6.55s1.44,4.71,2,6.86l-.35.77c-1.26,2.76-2.45,5.37-2.17,7.7.39,3.2,2.43,6.06,4.3,8.6a65.58,65.58,0,0,1-.84,7.54l-9.06-27.51A85.09,85.09,0,0,0,246.86,142.14Zm-2.77-5.54,0,0a9.77,9.77,0,0,1-1-3.52c.36.54.71,1.1,1.06,1.67C244.09,135.35,244.1,136,244.09,136.6Zm-.85-8.7-.51-.64c0-.62,0-1.23-.06-1.82Q243,126.7,243.24,127.9Zm.6,12.71a55.72,55.72,0,0,1-1.31,7l-8-24.17a52.41,52.41,0,0,1,5,5c.06,3.46.17,7,1.73,9.72A7.21,7.21,0,0,0,243.84,140.61Zm-8.18-20.48a4.24,4.24,0,0,1,2.65.88,4.32,4.32,0,0,1,.95,2.44C238.07,122.26,236.87,121.17,235.66,120.13Zm4.75-1.55c-2.06-1.84-5-1.81-8-1.58l-4.9-14.88A35.59,35.59,0,0,1,240.41,118.58Zm-12.48-5a51.34,51.34,0,0,1-4.56-4.63c-.06-3.46-.16-7-1.73-9.71a7.56,7.56,0,0,0-2.94-2.67l-.35-1.07c1.58,1.27,3.18,2.41,4.78,3.52ZM210.75,41.2a4.18,4.18,0,0,1,.54,2.27A5.63,5.63,0,0,1,210.13,46C210.36,44.43,210.57,42.84,210.75,41.2Zm-2,14,12.71,38.57a39.74,39.74,0,0,1-5.13-4.59l-4.12-12.48a8.91,8.91,0,0,0,.53-4c-.49-3.2-2.62-5.94-4.61-8.38l0-.08A69.18,69.18,0,0,1,208.71,55.25Zm-1.08-29.9c.13,1.3.22,2.55.28,3.76-.12.25-.26.49-.39.73a7.26,7.26,0,0,1-.48-2.05A5.85,5.85,0,0,1,207.63,25.35Zm-1.31-8.84c.22,1.12.41,2.2.58,3.25l-.32.59c-1.49,2.7-2.9,5.25-2.74,7.66a12.33,12.33,0,0,0,1.55,4.9c-.16.18-.33.35-.49.52l-2.14-6.5c1.29-2.3,2.2-5.69,3.1-9.68ZM205.56,9c-1.08.38-1.53,1.81-2.2,4.78l-4.15,2.45-.07-.23-.45-1.37-.2,0c0-2.24-.07-4.38-.11-6.08-.06-2.47-.09-3.82-.46-4.51A14.93,14.93,0,0,1,205.56,9Zm-4.41,9.81-.26.43-.45.72-.2-.61Zm-1.25,11a3,3,0,0,0,.36-.18l2,6.06a13.94,13.94,0,0,1-3.1,1.58l-2.52-7.67A3.83,3.83,0,0,0,199.9,29.78ZM194.36,33,196,38a12.79,12.79,0,0,1-1.52.09,13.35,13.35,0,0,1-1.79-.13Zm-4.76,4.19a14.46,14.46,0,0,1-3.08-1.64l2-6a3.83,3.83,0,0,0,.61.3,3.75,3.75,0,0,0,2.93-.05ZM188.26,19l.26.16-.06.17-.08-.14Zm3.13-15c-.42.66-.45,2-.51,4.6,0,1.72-.08,3.91-.11,6.19l-.74-.16L189.55,16l-3.9-2.31c-.67-3-1.13-4.4-2.21-4.78A14.86,14.86,0,0,1,191.39,4ZM182.75,16.2l.25.4c.91,4.08,1.8,7.59,3.07,10l-2.18,6.61-.28-.29A12.24,12.24,0,0,0,185.17,28c.16-2.41-1.25-5-2.74-7.66l-.32-.59C182.3,18.61,182.5,17.43,182.75,16.2Zm0,20.42-.35,1.07c-.14-.6-.27-1.21-.4-1.82C182.26,36.12,182.5,36.39,182.76,36.62Zm-1.38-11.27a5.67,5.67,0,0,1,.58,2.44,7.38,7.38,0,0,1-.47,2.06c-.13-.24-.27-.48-.39-.72C181.16,27.92,181.25,26.66,181.38,25.35Zm-3.66,18.11a4.18,4.18,0,0,1,.54-2.27c.17,1.65.38,3.24.62,4.79A5.51,5.51,0,0,1,177.72,43.46Zm2.49,11.17a70.84,70.84,0,0,1,.73,8.77L180.43,65c-1.84,2.28-3.67,4.83-4.12,7.77a8.3,8.3,0,0,0,.38,3.57l-4.56,13.83a44,44,0,0,1-5,4.25ZM165.42,99.52c1.58-1.1,3.17-2.21,4.75-3.43l-.23.68a7.32,7.32,0,0,0-2.57,2.46c-1.57,2.71-1.67,6.26-1.73,9.72a54.85,54.85,0,0,1-5,5ZM161,102.69,156.28,117c-2.69-.19-5.33-.18-7.29,1.28A35.13,35.13,0,0,1,161,102.69Zm-7.64,17.45c-1.2,1-2.41,2.13-3.6,3.32a4.36,4.36,0,0,1,.95-2.45A4.24,4.24,0,0,1,153.35,120.14Zm-5.62,18c1.57-2.71,1.68-6.26,1.74-9.72a52.69,52.69,0,0,1,4.56-4.63l-7.52,22.82a52.37,52.37,0,0,1-1.1-6.18A6.87,6.87,0,0,0,147.73,138.17Zm-1.43-11.56c0,.22,0,.44,0,.66l-.17.21C146.17,127.19,146.23,126.91,146.3,126.61Zm-1.08,7.65c.25-.42.51-.82.77-1.22a10.31,10.31,0,0,1-.82,3.07C145.17,135.5,145.19,134.88,145.22,134.26Zm-6.73,15c.79-2.39,1.6-4.56,2.43-6.55l.6-.26.86-.39a78.86,78.86,0,0,0,2.27,10.25l-9.17,27.82a62.73,62.73,0,0,1-.75-6.94c1.87-2.54,3.92-5.4,4.31-8.6.27-2.33-.91-4.93-2.17-7.69l-.35-.78C137,154,137.68,151.68,138.49,149.24Zm-3.72,18.06c.11-1.78.31-3.66.62-5.65a6.1,6.1,0,0,1,.46,2.53A9.15,9.15,0,0,1,134.77,167.3Zm0-19.67a5.53,5.53,0,0,1,1.76-2.45c-.36,1-.71,2-1.06,3.06-.29.88-.55,1.74-.8,2.58A6.45,6.45,0,0,1,134.74,147.63ZM134.6,193a67.61,67.61,0,0,1,.81,6.92,45.71,45.71,0,0,1-4.24,3.5Zm-5.13,15.56c.73-.5,1.45-1,2.17-1.52a10.19,10.19,0,0,0-.5,2.1,8.67,8.67,0,0,0,.53,3.75L125,233.1a7.24,7.24,0,0,0-2.57,2.46c-1.57,2.71-1.67,6.26-1.73,9.72a53.6,53.6,0,0,1-5,5ZM111.66,231c3.4-10.32,8.16-15.31,13.39-19.3l-13.7,41.57c-.44,0-.88-.06-1.31-.07A41.58,41.58,0,0,1,111.66,231Zm-5.89,26.3a3.38,3.38,0,0,1,1.71-.76c0,.2.09.4.13.59-.93.83-1.86,1.69-2.79,2.61A4.32,4.32,0,0,1,105.77,257.34Zm-4.7,12a9.77,9.77,0,0,1-1,3.52,5.14,5.14,0,0,1-1.94,1.6A51,51,0,0,1,101.07,269.37Zm-7.51,16.2c.79-2.4,1.6-4.57,2.44-6.55l.59-.27c2.59-1.14,5-2.22,6.22-4.26,1.56-2.71,1.67-6.25,1.73-9.71a50.18,50.18,0,0,1,4-4.1l.18.66L90.82,315.61l-.36.25a63.18,63.18,0,0,1-.66-6.37c1.88-2.54,3.92-5.4,4.31-8.6.28-2.33-.91-4.93-2.17-7.69-.12-.26-.23-.52-.35-.77C92.12,290.27,92.76,288,93.56,285.57Zm-3.72,18.05c.11-1.78.31-3.66.63-5.65a6.28,6.28,0,0,1,.45,2.54A8.89,8.89,0,0,1,89.84,303.62Zm0-19.67a5.38,5.38,0,0,1,1.76-2.45c-.36,1-.72,2-1.07,3.06-.29.89-.55,1.74-.8,2.59A6.36,6.36,0,0,1,89.82,284Zm-.14,45.39a65.58,65.58,0,0,1,.84,7.54c-1.88,2.54-3.92,5.4-4.31,8.6a8.84,8.84,0,0,0,.53,3.75l-6.65,20.19a7.07,7.07,0,0,0-2.57,2.46,9.78,9.78,0,0,0-.65,1.39l-.75-2.79ZM87,313.8c.16,1.42.37,2.8.59,4.15l-.2.16a4.88,4.88,0,0,1-.91-2A4.16,4.16,0,0,1,87,313.8ZM75.72,340.09c2.93-8.91,6.88-13.84,11.27-17.59.39.37.79.74,1.2,1.1L74.62,364.75A42.19,42.19,0,0,1,75.72,340.09Zm-1.44,36A58.82,58.82,0,0,1,75.44,382a51.78,51.78,0,0,1-4.64,4.62Zm-5.6,17a24.22,24.22,0,0,0,3.6.06l-8,24.2a44.87,44.87,0,0,1-5,4.25Zm-7.84.61a4.26,4.26,0,0,1,2.65-.87c-1.2,1-2.4,2.13-3.6,3.32A4.36,4.36,0,0,1,60.84,393.65Zm-4.7,12a9.57,9.57,0,0,1-1,3.52,5,5,0,0,1-1.94,1.6A53.33,53.33,0,0,1,56.14,405.68Zm-7.51,16.2c.79-2.39,1.61-4.56,2.44-6.55l.6-.26c2.59-1.15,5-2.22,6.21-4.26,1.57-2.71,1.68-6.26,1.74-9.72a51.25,51.25,0,0,1,4.55-4.63l-9.29,28.2a62.87,62.87,0,0,0-7.43,5.82c-.14-.32-.29-.64-.43-1s-.24-.51-.35-.77C47.19,426.59,47.83,424.32,48.63,421.88Zm-3.74-1.61a5.45,5.45,0,0,1,1.76-2.45c-.36,1-.72,2-1.07,3.06-.29.88-.54,1.73-.8,2.58A6.44,6.44,0,0,1,44.89,420.27Zm-.14,45.39a65.08,65.08,0,0,1,.84,7.54c-1.87,2.54-3.92,5.4-4.31,8.6a8.84,8.84,0,0,0,.53,3.75l0,.15c-.48-2.11-1-4.14-1.6-6.16ZM42,450.12c.19,1.62.43,3.18.7,4.71a5.25,5.25,0,0,1-1.21-2.43A4.14,4.14,0,0,1,42,450.12Zm-.39-5.79c0,.15,0,.3,0,.46l-.48.67C41.31,445.07,41.47,444.69,41.63,444.33Zm-3.12,9.29c.66,2.47,2.64,4.44,4.75,6.3l-4.58,13.89A41.58,41.58,0,0,1,38.51,453.62Zm-.18,31.5a56,56,0,0,1,1.32,7l-4.79,14.52A6.37,6.37,0,0,0,32.93,509a14,14,0,0,0-.94,6.36l-4.22,12.8c-.65.05-1.34.08-2,.11l-1.64.09ZM19.11,533.2l-.87,2.63A6.13,6.13,0,0,1,19.11,533.2ZM23,531.66c.92-.1,1.9-.15,2.87-.19l.82,0-1.91,5.81a94.75,94.75,0,0,0-8.9,17.37,2,2,0,0,0-.08-.22c-.06-.14-.11-.27-.16-.41Zm-9.73,32.13,2.4.53a2.24,2.24,0,0,1-1,.25,2.14,2.14,0,0,1-1.4-.52Zm0,6.85H376v4.09H13.27Zm283.3,50.21H92.69V609.23H296.57ZM343.62,606H299.78v-1.11H89.48V606H45.64V594.28h298Zm0-14.95h-298V585.6h298Zm42.06,0H346.83v-8.68H42.43v8.68H3.58V570.64h6.48v7.3H379.21v-7.3h6.47Z"/></g></g></svg>