<svg xmlns="http://www.w3.org/2000/svg" viewBox="0 0 389.27 625.26"><defs><style>.cls-1{fill:none;stroke:#ff2727;stroke-miterlimit:10;stroke-width:0.75px;}</style></defs><g id="레이어_2" data-name="레이어 2"><g id="레이어_1-2" data-name="레이어 1"><path class="cls-1" d="M388.89,568.26h-9.68v-3.49a5.49,5.49,0,0,0,.37-1l.1,0-.05-.15a5,5,0,0,0,.11-1,5,5,0,0,0-1.67-3.69l-1.1-3.35,10.64-21.77-16.13,5.12-1.61-4.9,7.45-15.23L366,522.33l-3.26-9.89,4.26-8.71-6.46,2-3.67-11.14.81-1.25-1.33-.33-3.72-11.29,5.89-3.27-8-3.24-3.32-10.05,10.41-5.77-12.39-5-.37-7.5,11.82-6.56-12.39-5-.47-9.52,13.71-10.33-16.31,2.63-5.06-7.38,6.53-13.36-12.88,4.09-3.94-5.75,6.53-13.35L321.1,386l-3.26-9.89,4.26-8.71-6.46,2.05L312,358.31l.81-1.25-1.33-.32-3.72-11.3,5.89-3.26-8-3.24-3.31-10.05,10.4-5.78-12.39-5-.37-7.51,11.82-6.55-12.39-5-.46-9.52,13.7-10.32-16.31,2.62-5.06-7.37,6.53-13.36-12.88,4.09-3.94-5.75,6.53-13.35-11.29,3.58-3.26-9.89,4.26-8.71-6.45,2L267.05,222l.81-1.25-1.33-.32-3.72-11.29,5.88-3.27-8-3.24-3.31-10.05,10.4-5.77-12.38-5-.37-7.5,11.82-6.56-12.39-5-.47-9.52,13.7-10.33-16.31,2.63-5-7.38,6.53-13.36L240,128.88,236,123.13l6.54-13.35-11.29,3.58L228,103.47l4.26-8.71-6.45,2-3.67-11.14.81-1.25-1.33-.32-3.73-11.33,5.88-3.27-8-3.24L212.4,56.19l10.4-5.78-12.39-5L210,37.89l11.72-6.52-9.38-4.07a23.74,23.74,0,0,0,.77-6c0-11.56-8.31-21-18.52-21s-18.51,9.4-18.51,21a23.31,23.31,0,0,0,.78,6l-9.39,4.09,11.72,6.51-.38,7.53-12.38,5,10.39,5.78-3.32,10.07-8,3.23,5.88,3.27L167.67,84.1l-1.33.33.81,1.25-3.68,11.16-6.46-2,4.26,8.72L158,113.4l-11.29-3.59,6.53,13.35-3.94,5.76-12.89-4.1L143,138.18l-5.05,7.37-16.31-2.63,13.7,10.33-.46,9.52-12.39,5,11.82,6.56-.37,7.51-12.39,5,10.4,5.77-3.31,10-8,3.23,5.88,3.27-3.71,11.27-1.33.32.81,1.25-3.68,11.17-6.46-2,4.26,8.72-3.26,9.88-11.29-3.59,6.53,13.36-3.94,5.75L91.5,261.15,98,274.5l-5,7.37-16.31-2.63,13.71,10.33-.47,9.53-12.39,5,11.82,6.55L89,318.16l-12.39,5L87,328.93,83.67,339l-8,3.23,5.89,3.27-3.72,11.27-1.33.32.81,1.25-3.68,11.17-6.45-2.05,4.26,8.71L68.16,386l-11.3-3.59,6.53,13.35-3.94,5.76-12.88-4.1,6.53,13.36-5.05,7.37-16.3-2.63,13.7,10.33L45,435.41l-12.39,5L44.41,447,44,454.48l-12.38,5,10.4,5.77L38.74,475.3l-8,3.23,5.88,3.26-3.71,11.28-1.33.32.81,1.25-3.68,11.17-6.46-2.05,4.26,8.71-3.26,9.89-11.29-3.59L19.39,534l-1.61,4.9L2,533.9,11.5,558l-1,3h-.45v1.12a5.24,5.24,0,0,0-.41,1.48l-.06.19h0c0,.14,0,.27,0,.41a4.89,4.89,0,0,0,.47,2.09v2H.38v26.85H42.43v14.95H89.48v14.83H299.79V610.06h47V595.11h42.06ZM13.27,571.47H376v4.09H13.27Zm17.47-61.65,3.28,1-1.91,5.8L30,512.24Zm10.59-32.1,1.6-.65-.22,4.44-2.23-1.23Zm8.22-56,6.52,1.05-1.89,5.72-5.44-4.1.08-1.6Zm26.12-48.17,2.47.78-2.37,3.46-.89-1.83ZM86.25,341.4l1.61-.65-.22,4.44L85.41,344Zm8.23-56,6.51,1.05-1.88,5.72L93.67,288l.08-1.6Zm26.12-48.17,2.47.78-2.37,3.46-.9-1.83Zm10.58-32.11,1.61-.65-.22,4.45-2.24-1.24Zm8.23-56,6.51,1.05L144,155.81l-5.44-4.1.07-1.6Zm26.11-48.18,2.48.79-2.38,3.45-.89-1.83Zm10.6-32.15,1.61-.65-.22,4.46-2.24-1.24ZM214,71.26l-2.23,1.24L211.54,68l1.6.64Zm10.54,32-.9,1.84-2.37-3.45,2.48-.79Zm26.06,46.86.08,1.6-5.44,4.1-1.89-5.72,6.52-1Zm8.34,57.52-2.23,1.24-.22-4.45,1.6.64Zm10.52,31.94-.9,1.84-2.36-3.45,2.47-.79Zm26.07,46.86.08,1.59-5.45,4.1-1.88-5.72,6.51-1Zm8.33,57.52-2.23,1.23-.22-4.45,1.61.65Zm10.53,31.94-.9,1.84-2.37-3.45,2.48-.79Zm26.06,46.86.08,1.6-5.44,4.1-1.89-5.72,6.52-1Zm8.34,57.52-2.23,1.24-.22-4.45,1.6.65Zm10.53,32-2.16,4.42-1.91-5.78,3.28-1ZM26.17,544.94l2.54.81L27,542.33l2.53-7.68,2.63-6.07,6.8,2.16-4.1-8.39,4.27-9.86L50,515.93,42.6,504.54,45,499.1l.12-.27.27-5.5,13-3.17-11.91-6.6,3-9.1,9.2-3.71L51.85,467l4.65-14.1,3-1.22-2.23-1.24L71.1,408.62l2.53.81L72,406l4.59-13.94,7.37,2.35-4.86-9.95,3-9,12.9,4.09-8-12.39L90,362.67l.27-5.66,13-3.17-11.9-6.6,3-9.1,9.21-3.71-6.75-3.74,4.65-14.09,3-1.23-2.22-1.23L116,272.31l2.54.8-1.68-3.42,4.6-13.93,7.37,2.34-4.87-10,3-9,12.91,4.09-8-12.39,3.11-4.55.28-5.66,13-3.17-11.91-6.6,3-9.1,9.2-3.71-6.74-3.74,4.64-14.09,3-1.23-2.23-1.23L161,136l2.54.81-1.68-3.42,4.59-13.94,7.37,2.34-4.86-9.94,3-9,12.9,4.09-8-12.39,2.85-4.17.26-.37.28-5.67,13-3.17-11.89-6.62,3-9.12,9.2-3.7L186.65,58l4.66-14.12,3-1.22-.72-.4c.34,0,.67.06,1,.06s.65,0,1-.06l-.68.37,3,1.23L202.61,58l-6.74,3.75,9.19,3.7,3,9.13-11.88,6.62,12.94,3.18.29,5.67,3.11,4.54-8,12.39,12.91-4.1,2.94,8.94-4.87,9.95,7.38-2.34,4.59,13.92-1.68,3.43,2.55-.8,13.78,41.83L239.87,179l3,1.23,4.65,14.1-6.74,3.74,9.19,3.71,3,9.11-11.9,6.6,12.95,3.17.28,5.67,3.11,4.54-8,12.39,12.9-4.1,2.95,8.94-4.87,9.95,7.38-2.34,4.59,13.92-1.68,3.43,2.54-.81L287,314.1l-2.22,1.23,3,1.22,4.65,14.1-6.74,3.74,9.19,3.71,3,9.11L286,353.82,299,357l.28,5.67,3.11,4.54-8,12.39,12.91-4.1,2.95,8.93-4.87,10,7.38-2.34L317.3,406l-1.68,3.43,2.54-.81L332,450.42l-2.22,1.24,3,1.22L337.4,467l-6.73,3.74,9.19,3.71,3,9.11-11.9,6.6,13,3.18.26,5.21v.3l2.52,5.62-7.44,11.46,11-3.49,4.27,9.54-4.28,8.75,7.17-2.28.85,1.9,4,12-1.68,3.43,2.54-.81L368.38,561H20.89Zm19.5-58.12,3.9,2.17-4.06,1Zm-5,14L42,497.07l-.05,1Zm1.72,9.3-2-.63.63-1.45Zm8.74-39.87-.45.18.12-.36Zm26.58-81.21-.18-.05.06-.19ZM90.59,350.5l3.91,2.17-4.06,1Zm-4.22,11.78.51-1.53,0,.86Zm-1.46,7.8,2.44,3.76-4.12-1.3ZM96.08,334l-.44.18.12-.36Zm26.59-81.2-.19-.06.06-.19Zm12.85-38.58,3.91,2.16-4.07,1ZM131.29,226l.51-1.54,0,.86Zm-1.45,7.8,2.44,3.75-4.12-1.3ZM141,197.65l-.44.18.11-.35Zm26.58-81.21-.18-.06.06-.19Zm12.87-38.6L184.37,80l-4.07,1Zm-4.24,11.8.51-1.54,0,.86Zm-1.45,7.8,2.43,3.76-4.11-1.31ZM186,61.28l-.45.18.12-.36Zm.95-19.09-2.36,1,.63-1.92Zm7.72-8.41,1.72,5.2a14.06,14.06,0,0,1-1.72.11,13.77,13.77,0,0,1-1.71-.11Zm9.45,7.42.63,1.91-2.35-1Zm-4.62-3-2.22-6.74,2.4-3.71,2.9,8.79A14.1,14.1,0,0,1,199.46,38.17ZM192,31.43l-2.23,6.74a14.26,14.26,0,0,1-3.07-1.66l2.9-8.78Zm11.6,29.64.12.36-.44-.18Zm12.54,38.8-4.11,1.3,2.43-3.74ZM212.58,89l0-.86.5,1.54ZM209,81l-4.08-1,3.92-2.18Zm12.81,35.15.07.2-.19.06Zm26.79,81.29.12.35-.44-.17Zm12.52,38.75-4.1,1.3,2.43-3.74Zm-3.59-10.92,0-.86L258,226Zm-3.6-7.94-4.07-1,3.91-2.17Zm12.81,35.14.06.2-.19.06Zm26.79,81.29.12.35-.44-.17ZM306,372.51l-4.11,1.3,2.44-3.75Zm-3.59-10.92,0-.86.51,1.54Zm-3.6-7.95-4.07-1,3.91-2.18Zm12.81,35.15.06.2-.19.06Zm26.79,81.29.11.36-.43-.18Zm9.84,37.86.68,1.53-2.11.67Zm-.9-9.87-.05-1,1.13,3.43Zm-3.62-8.1-4.06-1,3.91-2.17Zm29.48,65.91-5.56-12.42,1.76-.56,4.08,12.4Zm-12-26.71-.59-1.78,3.28-1,2.44,7.39L364.8,537ZM350,494.79l2.61.64L351,497.88ZM342.44,472l-1.16-3.51,1.38-.76.22,4.45Zm0-7.85-2.22,1.23-3.6-10.94,4.17,1.69,1.48,4.48Zm-5.31-13,1.72-1,.63,1.9Zm3.55-5.65-3.09-9.38,3.55,1.43.37,7.5Zm-2.85,1.59-3.06,1.7-5.25-15.93,4.17,1.69Zm-5.5-16.67-2.9,2.18-2.92-8.88,3.43-.55ZM328.58,419l-2.16,4.42-5.2-15.78,3.28-1Zm-1-13.37.94-.3,3.95,5.76-1.85,3.78Zm-5.76-1.54,1.12-2.28.57,1.74Zm-.32-6.65-2.17,4.42-3.55-10.77,2.45-.77,1.78,2.59Zm-6.72-9.4-1.11-3.35.29-.59,2.37,3.45ZM305,358.46l2.61.64L306,361.55Zm-7.51-22.78-1.15-3.51,1.37-.76.22,4.45Zm.05-7.84-2.23,1.23-3.6-10.94,4.17,1.68,1.48,4.48Zm-5.32-13,1.72-.95.63,1.9Zm3.56-5.64-3.1-9.39,3.55,1.43.37,7.51Zm-2.86,1.59-3.06,1.69-5.25-15.92,4.18,1.68Zm-5.5-16.68-2.9,2.19-2.92-8.88,3.44-.55Zm-3.78-11.49-2.17,4.42-5.2-15.78,3.28-1Zm-1-13.37.94-.3,3.95,5.76-1.85,3.77Zm-5.76-1.54,1.12-2.28.58,1.74Zm-.32-6.65-2.16,4.42-3.55-10.77,2.44-.77,1.78,2.59Zm-6.72-9.39-1.1-3.36.29-.59,2.37,3.45Zm-9.73-29.55,2.6.64-1.59,2.45Zm-7.51-22.78-1.16-3.51,1.38-.77.21,4.45Zm0-7.85-2.22,1.23-3.61-10.94,4.18,1.68,1.48,4.49Zm-5.31-13,1.72-1,.62,1.9Zm3.55-5.65-3.09-9.38,3.54,1.43.37,7.5ZM248,174.5,245,176.2l-5.25-15.93,4.18,1.69Zm-5.49-16.67-2.9,2.18-2.93-8.87,3.44-.56Zm-3.79-11.5-2.16,4.42L231.37,135l3.27-1Zm-1-13.37,1-.3,3.94,5.76-1.84,3.78ZM232,131.42l1.11-2.28.58,1.75Zm-.32-6.65-2.17,4.43-3.55-10.77,2.45-.78,1.77,2.6Zm-6.72-9.39L223.8,112l.29-.59,2.37,3.45Zm-9.74-29.55,2.61.64-1.59,2.45ZM207.65,63l-1.16-3.52,1.37-.77.22,4.46Zm0-7.86-2.22,1.23-3.61-11L206,47.1l1.48,4.49ZM205.15,34.2l-2.51-7.63,3.7,1.61.22,4.26A17.52,17.52,0,0,1,205.15,34.2Zm-2.49-11.12,3.19-4.92.32,6.44Zm-19.74,5.11,3.71-1.61-2.52,7.62a17.44,17.44,0,0,1-1.4-1.76Zm.18-3.58.32-6.45,3.19,4.92Zm.13,22.52,4.18-1.68-3.61,11-2.22-1.24.18-3.57Zm-.46,12.38L181.61,63l-.43.18.22-4.46Zm-9.69,29.42-1.59-2.46,2.61-.64Zm-7.63,23.13-1.1,3.35-1.56-.49,2.37-3.46Zm-4.55,5.62,2.45.78-3.56,10.78-2.16-4.42,1.5-4.57Zm-3.6,13.78-1.68-.54.57-1.74Zm.59,3.55-5.2,15.77-2.16-4.42L154.61,134Zm-9.38,7.22-1.85-3.78,4-5.75.94.3Zm4.06,8.93L149.64,160l-2.9-2.18,2.39-7.25Zm-3,9.13-5.25,15.94-3.06-1.7L145.38,162ZM142,178.59l-2.36.95.63-1.9ZM138.39,173l-.82-.46.37-7.51,3.54-1.43Zm-.11,10.58,4.17-1.68-3.6,10.94-2.22-1.23.18-3.57Zm-.45,12.36-1.16,3.51-.43.18.22-4.45Zm-9.68,29.36-1.59-2.45,2.61-.64Zm-7.63,23.14-1.1,3.35-1.56-.5,2.37-3.45ZM116,254l2.45.78-3.56,10.77-2.16-4.42,1.51-4.56Zm-3.59,13.77-1.69-.53.57-1.74Zm.58,3.56-5.19,15.76-2.17-4.42,4.08-12.39Zm-9.38,7.21-1.85-3.78,4-5.75.95.3Zm4.06,8.93-2.92,8.88-2.9-2.19,2.38-7.24Zm-3,9.14-5.25,15.93-3.06-1.7,4.13-12.55ZM97,314.91l-2.35.95.63-1.9Zm-3.56-5.64-.82-.46L93,301.3l3.55-1.43Zm-.11,10.58,4.18-1.68-3.61,10.94-2.21-1.23.17-3.57Zm-.45,12.36-1.16,3.51-.43.18.22-4.45Zm-9.68,29.36-1.59-2.45,2.61-.64ZM75.6,384.71l-1.1,3.34-1.56-.49,2.36-3.46ZM71,390.32l2.45.78-3.55,10.78-2.16-4.42,1.5-4.56ZM67.45,404.1l-1.69-.54.58-1.74Zm.59,3.55-5.2,15.77L60.68,419l4.08-12.39Zm-9.38,7.22-1.85-3.78,3.94-5.75,1,.3Zm4.06,8.93-2.93,8.87-2.9-2.18,2.39-7.24Zm-3,9.13-5.26,15.94-3.06-1.7,4.14-12.55Zm-7.62,18.3-2.35.95.63-1.91Zm-3.55-5.65-.82-.45.37-7.51,3.54-1.43Zm-.11,10.59,4.17-1.68L49,465.42l-2.22-1.23.18-3.56ZM48,468.53,46.82,472l-.43.17.21-4.44ZM38.3,497.89l-1.59-2.45,2.61-.64ZM26.56,533.5l-1.8,4.17-1.91-3.89,2.44-7.4,3.28,1Zm-11.1,25.62h-.05l-.5-1.27,4.92-14.92,2.33.74Zm-2.19,5.45,3.32.72a2.21,2.21,0,0,1-3.32.08Zm4.78,3.69a5,5,0,0,0,2.15-4.08H369.44l.1.32.46,1.37.41-.09a5.31,5.31,0,0,0,4.06,1.88,5.21,5.21,0,0,0,1.53-.25v.85Zm363.38-29.17-5.9,12.08-3-9.24Zm-13,.76-1.69.54,1.12-2.28Zm2.72-15.77-2.71,5.53-1.4-4.23ZM363,523.3l-3.28,1L358.58,521l2.17-4.42Zm-5.46-16.55-3.27,1-2-6,2.4-3.7Zm-4.8-14.59-3.94-1-2-6.14,3.06-1.7Zm-6.55-18.65-.07-1.43.53,1.61Zm4-13.61-4,2.21-.69-2.08-.1-2.06Zm-.94-19.06-4.55,2.52-.21-4.44ZM341,434.06l-4.68-1.88-.18-.53,4.57-3.45Zm4.25-13.29L343.62,422v-.32l-.4-.58Zm-7.55-2-5.52.89-.14-.42,2.49-5.09Zm-1.2-16-2.43,5-2.38-3.46Zm-9.95-.21-.05-.17.1.16Zm-.34-14.8-2.44,5-.88-1.29-.79-2.39Zm-9.83-5.8-.81-1.2.25-.51Zm-3.8-11.53-3.27,1-2-6,2.4-3.71Zm-4.8-14.59-3.94-1-2-6.14,3.06-1.7Zm-6.55-18.65-.07-1.42.53,1.61Zm4-13.61-4,2.21-.68-2.08-.1-2.05Zm-.94-19.05L299.75,307l-.22-4.45Zm-8.22-6.78-4.69-1.89-.18-.53,4.58-3.44Zm4.24-13.29-1.62,1.22,0-.33-.39-.57Zm-7.55-2-5.52.89-.14-.42,2.49-5.1Zm-1.2-16-2.43,5L286.77,268Zm-9.94-.21-.06-.17.11.16Zm-.35-14.8-2.44,5-.88-1.29-.78-2.39Zm-9.83-5.8-.81-1.19.25-.52Zm-3.79-11.53-3.28,1.05-2-6,2.4-3.7Zm-4.81-14.58-3.94-1-2-6.14,3.06-1.7Zm-6.55-18.66-.07-1.42.53,1.61Zm4-13.6-4,2.21-.69-2.08-.1-2.06Zm-.94-19.06-4.55,2.52-.22-4.44Zm-8.22-6.78-4.69-1.89-.17-.52,4.57-3.45Zm4.24-13.29-1.62,1.22,0-.32-.39-.58Zm-7.54-2-5.53.89-.13-.42,2.49-5.09Zm-1.2-16-2.44,5-2.37-3.46Zm-10-.21-.06-.17.11.16Zm-.35-14.8-2.43,5L233,118.8l-.79-2.39Zm-9.82-5.8-.82-1.19.26-.52Zm-3.8-11.52-3.28,1-2-6,2.4-3.7ZM217.92,83.2l-3.94-1-2-6.16L215,74.36Zm-6.56-18.7-.07-1.42.53,1.61Zm4-13.63-4,2.22L210.69,51l-.1-2.06Zm-.85-19.14-4.66,2.58-.05-1a21.83,21.83,0,0,0,1.52-3Zm-5.08-6L208.9,15a20.11,20.11,0,0,1,1,6.37A20.64,20.64,0,0,1,209.44,25.76ZM194.63,3.59a14.71,14.71,0,0,1,12.23,7.11l-6.27,9.66L199.83,18l.16-.51-.36-.08-.21-.66L199,15.41l-.75.16-.35-9.79H191.4l-.35,9.79-.74-.16-.67,2-.36.08.16.51-.76,2.33-6.27-9.66A14.71,14.71,0,0,1,194.63,3.59ZM180.37,15l-.54,10.77a20.55,20.55,0,0,1-.5-4.41A20.09,20.09,0,0,1,180.37,15Zm-5.62,16.77,3.2-1.39a21.49,21.49,0,0,0,1.5,3l0,1ZM173.9,50.9,178.68,49l-.11,2-.69,2.1ZM178,63.08l-.07,1.45-.46.19Zm-3.72,11.3,3.06,1.71-2,6.15-3.94,1Zm-4.86,14.76,2.4,3.7-2,6-3.28-1Zm-5.85,19-.8,1.17.55-1.68Zm-10.64,7,4.11,1.31-.78,2.36-.9,1.31Zm-.28,14.61-.06.2-.06,0Zm-10,.41,4.8,1.52L145,135.14Zm2,11.33,2.49,5.1-.13.41-5.53-.89Zm-10.71,6.66,2,.32-.39.57v.33Zm4.53,7.43L143,159l-.18.53-4.68,1.89Zm-8.51,12.65,4.77-1.92-.22,4.45ZM129,187.29l4.77-1.92-.1,2-.69,2.1ZM133,199.46,133,200.9l-.47.19Zm-3.72,11.28,3.06,1.7-2,6.13-3.94,1Zm-4.85,14.72,2.4,3.71-2,6-3.28-1Zm-5.85,19-.8,1.17.55-1.67Zm-10.64,7,4.11,1.31-.78,2.37-.9,1.3Zm-.27,14.62-.07.19-.06,0Zm-10,.4,4.8,1.53-2.37,3.45Zm2,11.33,2.5,5.11-.14.4-5.53-.89ZM89,284.47l2,.33-.39.56v.33Zm4.53,7.43,4.57,3.45-.18.53-4.68,1.89ZM85,304.55l4.77-1.92-.21,4.45ZM84,323.62l4.77-1.93-.1,2-.69,2.1Zm4.07,12.16L88,337.22l-.46.19Zm-3.71,11.28,3.06,1.7-2,6.13-3.94,1Zm-4.86,14.72,2.4,3.7-2,6-3.28-1Zm-5.85,19-.8,1.17.56-1.68Zm-10.64,7,4.11,1.31-.78,2.37-.89,1.3Zm-.27,14.61-.07.2-.05,0Zm-10,.41,4.81,1.52-2.37,3.46Zm2,11.33,2.5,5.1-.13.41-5.53-.89ZM44,420.79l2,.32-.39.57,0,.33Zm4.53,7.43,4.57,3.45-.17.53-4.69,1.89ZM40,440.87,44.81,439l-.22,4.45Zm-.94,19.06L43.87,458l-.1,2-.69,2.1Zm4.08,12.17-.07,1.44-.47.18Zm-3.72,11.28,3.06,1.7-2,6.13-3.94,1ZM34.61,498.1l2.4,3.7-2,6-3.28-1Zm-6.1,18.5L30.67,521l-1.1,3.34-3.28-1Zm-10.39,7.5,4.11,1.31-1.4,4.24Zm3.29,14,1.11,2.28-1.68-.54ZM7.47,539l9.3,3-3.7,11.23Zm289.1,82.68H92.69V610.06H296.57Zm47.05-14.83H299.79v-1.11H89.48v1.11H45.65V595.11h298Zm0-15h-298v-5.47h298Zm42.06,0H346.83v-8.68H42.43v8.68H3.59V571.47h6.47v7.3H379.21v-7.3h6.47Z"/></g></g></svg>