<svg xmlns="http://www.w3.org/2000/svg" viewBox="0 0 51.79 70.2"><defs><style>.cls-1{fill:none;stroke:#ff2727;stroke-miterlimit:10;stroke-width:0.5px;}.cls-2{font-size:14px;fill:#ff2727;font-family:NotoSansKR-Regular-KSCpc-EUC-H, Noto Sans KR;}</style></defs><g id="레이어_2" data-name="레이어 2"><g id="레이어_1-2" data-name="레이어 1"><path class="cls-1" d="M24.42,69.85,8.74,54.17a1.5,1.5,0,0,1,0-2.13h0a1.51,1.51,0,0,1,2.12,0L23.34,64.53a1.54,1.54,0,0,0,2.16,0L38,52a1.51,1.51,0,0,1,2.12,0h0a1.5,1.5,0,0,1,0,2.13Z"/><path class="cls-1" d="M22.28,59.87,8.74,46.32a1.49,1.49,0,0,1,0-2.12h0a1.51,1.51,0,0,1,2.12,0L22.28,55.63a3,3,0,0,0,4.28,0L38,44.2a1.51,1.51,0,0,1,2.12,0h0a1.49,1.49,0,0,1,0,2.12L26.56,59.87A3,3,0,0,1,22.28,59.87Z"/><path class="cls-1" d="M22.28,52,8.74,38.48a1.49,1.49,0,0,1,0-2.12h0a1.49,1.49,0,0,1,2.12,0L22.28,47.78a3,3,0,0,0,4.28,0L38,36.36a1.49,1.49,0,0,1,2.12,0h0a1.49,1.49,0,0,1,0,2.12L26.56,52A3,3,0,0,1,22.28,52Z"/><text class="cls-2" transform="translate(0 12.32)">SCROLL</text></g></g></svg>