<svg xmlns="http://www.w3.org/2000/svg" viewBox="0 0 234.82 31.26"><defs><style>.cls-1{fill:none;stroke:#fff;stroke-miterlimit:10;stroke-width:0.75px;}</style></defs><g id="레이어_2" data-name="레이어 2"><g id="레이어_1-2" data-name="레이어 1"><path class="cls-1" d="M4.37,19.22,1.72,16.4c-.22-.22-.2-.41.07-.57A8.3,8.3,0,0,0,3.8,14a12.08,12.08,0,0,0,1.48-2.37A12.77,12.77,0,0,0,6.19,9a11.67,11.67,0,0,0,.3-2.57L6.32,5a.39.39,0,0,1,.44-.47l7.83.3c.33,0,.41.14.23.41l-.6,1.11a9.5,9.5,0,0,1-.76,3.49,19,19,0,0,1-2,3.71,21,21,0,0,1-2.89,3.36,15.25,15.25,0,0,1-3.41,2.44A.64.64,0,0,1,4.37,19.22Zm.37,4.3-.6-2.78a.64.64,0,0,1,0-.37c0-.07.16-.1.34-.1H11.6v3l-3.23.26c-1,.09-2.07.23-3.06.41C5,24,4.79,23.82,4.74,23.52ZM4.84,33V26.55l-.13-1.18c0-.31.12-.46.44-.43l3.19.2a.62.62,0,0,1,.6.47l.14.4.67.54v5.37a1.1,1.1,0,0,1-.66,1,4.59,4.59,0,0,1-1.83.41l-1.95.1A.39.39,0,0,1,4.84,33Zm2-5.1V25.24H11.4v2.69Zm0,1.88q1.41,0,2.73-.09A21.42,21.42,0,0,0,12,29.44a8.09,8.09,0,0,0,1.9-.57l-3.47,1.58,3.36-1.92a.47.47,0,0,1,.71.14,5.7,5.7,0,0,1,.74,1.2,14.36,14.36,0,0,1,.64,1.62,2,2,0,0,1,.15.85c0,.19-.2.32-.51.39A11.64,11.64,0,0,1,14,32.9c-.72,0-1.47,0-2.27,0l-2.42-.06c-.81,0-1.61,0-2.4-.1Zm2.85-2.15V20.33l-.2,0,1.21-.78a.88.88,0,0,1,.84-.1,9.53,9.53,0,0,1,2,1.06,8.07,8.07,0,0,1,1.56,1.36.53.53,0,0,1,0,.74l-.24.27v4.2a.53.53,0,0,1-.47.57c-.36.07-.8.14-1.33.2S12,28,11.46,28l-1.31.09A.42.42,0,0,1,9.68,27.66Zm5.51-9.38a.55.55,0,0,1-.57-.5,15.9,15.9,0,0,0-.6-1.71,18.22,18.22,0,0,0-.84-1.72,14.44,14.44,0,0,0-1-1.58A9.08,9.08,0,0,0,11,11.5l1.68-2.12a22.61,22.61,0,0,1,2.45,1A13.67,13.67,0,0,1,17,11.56a9.2,9.2,0,0,1,1.4,1.26,5.29,5.29,0,0,1,.85,1.31,3.32,3.32,0,0,1,.29,1.33,2.43,2.43,0,0,1-1.18,2.22A5.27,5.27,0,0,1,15.19,18.28ZM16.57,32.7V23.36l-.3-2.93c-.07-.31.06-.46.4-.43l4,.33a.45.45,0,0,1,.47.51l0,1.14v9.71a1.06,1.06,0,0,1-.65,1,4.91,4.91,0,0,1-1.84.39l-1.54,0A.38.38,0,0,1,16.57,32.7Zm2.25-8.34V20.6H24.9v3.76Zm0,7.77v-3.8H24.2v3.8ZM20.7,18.45V6.52l-.27-3a.55.55,0,0,1,.05-.37.51.51,0,0,1,.36-.1H28c.33,0,.42.14.27.41l-.47.79c-.16.25-.3.48-.44.68V17.48a1.06,1.06,0,0,1-.65,1,4.62,4.62,0,0,1-1.84.35l-3.66.07A.42.42,0,0,1,20.7,18.45ZM23.86,20a.62.62,0,0,1,.77-.06,6.63,6.63,0,0,1,1.4.92,14.52,14.52,0,0,1,1.26,1.23.7.7,0,0,1,.13.77,1.86,1.86,0,0,1-.18.28,1.28,1.28,0,0,1-.26.26v8a1.07,1.07,0,0,1-.65,1,4.92,4.92,0,0,1-1.83.38l-1.58,0a.39.39,0,0,1-.47-.44V20.8h.37Zm1.48-4.5V12.17h1.17l3.36-1.51a.39.39,0,0,1,.61.23,11.44,11.44,0,0,1,.69,2.25,19.45,19.45,0,0,1,.32,2.32.39.39,0,0,1-.47.44Z" transform="translate(-1.19 -2.69)"/><path class="cls-1" d="M34,27.59l-1.18-4.7a.6.6,0,0,1,0-.36.5.5,0,0,1,.34-.08c1.59.07,3.33.09,5.22.07s3.83-.08,5.82-.17,3.92-.2,5.81-.34,3.62-.3,5.19-.5a.49.49,0,0,1,.37,0,.52.52,0,0,1,.13.35l.17,2.86a.49.49,0,0,1-.43.57q-2.52.43-5.36.86c-1.9.28-3.79.53-5.68.77s-3.69.43-5.38.6-3.17.31-4.45.42A.52.52,0,0,1,34,27.59Zm1.47-17.07-1-4.16a.55.55,0,0,1,0-.37c0-.07.15-.1.33-.1h12.1l-.14,4.36c-1.77.05-3.53.13-5.29.24s-3.56.27-5.42.47A.5.5,0,0,1,35.48,10.52ZM36.9,24.36V17.71l-.24-2.85a.54.54,0,0,1,.05-.37.44.44,0,0,1,.35-.1h5.88c.32,0,.42.14.31.43s-.18.51-.26.77-.14.5-.18.68v7.19a1,1,0,0,1-.66,1,4.55,4.55,0,0,1-1.83.34l-3,0A.41.41,0,0,1,36.9,24.36Zm6.78-4.53c-.18,0-.29,0-.33-.1a.45.45,0,0,1,0-.37,43.82,43.82,0,0,0,1.19-6.64q.32-3.24.32-6.63h.87l1.11-.91a.77.77,0,0,1,.81-.13,16.81,16.81,0,0,1,2.08,1,13.39,13.39,0,0,1,2,1.44c.15.11.23.22.23.3a.73.73,0,0,1-.17.37l-.6.74a43.17,43.17,0,0,1-.57,5,32.71,32.71,0,0,1-1.21,4.8,1,1,0,0,1-.61.6,10.07,10.07,0,0,1-2.43.41C45.39,19.79,44.49,19.83,43.68,19.83Zm9.11,13.1V6.73l-.3-3.2a.38.38,0,0,1,.43-.47h7.23c.33,0,.42.15.26.44a4.32,4.32,0,0,1-.4.77,5.08,5.08,0,0,1-.5.67v27a1.07,1.07,0,0,1-.66,1A4.56,4.56,0,0,1,57,33.3l-3.76.1A.41.41,0,0,1,52.79,32.93Zm4-14.48V14.92h1.31L61.15,13a.35.35,0,0,1,.57.21,12.64,12.64,0,0,1,.68,2.62,23.8,23.8,0,0,1,.27,2.62c0,.31-.13.46-.44.43Z" transform="translate(-1.19 -2.69)"/><path class="cls-1" d="M72.84,20.33l-.67-3.86a.56.56,0,0,1,0-.37q.06-.11.33,0c1.44.18,2.94.32,4.5.43s3.16.2,4.78.25,3.21.09,4.8.11,3.15,0,4.67,0,3-.08,4.35-.15,2.64-.16,3.78-.27l-1.88.81,2.28-1.78a.76.76,0,0,1,.37-.17.59.59,0,0,1,.34.2,8.54,8.54,0,0,1,1.28,1.73,10.19,10.19,0,0,1,.94,2.3,2.51,2.51,0,0,1,0,.89c0,.19-.22.3-.54.32a15.4,15.4,0,0,1-1.58,0q-2.52-.17-5.37-.27c-1.91-.07-3.85-.12-5.85-.15s-4,0-5.88,0-3.76.07-5.49.15-3.29.2-4.65.36A.45.45,0,0,1,72.84,20.33Zm3.6-4.63L74,13c-.11-.13-.16-.22-.14-.26s.13-.08.31-.11a17.77,17.77,0,0,0,3.47-.78,13.79,13.79,0,0,0,2.86-1.33A7.27,7.27,0,0,0,82.4,8.81,2.84,2.84,0,0,0,83.06,7l7.69-.1a5.19,5.19,0,0,1-.6,2.39,8.37,8.37,0,0,1-1.77,2.25,13.59,13.59,0,0,1-2.8,2A20,20,0,0,1,81.82,15a27,27,0,0,1-4.61.94A.73.73,0,0,1,76.44,15.7Zm.23-7.63-.77-3.6a.56.56,0,0,1,0-.37Q76,4,76.27,4c1.17.09,2.46.15,3.88.2s2.89.08,4.39.1,3,0,4.42,0,2.78-.07,4-.13,2.28-.13,3.16-.22l-2.49.54,2.79-1.35a.44.44,0,0,1,.64.24l1.64,3.8q.38.84.12,1a4.49,4.49,0,0,1-1.9,0c-1.61-.11-3.3-.19-5.07-.23S88.33,8,86.59,8s-3.43.06-5,.15-3,.2-4.31.33C76.93,8.54,76.74,8.41,76.67,8.07Zm1,19.42-1-3.76a.55.55,0,0,1,0-.37c0-.07.16-.1.34-.1q4.27.14,8.35.13t8.35-.13l-.4,3.93q-3.77,0-7.56.15c-2.54.12-5,.31-7.46.55A.47.47,0,0,1,77.68,27.49Zm6.59-3.7V17.54h6.31v5.38a1,1,0,0,1-.65,1,4.52,4.52,0,0,1-1.83.3l-3.36,0A.41.41,0,0,1,84.27,23.79Zm9.67-8.2a1.35,1.35,0,0,1-.8-.43,7,7,0,0,0-1.4-.94c-.55-.29-1.14-.57-1.79-.84s-1.33-.52-2-.74-1.4-.42-2.1-.57l1.45-1.92c1.45,0,2.83.14,4.11.27s2.46.3,3.51.5a20.16,20.16,0,0,1,2.73.71,7.19,7.19,0,0,1,1.78.87,1.31,1.31,0,0,1,.64,1q0,.7-.93,1.26a7.06,7.06,0,0,1-2.35.8A8.55,8.55,0,0,1,93.94,15.59ZM91.42,33V26.55l1.65-3.09,1.45-.74a.79.79,0,0,1,.84,0,15,15,0,0,1,1.84,1.22,9.18,9.18,0,0,1,1.51,1.47.5.5,0,0,1,0,.73l-.57.68v4.94a1.16,1.16,0,0,1-.65,1.07,4.72,4.72,0,0,1-1.83.5c-.65.05-1.32.09-2,.12s-1.27,0-1.77,0A.42.42,0,0,1,91.42,33Z" transform="translate(-1.19 -2.69)"/><path class="cls-1" d="M104.12,20.6l-.74-4.16a.55.55,0,0,1,0-.37c0-.07.16-.08.33,0,1.5.16,3.06.29,4.67.41s3.24.19,4.88.25,3.24.09,4.82.1,3.1,0,4.57,0,2.83-.08,4.1-.15,2.39-.15,3.37-.27l-1.61.78,2.28-1.85a.76.76,0,0,1,.37-.17.56.56,0,0,1,.34.2,11.49,11.49,0,0,1,1.36,1.95,10.53,10.53,0,0,1,1,2.52,2.77,2.77,0,0,1,0,.89c-.05.19-.22.3-.54.32a15.4,15.4,0,0,1-1.58,0c-1.57-.11-3.28-.2-5.15-.27s-3.81-.11-5.8-.14-4,0-5.91,0-3.81.08-5.56.16-3.34.18-4.72.31C104.38,21.07,104.19,20.94,104.12,20.6Zm14.55-5.68a25.55,25.55,0,0,1-4.57-.37,12.46,12.46,0,0,1-3.49-1.1,6.35,6.35,0,0,1-2.24-1.82,4.2,4.2,0,0,1-.79-2.52,4.28,4.28,0,0,1,.79-2.54,6.37,6.37,0,0,1,2.24-1.83,13.14,13.14,0,0,1,3.49-1.12,27,27,0,0,1,9.14,0,13.21,13.21,0,0,1,3.5,1.12A6.08,6.08,0,0,1,129,6.57a4.27,4.27,0,0,1,.78,2.54,4.19,4.19,0,0,1-.78,2.52,6.06,6.06,0,0,1-2.21,1.82,12.54,12.54,0,0,1-3.5,1.1A25.47,25.47,0,0,1,118.67,14.92ZM108.83,33l-.3-6.42L108,23.05c-.07-.31.07-.46.4-.43l6.18.2a.54.54,0,0,1,.57.5l.17,1V32a1.09,1.09,0,0,1-.65,1,4.6,4.6,0,0,1-1.83.35l-3.5.1A.45.45,0,0,1,108.83,33Zm2.82-6.82V23.12l13.54-.33v3.39Zm0,6.62V29H125V32.8Zm7-21.67a8.44,8.44,0,0,0,2.15-.24,3.11,3.11,0,0,0,1.41-.7A1.52,1.52,0,0,0,122.74,9a1.42,1.42,0,0,0-.51-1.11,3.43,3.43,0,0,0-1.41-.67,10.07,10.07,0,0,0-4.28,0,3.53,3.53,0,0,0-1.43.67,1.41,1.41,0,0,0-.5,1.11,1.51,1.51,0,0,0,.5,1.15,3.19,3.19,0,0,0,1.43.7A8.5,8.5,0,0,0,118.67,11.13Zm4,11.22a.86.86,0,0,1,.81-.2c.65.13,1.35.31,2.11.53s1.51.47,2.24.73a11,11,0,0,1,1.86.82.41.41,0,0,1,.17.64,3.73,3.73,0,0,1-.34.43,3.58,3.58,0,0,1-.43.44L128.62,32a1.16,1.16,0,0,1-.73,1,4.8,4.8,0,0,1-1.86.35l-3.26.1a.42.42,0,0,1-.47-.47V24.2l-.91-.68Z" transform="translate(-1.19 -2.69)"/><path class="cls-1" d="M136.54,26.85l-1.2-4.64a.46.46,0,0,1,0-.35c0-.05.16-.08.34-.08,1.47,0,3.09.06,4.83,0s3.54-.06,5.36-.15,3.61-.21,5.34-.34,3.31-.3,4.72-.5a.44.44,0,0,1,.37.05.5.5,0,0,1,.14.35l.17,2.82a.48.48,0,0,1-.44.54c-1.52.29-3.15.58-4.89.86s-3.47.53-5.21.77-3.38.44-4.93.62-2.91.31-4,.4C136.78,27.28,136.59,27.14,136.54,26.85Zm8.34-7a10.33,10.33,0,0,1-4.59-1,7.61,7.61,0,0,1-3.12-2.69A6.93,6.93,0,0,1,136,12.34a7,7,0,0,1,1.13-3.93,7.61,7.61,0,0,1,3.12-2.69,11.19,11.19,0,0,1,9.16,0,7.61,7.61,0,0,1,3.1,2.69,7,7,0,0,1,1.13,3.93,6.93,6.93,0,0,1-1.13,3.89,7.61,7.61,0,0,1-3.1,2.69A10.24,10.24,0,0,1,144.88,19.9Zm0-4.14a2,2,0,0,0,1.24-.42,2.67,2.67,0,0,0,.84-1.19,5,5,0,0,0,.3-1.81,5,5,0,0,0-.3-1.82,2.73,2.73,0,0,0-.84-1.19,2,2,0,0,0-1.24-.42,2,2,0,0,0-1.25.42,2.9,2.9,0,0,0-.84,1.19,5,5,0,0,0-.3,1.82,5,5,0,0,0,.3,1.81,2.84,2.84,0,0,0,.84,1.19A2,2,0,0,0,144.88,15.76ZM156,32.93V6.73l-.3-3.2a.39.39,0,0,1,.44-.47h7.22c.34,0,.43.15.27.44a5.1,5.1,0,0,1-.4.77,5.12,5.12,0,0,1-.51.67v27a1.08,1.08,0,0,1-.65,1,4.6,4.6,0,0,1-1.83.35l-3.77.1A.41.41,0,0,1,156,32.93Z" transform="translate(-1.19 -2.69)"/><path class="cls-1" d="M176.76,17.44c-.13-.13-.19-.23-.17-.3s.12-.12.27-.17a17.3,17.3,0,0,0,3.68-1.66,14.93,14.93,0,0,0,3-2.35,10.17,10.17,0,0,0,2-2.88,7.6,7.6,0,0,0,.71-3.19l-.31-1.51.78-1a.75.75,0,0,1,.32-.29,1.12,1.12,0,0,1,.42,0,17.61,17.61,0,0,1,1.73.52c.68.23,1.37.5,2.08.79a16.72,16.72,0,0,1,1.83.87c.16.09.25.18.27.25s0,.2-.14.36L192.38,8a9.07,9.07,0,0,1-1.19,3.84,15.47,15.47,0,0,1-2.75,3.56,19.28,19.28,0,0,1-3.85,2.91,19.8,19.8,0,0,1-4.5,1.92.86.86,0,0,1-.81-.24Zm1.72-8L177.4,5.62c-.09-.29,0-.44.34-.44h9.5l-.4,3.43-7.76,1.17A.45.45,0,0,1,178.48,9.41ZM192,33.57a18.53,18.53,0,0,1-5.31-.72,9.13,9.13,0,0,1-3.88-2.14,4.95,4.95,0,0,1,0-7,9.22,9.22,0,0,1,3.88-2.13,20,20,0,0,1,10.63,0,9.23,9.23,0,0,1,3.85,2.13,5,5,0,0,1,0,7,9.13,9.13,0,0,1-3.85,2.14A18.5,18.5,0,0,1,192,33.57Zm0-3.9a4.52,4.52,0,0,0,1.64-.28,2.71,2.71,0,0,0,1.18-.84,2.15,2.15,0,0,0,.43-1.36,2.2,2.2,0,0,0-.43-1.38,2.67,2.67,0,0,0-1.18-.86,4.88,4.88,0,0,0-3.26,0,2.64,2.64,0,0,0-1.17.86,2.21,2.21,0,0,0-.44,1.38,2.15,2.15,0,0,0,.44,1.36,2.68,2.68,0,0,0,1.17.84A4.48,4.48,0,0,0,192,29.67Zm5.61-12.36a13.81,13.81,0,0,0-3.43.44c-1,.26-1.84.51-2.55.73a.39.39,0,0,1-.34,0c-.07,0-.12-.15-.17-.33l-.4-3.86c0-.18,0-.3,0-.36a.46.46,0,0,1,.35,0c.52.07,1.1.12,1.75.15s1.36.06,2.15.09,1.65,0,2.59,0Zm0-6a11.26,11.26,0,0,0-3.08.44l-2.3.7c-.29.09-.45,0-.47-.33l-.44-3.83c0-.18,0-.3.07-.36a.55.55,0,0,1,.37,0c.47.07,1,.13,1.56.17s1.22.08,1.93.09h2.36Zm-1.38,8.94V6.56l-.3-3a.38.38,0,0,1,.43-.47h7.16c.34,0,.42.15.27.44a8.13,8.13,0,0,1-.44.77,7.77,7.77,0,0,1-.47.67V19.22a1.08,1.08,0,0,1-.65,1,4.32,4.32,0,0,1-1.83.32l-3.7.1A.42.42,0,0,1,196.25,20.2Z" transform="translate(-1.19 -2.69)"/><path class="cls-1" d="M206.13,24.16q-.4-.3,0-.57a22.66,22.66,0,0,0,3.55-3A16.69,16.69,0,0,0,212.26,17a16.2,16.2,0,0,0,1.51-4.17A18.49,18.49,0,0,0,214.12,8l.07-1.21.77-1a.64.64,0,0,1,.74-.27,11.27,11.27,0,0,1,1.6.49c.64.23,1.29.49,2,.79s1.28.58,1.82.87a.6.6,0,0,1,.27.25c0,.08,0,.2-.14.35l-.84,1.21a15.44,15.44,0,0,1-.57,4.12,20.42,20.42,0,0,1-1.58,4,22.28,22.28,0,0,1-2.37,3.64,22.06,22.06,0,0,1-2.94,3.08,17.86,17.86,0,0,1-3.29,2.26.65.65,0,0,1-.77-.1Zm2.11-12.66L207.3,7a.56.56,0,0,1,0-.37c0-.07.15-.1.33-.1H217l-.41,4.06q-2.85.27-4.62.54a24.47,24.47,0,0,0-3.14.67Q208.35,12,208.24,11.5ZM223.8,22a5.68,5.68,0,0,0-2,.42l-1.66.65c-.18.05-.31.05-.37,0s-.11-.16-.14-.34l-.33-4.2a.4.4,0,0,1,0-.35.46.46,0,0,1,.35-.05,15.74,15.74,0,0,0,2,.17c.74,0,1.45,0,2.12,0Zm0-7.09a5.08,5.08,0,0,0-1.73.38l-1.53.62c-.18.07-.3.08-.37,0s-.11-.16-.13-.34l-.34-4.16c0-.18,0-.31.05-.37s.17-.08.35,0q.78.11,1.8.15c.68,0,1.32,0,1.9,0Zm-1.48,17.43V7.3l-.23-3.06a.38.38,0,0,1,.43-.47h5.14a.47.47,0,0,1,.36.1.44.44,0,0,1,0,.37c-.07.22-.14.47-.23.74s-.16.49-.2.67V31.39a1.06,1.06,0,0,1-.66,1,4.32,4.32,0,0,1-1.83.32l-2.32,0A.41.41,0,0,1,222.32,32.29Zm7.06.64V6.63l-.31-3.1a.39.39,0,0,1,.44-.47h5.78c.31,0,.41.15.3.44a6,6,0,0,1-.37.76c-.13.23-.28.46-.43.68V32.06a1,1,0,0,1-.66,1,4.52,4.52,0,0,1-1.83.3l-2.45,0A.41.41,0,0,1,229.38,32.93Z" transform="translate(-1.19 -2.69)"/></g></g></svg>