<svg xmlns="http://www.w3.org/2000/svg" viewBox="0 0 235.62 31.26"><defs><style>.cls-1{fill:none;stroke:#fff;stroke-miterlimit:10;stroke-width:0.75px;}</style></defs><g id="레이어_2" data-name="레이어 2"><g id="레이어_1-2" data-name="레이어 1"><path class="cls-1" d="M1.45,18.35.78,14.49a.64.64,0,0,1,0-.37c0-.07.16-.08.34,0,1.45.18,3,.33,4.52.44s3.14.2,4.77.25,3.23.09,4.82.1,3.14,0,4.65,0,2.95-.1,4.32-.17,2.61-.15,3.73-.26l-1.85.8,2.29-1.78a.74.74,0,0,1,.36-.17.54.54,0,0,1,.34.21,7.79,7.79,0,0,1,1.29,1.76,9.7,9.7,0,0,1,1,2.33,2.57,2.57,0,0,1,0,.89c-.05.2-.23.3-.54.32a12.9,12.9,0,0,1-1.58,0q-2.49-.16-5.34-.27t-5.85-.15c-2,0-4-.05-5.9,0s-3.77.05-5.51.13-3.28.2-4.65.35C1.71,18.82,1.52,18.69,1.45,18.35ZM4.14,8.81,3,5c-.09-.29,0-.44.34-.44h7.08V8.61l-5.71.6A.53.53,0,0,1,4.14,8.81ZM6.19,33l-.31-7.59-.53-3.67c-.07-.31.07-.47.4-.47l6.18.24a.47.47,0,0,1,.54.47l.2,1v9A1.09,1.09,0,0,1,12,33a4.6,4.6,0,0,1-1.83.35l-3.5.1A.45.45,0,0,1,6.19,33ZM7.77,14.15c-.18,0-.29,0-.34-.1a.57.57,0,0,1,0-.37,37,37,0,0,0,.67-4.42c.13-1.51.2-3,.2-4.52H9l1.11-1a.68.68,0,0,1,.77-.17,23.94,23.94,0,0,1,2.19,1,16.27,16.27,0,0,1,2.11,1.35c.25.15.27.36.07.63l-.61.71c0,.54,0,1.18-.11,1.93s-.18,1.5-.31,2.25a18.74,18.74,0,0,1-.42,2,.76.76,0,0,1-.6.54,14.34,14.34,0,0,1-1.61.15c-.65,0-1.31.05-2,.05ZM9,25.1V21.81l13.54-.34V25.1Zm0,7.63v-4H22.35v4Zm3.8-10.92V15.56h6.45v5.38a1,1,0,0,1-.66,1,4.49,4.49,0,0,1-1.83.3l-3.49,0A.41.41,0,0,1,12.81,21.81Zm3.76-13L15.46,5c-.09-.29,0-.44.34-.44h7.32V8.61l-5.95.6A.53.53,0,0,1,16.57,8.81ZM20,21a.86.86,0,0,1,.81-.2c.65.13,1.36.31,2.13.53s1.52.47,2.25.74a11.38,11.38,0,0,1,1.83.84.41.41,0,0,1,.17.64,3.76,3.76,0,0,1-.34.44c-.13.16-.28.31-.43.47L26,32a1.14,1.14,0,0,1-.73,1,4.84,4.84,0,0,1-1.86.35l-3.26.1a.41.41,0,0,1-.47-.47V22.82l-.91-.61Zm1-6.89c-.18,0-.29,0-.33-.1a.56.56,0,0,1,0-.37,32.81,32.81,0,0,0,.69-4.49c.13-1.46.19-2.95.19-4.45h.74l1.11-1a.68.68,0,0,1,.77-.17c.69.3,1.4.64,2.13,1A19.39,19.39,0,0,1,28.4,5.89q.36.23.06.63l-.57.71a16.59,16.59,0,0,1-.12,1.86c-.07.71-.18,1.43-.3,2.15s-.26,1.4-.42,2a.76.76,0,0,1-.6.54c-.43.07-1,.13-1.62.19s-1.31.1-2,.13S21.56,14.15,21,14.15Z" transform="translate(-0.39 -2.69)"/><path class="cls-1" d="M34,27.59l-1.18-4.7a.6.6,0,0,1,0-.36.5.5,0,0,1,.34-.08c1.59.07,3.33.09,5.22.07s3.83-.08,5.82-.17,3.92-.2,5.81-.34,3.62-.3,5.19-.5a.49.49,0,0,1,.37,0,.52.52,0,0,1,.13.35l.17,2.86a.49.49,0,0,1-.43.57q-2.52.43-5.36.86c-1.9.28-3.79.53-5.68.77s-3.69.43-5.38.6-3.17.31-4.45.42A.52.52,0,0,1,34,27.59Zm1.47-17.07-1-4.16a.55.55,0,0,1,0-.37c0-.07.15-.1.33-.1h12.1l-.14,4.36c-1.77.05-3.53.13-5.29.24s-3.56.27-5.42.47A.5.5,0,0,1,35.48,10.52ZM36.9,24.36V17.71l-.24-2.85a.54.54,0,0,1,.05-.37.44.44,0,0,1,.35-.1h5.88c.32,0,.42.14.31.43s-.18.51-.26.77-.14.5-.18.68v7.19a1,1,0,0,1-.66,1,4.55,4.55,0,0,1-1.83.34l-3,0A.41.41,0,0,1,36.9,24.36Zm6.78-4.53c-.18,0-.29,0-.33-.1a.45.45,0,0,1,0-.37,43.82,43.82,0,0,0,1.19-6.64q.32-3.24.32-6.63h.87l1.11-.91a.77.77,0,0,1,.81-.13,16.81,16.81,0,0,1,2.08,1,13.39,13.39,0,0,1,2,1.44c.15.11.23.22.23.3a.73.73,0,0,1-.17.37l-.6.74a43.17,43.17,0,0,1-.57,5,32.71,32.71,0,0,1-1.21,4.8,1,1,0,0,1-.61.6,10.07,10.07,0,0,1-2.43.41C45.39,19.79,44.49,19.83,43.68,19.83Zm9.11,13.1V6.73l-.3-3.2a.38.38,0,0,1,.43-.47h7.23c.33,0,.42.15.26.44a4.32,4.32,0,0,1-.4.77,5.08,5.08,0,0,1-.5.67v27a1.07,1.07,0,0,1-.66,1A4.56,4.56,0,0,1,57,33.3l-3.76.1A.41.41,0,0,1,52.79,32.93Zm4-14.48V14.92h1.31L61.15,13a.35.35,0,0,1,.57.21,12.64,12.64,0,0,1,.68,2.62,23.8,23.8,0,0,1,.27,2.62c0,.31-.13.46-.44.43Z" transform="translate(-0.39 -2.69)"/><path class="cls-1" d="M73.72,10.25,72.51,6.49c-.09-.31,0-.44.33-.37.88.09,1.87.16,3,.22s2.27.09,3.48.1h3.57c1.18,0,2.28-.05,3.31-.12s1.92-.14,2.66-.23l-2.59.54,3.26-1.35a.46.46,0,0,1,.64.27,14.34,14.34,0,0,1,.6,1.56c.2.62.38,1.28.54,2a2.27,2.27,0,0,1,.08.87c0,.18-.2.28-.52.29a11.15,11.15,0,0,1-1.54-.12c-1.26-.15-2.54-.27-3.87-.33s-2.63-.09-3.94-.07-2.57.1-3.78.23a25.76,25.76,0,0,0-3.4.61A.45.45,0,0,1,73.72,10.25Zm8.53,11.59a9.91,9.91,0,0,1-5.81-1.51,4.82,4.82,0,0,1,0-8,9.91,9.91,0,0,1,5.81-1.51,9.8,9.8,0,0,1,5.81,1.51,4.7,4.7,0,0,1,2.12,4,4.67,4.67,0,0,1-2.12,4A9.8,9.8,0,0,1,82.25,21.84ZM78.72,4.14c-.09-.29,0-.45.34-.47l6.22-.3a.39.39,0,0,1,.35.06.48.48,0,0,1,0,.37l-.88,3.4-5.21,0Zm3.53,14.38a2.32,2.32,0,0,0,1.7-.61,2.12,2.12,0,0,0,.62-1.58A2.17,2.17,0,0,0,84,14.72a2.35,2.35,0,0,0-1.7-.6,2.4,2.4,0,0,0-1.73.6,2.17,2.17,0,0,0-.62,1.61,2.12,2.12,0,0,0,.62,1.58A2.36,2.36,0,0,0,82.25,18.52ZM81,33V26.41l-.41-2.95c-.07-.32.07-.47.41-.47h7.29c.33,0,.42.14.27.43s-.2.37-.32.57a5.06,5.06,0,0,1-.42.58v7.29a1.06,1.06,0,0,1-.66,1,5.1,5.1,0,0,1-1.83.39l-3.86.17A.39.39,0,0,1,81,33Zm5.61-4.07,2.13.07c.7,0,1.42,0,2.15,0s1.48,0,2.25-.07,1.58-.08,2.42-.13,1.72-.13,2.64-.22l-2.12.47,2.42-1.55a.59.59,0,0,1,.74.07c.58.54,1.17,1.12,1.78,1.76a13.06,13.06,0,0,1,1.51,1.9c.29.54.36.88.2,1a5,5,0,0,1-1.88.38q-1.58.11-3.24.15c-1.11,0-2.2,0-3.28,0s-2.09,0-3-.06l-2.62-.15c-.79-.06-1.44-.12-2-.19Zm8.66-10.14a5,5,0,0,0-1.84.42l-1.58.65a.45.45,0,0,1-.37,0c-.07,0-.11-.14-.14-.3L91,15.39a.39.39,0,0,1,.06-.35.48.48,0,0,1,.34,0q.81.11,1.86.15c.71,0,1.38,0,2,0Zm0-6.15a5.43,5.43,0,0,0-1.84.4l-1.58.64c-.18.07-.3.08-.37,0s-.11-.15-.14-.33L91,9.25c0-.34.11-.48.4-.41L93.25,9c.71,0,1.38,0,2,0ZM93.51,25.17V6.63l-.3-3.1a.38.38,0,0,1,.43-.47h7.26c.33,0,.42.15.27.44a8.13,8.13,0,0,1-.44.77,7.77,7.77,0,0,1-.47.67V24.2a1.06,1.06,0,0,1-.65,1,4.34,4.34,0,0,1-1.84.32l-3.79.1A.41.41,0,0,1,93.51,25.17Z" transform="translate(-0.39 -2.69)"/><path class="cls-1" d="M107.35,19.22,104.7,16.4q-.35-.33.06-.57a8.35,8.35,0,0,0,2-1.83,12.57,12.57,0,0,0,1.48-2.37,12.73,12.73,0,0,0,.9-2.6,11.13,11.13,0,0,0,.31-2.57L109.3,5a.39.39,0,0,1,.44-.47l7.82.3c.34,0,.42.14.24.41l-.61,1.11a9.47,9.47,0,0,1-.75,3.49,19.6,19.6,0,0,1-2,3.71,20.52,20.52,0,0,1-2.89,3.36,14.81,14.81,0,0,1-3.41,2.44A.63.63,0,0,1,107.35,19.22Zm3.9,4.14-.74-2.79c-.09-.29,0-.44.33-.44H126.9l-.47,2.55c-1.81,0-3.49.08-5,.16s-3.06.18-4.59.31-3.18.33-5,.58A.47.47,0,0,1,111.25,23.36Zm0,9.71V26.38l-.47-1.24c-.11-.29,0-.43.31-.41l6.08.27a.56.56,0,0,1,.57.51l0,.27.14.87.23,5.21a1.05,1.05,0,0,1-.6,1,4.55,4.55,0,0,1-1.82.4l-4,.2C111.37,33.52,111.21,33.38,111.21,33.07Zm2.19-5.68V25.2h12v2.19Zm4.77-9.11a.54.54,0,0,1-.57-.5,14.09,14.09,0,0,0-.61-1.71,14.38,14.38,0,0,0-.84-1.72,13.06,13.06,0,0,0-1-1.58,8.55,8.55,0,0,0-1.18-1.27l1.69-2.12a22.61,22.61,0,0,1,2.45,1A13.67,13.67,0,0,1,120,11.56a9.1,9.1,0,0,1,1.39,1.26,5.35,5.35,0,0,1,.86,1.31,3.32,3.32,0,0,1,.29,1.33,2.45,2.45,0,0,1-1.18,2.22A5.29,5.29,0,0,1,118.17,18.28ZM116.29,30h2c.82,0,1.71,0,2.69-.09s1.95-.11,2.92-.2,1.89-.2,2.74-.34a11.88,11.88,0,0,0,2.12-.5l-3.16,1.34L129,28.16a.73.73,0,0,1,.8,0,7.83,7.83,0,0,1,1.6,1.48,11.42,11.42,0,0,1,1.23,1.78,2.27,2.27,0,0,1,.21.84c0,.18-.16.3-.45.37a11.23,11.23,0,0,1-1.55.17c-.94,0-2,0-3.05,0s-2.22,0-3.36,0-2.24,0-3.28-.05-2,0-2.8-.1-1.48-.09-2-.13Zm7.29-2.72V20.4l1.27,0,.91-.77a1,1,0,0,1,.84-.2,13.8,13.8,0,0,1,2.39.74,19.57,19.57,0,0,1,2.21,1.07c.16.09.24.18.26.26s-.05.17-.19.28l-.81.74-.3,4.23a.5.5,0,0,1-.5.54c-.49.09-1.09.17-1.78.24s-1.38.12-2.07.16-1.27.07-1.76.07A.41.41,0,0,1,123.58,27.32Zm.6-8.87V6.52l-.3-3a.39.39,0,0,1,.44-.47h7.22c.34,0,.43.14.27.41s-.31.53-.45.79a6.19,6.19,0,0,1-.46.68V17.48a1.06,1.06,0,0,1-.65,1,4.32,4.32,0,0,1-1.83.32l-3.77.1A.42.42,0,0,1,124.18,18.45Z" transform="translate(-0.39 -2.69)"/><path class="cls-1" d="M136.54,26.85l-1.2-4.64a.46.46,0,0,1,0-.35c0-.05.16-.08.34-.08,1.47,0,3.09.06,4.83,0s3.54-.06,5.36-.15,3.61-.21,5.34-.34,3.31-.3,4.72-.5a.44.44,0,0,1,.37.05.5.5,0,0,1,.14.35l.17,2.82a.48.48,0,0,1-.44.54c-1.52.29-3.15.58-4.89.86s-3.47.53-5.21.77-3.38.44-4.93.62-2.91.31-4,.4C136.78,27.28,136.59,27.14,136.54,26.85Zm8.34-7a10.33,10.33,0,0,1-4.59-1,7.61,7.61,0,0,1-3.12-2.69A6.93,6.93,0,0,1,136,12.34a7,7,0,0,1,1.13-3.93,7.61,7.61,0,0,1,3.12-2.69,11.19,11.19,0,0,1,9.16,0,7.61,7.61,0,0,1,3.1,2.69,7,7,0,0,1,1.13,3.93,6.93,6.93,0,0,1-1.13,3.89,7.61,7.61,0,0,1-3.1,2.69A10.24,10.24,0,0,1,144.88,19.9Zm0-4.14a2,2,0,0,0,1.24-.42,2.67,2.67,0,0,0,.84-1.19,5,5,0,0,0,.3-1.81,5,5,0,0,0-.3-1.82,2.73,2.73,0,0,0-.84-1.19,2,2,0,0,0-1.24-.42,2,2,0,0,0-1.25.42,2.9,2.9,0,0,0-.84,1.19,5,5,0,0,0-.3,1.82,5,5,0,0,0,.3,1.81,2.84,2.84,0,0,0,.84,1.19A2,2,0,0,0,144.88,15.76ZM156,32.93V6.73l-.3-3.2a.39.39,0,0,1,.44-.47h7.22c.34,0,.43.15.27.44a5.1,5.1,0,0,1-.4.77,5.12,5.12,0,0,1-.51.67v27a1.08,1.08,0,0,1-.65,1,4.6,4.6,0,0,1-1.83.35l-3.77.1A.41.41,0,0,1,156,32.93Z" transform="translate(-0.39 -2.69)"/><path class="cls-1" d="M176.76,17.44c-.13-.13-.19-.23-.17-.3s.12-.12.27-.17a17.3,17.3,0,0,0,3.68-1.66,14.93,14.93,0,0,0,3-2.35,10.17,10.17,0,0,0,2-2.88,7.6,7.6,0,0,0,.71-3.19l-.31-1.51.78-1a.75.75,0,0,1,.32-.29,1.12,1.12,0,0,1,.42,0,17.61,17.61,0,0,1,1.73.52c.68.23,1.37.5,2.08.79a16.72,16.72,0,0,1,1.83.87c.16.09.25.18.27.25s0,.2-.14.36L192.38,8a9.07,9.07,0,0,1-1.19,3.84,15.47,15.47,0,0,1-2.75,3.56,19.28,19.28,0,0,1-3.85,2.91,19.8,19.8,0,0,1-4.5,1.92.86.86,0,0,1-.81-.24Zm1.72-8L177.4,5.62c-.09-.29,0-.44.34-.44h9.5l-.4,3.43-7.76,1.17A.45.45,0,0,1,178.48,9.41ZM192,33.57a18.53,18.53,0,0,1-5.31-.72,9.13,9.13,0,0,1-3.88-2.14,4.95,4.95,0,0,1,0-7,9.22,9.22,0,0,1,3.88-2.13,20,20,0,0,1,10.63,0,9.23,9.23,0,0,1,3.85,2.13,5,5,0,0,1,0,7,9.13,9.13,0,0,1-3.85,2.14A18.5,18.5,0,0,1,192,33.57Zm0-3.9a4.52,4.52,0,0,0,1.64-.28,2.71,2.71,0,0,0,1.18-.84,2.15,2.15,0,0,0,.43-1.36,2.2,2.2,0,0,0-.43-1.38,2.67,2.67,0,0,0-1.18-.86,4.88,4.88,0,0,0-3.26,0,2.64,2.64,0,0,0-1.17.86,2.21,2.21,0,0,0-.44,1.38,2.15,2.15,0,0,0,.44,1.36,2.68,2.68,0,0,0,1.17.84A4.48,4.48,0,0,0,192,29.67Zm5.61-12.36a13.81,13.81,0,0,0-3.43.44c-1,.26-1.84.51-2.55.73a.39.39,0,0,1-.34,0c-.07,0-.12-.15-.17-.33l-.4-3.86c0-.18,0-.3,0-.36a.46.46,0,0,1,.35,0c.52.07,1.1.12,1.75.15s1.36.06,2.15.09,1.65,0,2.59,0Zm0-6a11.26,11.26,0,0,0-3.08.44l-2.3.7c-.29.09-.45,0-.47-.33l-.44-3.83c0-.18,0-.3.07-.36a.55.55,0,0,1,.37,0c.47.07,1,.13,1.56.17s1.22.08,1.93.09h2.36Zm-1.38,8.94V6.56l-.3-3a.38.38,0,0,1,.43-.47h7.16c.34,0,.42.15.27.44a8.13,8.13,0,0,1-.44.77,7.77,7.77,0,0,1-.47.67V19.22a1.08,1.08,0,0,1-.65,1,4.32,4.32,0,0,1-1.83.32l-3.7.1A.42.42,0,0,1,196.25,20.2Z" transform="translate(-0.39 -2.69)"/><path class="cls-1" d="M206.13,24.16q-.4-.3,0-.57a22.66,22.66,0,0,0,3.55-3A16.69,16.69,0,0,0,212.26,17a16.2,16.2,0,0,0,1.51-4.17A18.49,18.49,0,0,0,214.12,8l.07-1.21.77-1a.64.64,0,0,1,.74-.27,11.27,11.27,0,0,1,1.6.49c.64.23,1.29.49,2,.79s1.28.58,1.82.87a.6.6,0,0,1,.27.25c0,.08,0,.2-.14.35l-.84,1.21a15.44,15.44,0,0,1-.57,4.12,20.42,20.42,0,0,1-1.58,4,22.28,22.28,0,0,1-2.37,3.64,22.06,22.06,0,0,1-2.94,3.08,17.86,17.86,0,0,1-3.29,2.26.65.65,0,0,1-.77-.1Zm2.11-12.66L207.3,7a.56.56,0,0,1,0-.37c0-.07.15-.1.33-.1H217l-.41,4.06q-2.85.27-4.62.54a24.47,24.47,0,0,0-3.14.67Q208.35,12,208.24,11.5ZM223.8,22a5.68,5.68,0,0,0-2,.42l-1.66.65c-.18.05-.31.05-.37,0s-.11-.16-.14-.34l-.33-4.2a.4.4,0,0,1,0-.35.46.46,0,0,1,.35-.05,15.74,15.74,0,0,0,2,.17c.74,0,1.45,0,2.12,0Zm0-7.09a5.08,5.08,0,0,0-1.73.38l-1.53.62c-.18.07-.3.08-.37,0s-.11-.16-.13-.34l-.34-4.16c0-.18,0-.31.05-.37s.17-.08.35,0q.78.11,1.8.15c.68,0,1.32,0,1.9,0Zm-1.48,17.43V7.3l-.23-3.06a.38.38,0,0,1,.43-.47h5.14a.47.47,0,0,1,.36.1.44.44,0,0,1,0,.37c-.07.22-.14.47-.23.74s-.16.49-.2.67V31.39a1.06,1.06,0,0,1-.66,1,4.32,4.32,0,0,1-1.83.32l-2.32,0A.41.41,0,0,1,222.32,32.29Zm7.06.64V6.63l-.31-3.1a.39.39,0,0,1,.44-.47h5.78c.31,0,.41.15.3.44a6,6,0,0,1-.37.76c-.13.23-.28.46-.43.68V32.06a1,1,0,0,1-.66,1,4.52,4.52,0,0,1-1.83.3l-2.45,0A.41.41,0,0,1,229.38,32.93Z" transform="translate(-0.39 -2.69)"/></g></g></svg>