<svg xmlns="http://www.w3.org/2000/svg" viewBox="0 0 266.35 31.26"><defs><style>.cls-1{fill:none;stroke:#fff;stroke-miterlimit:10;stroke-width:0.75px;}</style></defs><g id="레이어_2" data-name="레이어 2"><g id="레이어_1-2" data-name="레이어 1"><path class="cls-1" d="M4.64,27.12a.55.55,0,0,1-.33-.2L1.48,24.06a.55.55,0,0,1-.2-.33.56.56,0,0,1,.2-.34,10.9,10.9,0,0,0,2-2.79,23.26,23.26,0,0,0,1.5-3.78,30.09,30.09,0,0,0,.94-4.23,24.81,24.81,0,0,0,.28-4.12L6,6.42A.39.39,0,0,1,6.39,6l8.23.3c.34,0,.43.15.27.44L14.12,8.2a16.89,16.89,0,0,1-.47,3.72,30.52,30.52,0,0,1-1.31,4.16,35.52,35.52,0,0,1-2,4.19A28.33,28.33,0,0,1,7.85,24,17.11,17.11,0,0,1,5,27,.76.76,0,0,1,4.64,27.12Zm9.24-1.38a.58.58,0,0,1-.47-.6,15,15,0,0,0-.1-2.19c-.09-.76-.21-1.53-.37-2.3a20.62,20.62,0,0,0-.59-2.25,16.49,16.49,0,0,0-.8-2,14.72,14.72,0,0,0-1-1.7l1.68-1.84a19.73,19.73,0,0,1,2.3,1.81,18.45,18.45,0,0,1,1.92,2.05A17.13,17.13,0,0,1,18,18.82a10.4,10.4,0,0,1,1,2.12,6.54,6.54,0,0,1,.34,2,2.64,2.64,0,0,1-1.48,2.6A5.53,5.53,0,0,1,13.88,25.74Zm6.69,7.19V6.73l-.31-3.2a.39.39,0,0,1,.44-.47h7.39c.34,0,.43.15.27.44a6.41,6.41,0,0,1-.44.77,4.33,4.33,0,0,1-.5.67v27a1.08,1.08,0,0,1-.65,1,4.62,4.62,0,0,1-1.84.35L21,33.4A.41.41,0,0,1,20.57,32.93Zm3.93-12.5V16.94h1.71l3.73-2.05c.27-.18.46-.11.57.2a16.19,16.19,0,0,1,.61,2.64q.22,1.53.3,2.67c0,.31-.12.46-.44.44Z" transform="translate(-0.91 -2.69)"/><path class="cls-1" d="M34.58,9.18,33.5,5.75c-.09-.29,0-.44.34-.44h12.5l-.81,3.1-4.37.36c-1.23.12-2.32.23-3.26.36s-1.84.26-2.72.42A.52.52,0,0,1,34.58,9.18Zm-.07,11v-7L34,11.46a.56.56,0,0,1,0-.37c0-.06.16-.1.34-.1l5.94.24a.57.57,0,0,1,.61.43l.2.68-.27.53v6.22a2.66,2.66,0,0,1-.12.91.75.75,0,0,1-.6.4,10,10,0,0,1-1.6.13L35,20.67A.42.42,0,0,1,34.51,20.2ZM38.44,33l-.3-6.59-.54-3.56c-.07-.31.07-.46.4-.43l6.19.2a.55.55,0,0,1,.57.5l.17,1V32a1.08,1.08,0,0,1-.66,1,4.6,4.6,0,0,1-1.83.35l-3.49.1A.45.45,0,0,1,38.44,33Zm.77-19V11.5h6.32V14Zm1.08,2.89a11.16,11.16,0,0,0,1.41,0,13.93,13.93,0,0,0,1.58-.2c.56-.1,1.14-.23,1.73-.39s1.21-.34,1.86-.57l-2.65.94,3.6-1.68a.83.83,0,0,1,.84.07A7.21,7.21,0,0,1,50,16.33,9.56,9.56,0,0,1,51.11,18a2.74,2.74,0,0,1,.23.86q0,.28-.45.42a10.6,10.6,0,0,1-1.53.27l-2.17.18c-.7.06-1.41.09-2.11.11h-2.2l-2.39,0Zm1,9.17V22.92l13-.34V26Zm0,6.79V28.93H54.1V32.8Zm1.55-18.95V5.45h1l1.47-1a.81.81,0,0,1,.85-.06,14.56,14.56,0,0,1,2,1.11,17.8,17.8,0,0,1,2,1.47c.16.12.24.22.24.31s-.08.19-.24.3l-.74.67-.3,4.87a.54.54,0,0,1-.5.57c-.43.09-1,.18-1.58.26s-1.27.15-1.93.21-1.26.12-1.8.14A.42.42,0,0,1,42.81,13.85Zm9,8.3a.86.86,0,0,1,.81-.2c.65.13,1.36.31,2.13.53s1.52.47,2.23.73A11.19,11.19,0,0,1,58.8,24a.41.41,0,0,1,.2.64,5,5,0,0,1-.33.43,2.82,2.82,0,0,1-.47.44L57.73,32a1.14,1.14,0,0,1-.73,1,4.84,4.84,0,0,1-1.86.35l-3.23.1a.41.41,0,0,1-.47-.47V23.86l-.94-.54ZM52,21V6.56l-.3-3a.39.39,0,0,1,.44-.47h7.16c.17,0,.28,0,.32.09s0,.17-.06.35-.31.53-.47.77-.3.47-.43.67V20a1.06,1.06,0,0,1-.66,1,4.14,4.14,0,0,1-1.83.32l-3.69.1A.42.42,0,0,1,52,21Zm4.51-4.63V13h1.24l3.33-1.61a.42.42,0,0,1,.63.23A10.9,10.9,0,0,1,62.4,14a23.45,23.45,0,0,1,.3,2.36c0,.32-.12.46-.44.44Z" transform="translate(-0.91 -2.69)"/><path class="cls-1" d="M65.25,27.59l-1.17-4.7a.48.48,0,0,1,0-.36c0-.05.16-.08.34-.08,1.59.07,3.33.09,5.22.07s3.83-.08,5.81-.17,3.92-.2,5.81-.34,3.63-.3,5.2-.5a.5.5,0,0,1,.37,0,.58.58,0,0,1,.13.35l.17,2.86a.5.5,0,0,1-.44.57q-2.52.43-5.36.86c-1.89.28-3.78.53-5.68.77s-3.68.43-5.37.6-3.18.31-4.45.42A.52.52,0,0,1,65.25,27.59Zm1.48-17.07-1-4.16a.64.64,0,0,1,0-.37c0-.07.16-.1.34-.1H78.15L78,10.25c-1.77.05-3.53.13-5.29.24s-3.57.27-5.43.47A.49.49,0,0,1,66.73,10.52Zm1.41,13.84V17.71l-.23-2.85a.44.44,0,0,1,0-.37c.05-.07.17-.1.35-.1h5.88c.31,0,.41.14.3.43s-.17.51-.25.77-.14.5-.19.68v7.19a1,1,0,0,1-.65,1,4.62,4.62,0,0,1-1.83.34l-3,0A.41.41,0,0,1,68.14,24.36Zm6.79-4.53a.44.44,0,0,1-.34-.1.56.56,0,0,1,0-.37,43.82,43.82,0,0,0,1.19-6.64,65.43,65.43,0,0,0,.32-6.63H77l1.11-.91a.75.75,0,0,1,.8-.13,16.92,16.92,0,0,1,2.09,1,13.31,13.31,0,0,1,2,1.44c.16.11.24.22.24.3a.73.73,0,0,1-.17.37l-.61.74a43.17,43.17,0,0,1-.57,5,31.5,31.5,0,0,1-1.21,4.8,1,1,0,0,1-.6.6,10.16,10.16,0,0,1-2.44.41C76.64,19.79,75.73,19.83,74.93,19.83ZM84,32.93V6.73l-.3-3.2a.39.39,0,0,1,.44-.47h7.22c.34,0,.43.15.27.44a5.1,5.1,0,0,1-.4.77,5.12,5.12,0,0,1-.51.67v27a1.08,1.08,0,0,1-.65,1,4.6,4.6,0,0,1-1.83.35l-3.77.1A.41.41,0,0,1,84,32.93Zm4-14.48V14.92h1.31L92.4,13a.35.35,0,0,1,.57.21,13.32,13.32,0,0,1,.67,2.62,19.75,19.75,0,0,1,.27,2.62c0,.31-.12.46-.44.43Z" transform="translate(-0.91 -2.69)"/><path class="cls-1" d="M107.28,27.12a.55.55,0,0,1-.33-.2l-2.83-2.86a.55.55,0,0,1-.2-.33.56.56,0,0,1,.2-.34,10.9,10.9,0,0,0,1.95-2.79,22.39,22.39,0,0,0,1.5-3.78,30.09,30.09,0,0,0,.94-4.23,24.81,24.81,0,0,0,.28-4.12l-.2-2.05A.39.39,0,0,1,109,6l8.23.3c.34,0,.43.15.27.44l-.77,1.51a16.89,16.89,0,0,1-.47,3.72A30.52,30.52,0,0,1,115,16.08a35.52,35.52,0,0,1-2,4.19,28.33,28.33,0,0,1-2.5,3.77A17.11,17.11,0,0,1,107.65,27,.73.73,0,0,1,107.28,27.12Zm9.24-1.38a.58.58,0,0,1-.47-.6A15,15,0,0,0,116,23c-.09-.76-.21-1.53-.37-2.3A20.62,20.62,0,0,0,115,18.4a16.49,16.49,0,0,0-.8-2,13.37,13.37,0,0,0-1-1.7l1.68-1.84a19.73,19.73,0,0,1,2.3,1.81,18.45,18.45,0,0,1,1.92,2.05,17.13,17.13,0,0,1,1.47,2.15,10.4,10.4,0,0,1,1,2.12,6.25,6.25,0,0,1,.34,2,2.64,2.64,0,0,1-1.48,2.6A5.53,5.53,0,0,1,116.52,25.74Zm6.69,7.19V6.73l-.3-3.2a.38.38,0,0,1,.43-.47h7.39c.34,0,.43.15.27.44a8.08,8.08,0,0,1-.43.77,5.12,5.12,0,0,1-.51.67v27a1.08,1.08,0,0,1-.65,1,4.6,4.6,0,0,1-1.83.35l-3.9.1A.41.41,0,0,1,123.21,32.93Zm3.93-12.5V16.94h1.71l3.73-2.05c.27-.18.46-.11.57.2a16.19,16.19,0,0,1,.61,2.64q.23,1.53.3,2.67c0,.31-.12.46-.44.44Z" transform="translate(-0.91 -2.69)"/><path class="cls-1" d="M137.22,9.18l-1.08-3.43c-.09-.29,0-.44.34-.44H149l-.81,3.1-4.37.36c-1.23.12-2.32.23-3.26.36s-1.84.26-2.72.42A.52.52,0,0,1,137.22,9.18Zm-.07,11v-7l-.47-1.75a.45.45,0,0,1,0-.37c0-.06.16-.1.34-.1l5.94.24a.57.57,0,0,1,.61.43l.2.68-.27.53v6.22a2.66,2.66,0,0,1-.12.91.75.75,0,0,1-.6.4,10,10,0,0,1-1.6.13l-3.56.14A.42.42,0,0,1,137.15,20.2ZM141.08,33l-.3-6.59-.54-3.56c-.07-.31.07-.46.4-.43l6.19.2a.55.55,0,0,1,.57.5l.17,1V32a1.08,1.08,0,0,1-.66,1,4.6,4.6,0,0,1-1.83.35l-3.5.1A.45.45,0,0,1,141.08,33Zm.77-19V11.5h6.32V14Zm1.08,2.89a11.16,11.16,0,0,0,1.41,0,13.93,13.93,0,0,0,1.58-.2c.56-.1,1.14-.23,1.73-.39s1.21-.34,1.86-.57l-2.65.94,3.6-1.68a.81.81,0,0,1,.83.07,7,7,0,0,1,1.38,1.34A9.56,9.56,0,0,1,153.75,18a2.74,2.74,0,0,1,.23.86q0,.28-.45.42a10.6,10.6,0,0,1-1.53.27l-2.17.18c-.7.06-1.41.09-2.11.11h-2.2l-2.39,0Zm1,9.17V22.92l13-.34V26Zm0,6.79V28.93h12.84V32.8Zm1.55-18.95V5.45h1l1.47-1a.81.81,0,0,1,.85-.06,15.16,15.16,0,0,1,2,1.11,17.8,17.8,0,0,1,2,1.47c.16.12.24.22.24.31s-.08.19-.24.3l-.74.67-.3,4.87a.54.54,0,0,1-.5.57c-.43.09-.95.18-1.58.26s-1.27.15-1.93.21-1.26.12-1.8.14A.42.42,0,0,1,145.45,13.85Zm9,8.3a.86.86,0,0,1,.81-.2c.65.13,1.36.31,2.13.53s1.52.47,2.23.73a11.19,11.19,0,0,1,1.85.82.41.41,0,0,1,.2.64,5,5,0,0,1-.33.43,2.82,2.82,0,0,1-.47.44L160.37,32a1.14,1.14,0,0,1-.73,1,4.84,4.84,0,0,1-1.86.35l-3.23.1a.41.41,0,0,1-.47-.47V23.86l-.94-.54Zm.23-1.15V6.56l-.3-3a.39.39,0,0,1,.44-.47H162c.17,0,.28,0,.31.09s0,.17,0,.35-.31.53-.47.77-.3.47-.43.67V20a1.06,1.06,0,0,1-.66,1,4.17,4.17,0,0,1-1.83.32l-3.69.1A.42.42,0,0,1,154.65,21Zm4.51-4.63V13h1.24l3.33-1.61a.42.42,0,0,1,.63.23A10.9,10.9,0,0,1,165,14a23.45,23.45,0,0,1,.3,2.36c0,.32-.13.46-.44.44Z" transform="translate(-0.91 -2.69)"/><path class="cls-1" d="M167.79,26.85l-1.21-4.64a.5.5,0,0,1,0-.35c0-.05.15-.08.33-.08,1.48,0,3.09.06,4.84,0s3.53-.06,5.36-.15,3.6-.21,5.34-.34,3.31-.3,4.72-.5a.45.45,0,0,1,.37.05.5.5,0,0,1,.13.35l.17,2.82a.47.47,0,0,1-.43.54c-1.53.29-3.16.58-4.89.86s-3.47.53-5.21.77-3.38.44-4.94.62-2.91.31-4,.4A.46.46,0,0,1,167.79,26.85Zm8.33-7a10.31,10.31,0,0,1-4.58-1,7.64,7.64,0,0,1-3.13-2.69,6.92,6.92,0,0,1-1.12-3.89,7,7,0,0,1,1.12-3.93,7.64,7.64,0,0,1,3.13-2.69,10.31,10.31,0,0,1,4.58-1,10.21,10.21,0,0,1,4.57,1,7.64,7.64,0,0,1,3.11,2.69,7,7,0,0,1,1.13,3.93,6.93,6.93,0,0,1-1.13,3.89,7.64,7.64,0,0,1-3.11,2.69A10.21,10.21,0,0,1,176.12,19.9Zm0-4.14a2,2,0,0,0,1.25-.42,2.84,2.84,0,0,0,.84-1.19,5,5,0,0,0,.3-1.81,5,5,0,0,0-.3-1.82,2.9,2.9,0,0,0-.84-1.19,2,2,0,0,0-1.25-.42,2,2,0,0,0-1.24.42,2.73,2.73,0,0,0-.84,1.19,5,5,0,0,0-.3,1.82,5,5,0,0,0,.3,1.81,2.67,2.67,0,0,0,.84,1.19A2,2,0,0,0,176.12,15.76Zm11.16,17.17V6.73l-.3-3.2a.38.38,0,0,1,.43-.47h7.23c.33,0,.42.15.27.44a5.14,5.14,0,0,1-.41.77,5.08,5.08,0,0,1-.5.67v27a1.07,1.07,0,0,1-.66,1,4.56,4.56,0,0,1-1.83.35l-3.76.1A.41.41,0,0,1,187.28,32.93Z" transform="translate(-0.91 -2.69)"/><path class="cls-1" d="M208,17.44c-.14-.13-.19-.23-.17-.3s.11-.12.27-.17a17.3,17.3,0,0,0,3.68-1.66,14.93,14.93,0,0,0,3-2.35,10.17,10.17,0,0,0,2-2.88,7.59,7.59,0,0,0,.7-3.19l-.3-1.51.77-1a.75.75,0,0,1,.32-.29,1.12,1.12,0,0,1,.42,0,16.83,16.83,0,0,1,1.73.52c.69.23,1.38.5,2.09.79a17.66,17.66,0,0,1,1.83.87.66.66,0,0,1,.27.25c0,.08,0,.2-.14.36L223.63,8a9.21,9.21,0,0,1-1.19,3.84,15.8,15.8,0,0,1-2.76,3.56,19.21,19.21,0,0,1-3.84,2.91,20.07,20.07,0,0,1-4.51,1.92.85.85,0,0,1-.8-.24Zm1.71-8-1.07-3.79c-.09-.29,0-.44.33-.44h9.51l-.4,3.43-7.76,1.17A.46.46,0,0,1,209.72,9.41Zm13.54,24.16a18.58,18.58,0,0,1-5.31-.72,9.25,9.25,0,0,1-3.88-2.14,4.95,4.95,0,0,1,0-7A9.35,9.35,0,0,1,218,21.56a20,20,0,0,1,10.64,0,9.12,9.12,0,0,1,3.84,2.13,5,5,0,0,1,0,7,9,9,0,0,1-3.84,2.14A18.52,18.52,0,0,1,223.26,33.57Zm0-3.9a4.53,4.53,0,0,0,1.65-.28,2.68,2.68,0,0,0,1.17-.84,2.1,2.1,0,0,0,.44-1.36,2.15,2.15,0,0,0-.44-1.38,2.64,2.64,0,0,0-1.17-.86,4.53,4.53,0,0,0-1.65-.28,4.43,4.43,0,0,0-1.61.28,2.67,2.67,0,0,0-1.18.86,2.2,2.2,0,0,0-.43,1.38,2.15,2.15,0,0,0,.43,1.36,2.71,2.71,0,0,0,1.18.84A4.43,4.43,0,0,0,223.26,29.67Zm5.61-12.36a13.73,13.73,0,0,0-3.42.44c-1,.26-1.84.51-2.56.73a.37.37,0,0,1-.33,0,.5.5,0,0,1-.17-.33L222,14.29a.45.45,0,0,1,.06-.36.46.46,0,0,1,.35,0c.51.07,1.1.12,1.74.15s1.37.06,2.16.09,1.64,0,2.58,0Zm0-6a11.18,11.18,0,0,0-3.07.44l-2.3.7c-.29.09-.45,0-.47-.33l-.44-3.83c0-.18,0-.3.07-.36a.54.54,0,0,1,.37,0c.47.07,1,.13,1.56.17s1.21.08,1.93.09h2.35ZM227.5,20.2V6.56l-.31-3a.39.39,0,0,1,.44-.47h7.16c.33,0,.42.15.26.44a8.08,8.08,0,0,1-.43.77c-.16.25-.32.47-.47.67V19.22a1.07,1.07,0,0,1-.66,1,4.29,4.29,0,0,1-1.83.32l-3.7.1A.41.41,0,0,1,227.5,20.2Z" transform="translate(-0.91 -2.69)"/><path class="cls-1" d="M237.37,24.16c-.27-.2-.26-.39,0-.57a22.57,22.57,0,0,0,3.54-3A16.26,16.26,0,0,0,245,12.82,18.49,18.49,0,0,0,245.37,8l.07-1.21.77-1a.63.63,0,0,1,.74-.27,11.61,11.61,0,0,1,1.59.49c.64.23,1.3.49,2,.79s1.28.58,1.81.87c.16.09.25.17.27.25a.47.47,0,0,1-.13.35l-.84,1.21a15.44,15.44,0,0,1-.57,4.12,20.42,20.42,0,0,1-1.58,4,23,23,0,0,1-2.37,3.64,23.28,23.28,0,0,1-2.94,3.08,17.86,17.86,0,0,1-3.29,2.26.66.66,0,0,1-.78-.1Zm2.12-12.66L238.55,7a.65.65,0,0,1,0-.37c0-.07.16-.1.34-.1h9.27l-.4,4.06q-2.86.27-4.62.54a23.75,23.75,0,0,0-3.14.67C239.73,11.92,239.56,11.81,239.49,11.5ZM255,22a5.72,5.72,0,0,0-2,.42l-1.66.65a.45.45,0,0,1-.37,0,.49.49,0,0,1-.13-.34l-.34-4.2a.49.49,0,0,1,.05-.35.5.5,0,0,1,.36-.05,15.74,15.74,0,0,0,2,.17c.74,0,1.44,0,2.11,0Zm0-7.09a5.08,5.08,0,0,0-1.73.38l-1.52.62c-.18.07-.31.08-.37,0a.47.47,0,0,1-.14-.34L251,11.4A.44.44,0,0,1,251,11c.05-.07.17-.08.35,0q.77.11,1.8.15c.68,0,1.31,0,1.89,0Zm-1.47,17.43V7.3l-.24-3.06a.39.39,0,0,1,.44-.47h5.14a.44.44,0,0,1,.35.1c.06.07.06.19,0,.37L259,5c-.09.27-.15.49-.2.67V31.39a1.06,1.06,0,0,1-.65,1,4.34,4.34,0,0,1-1.84.32l-2.31,0A.41.41,0,0,1,253.57,32.29Zm7.05.64V6.63l-.3-3.1a.39.39,0,0,1,.44-.47h5.77c.32,0,.42.15.31.44s-.24.52-.37.76-.28.46-.44.68V32.06a1.05,1.05,0,0,1-.65,1,4.54,4.54,0,0,1-1.84.3l-2.45,0A.41.41,0,0,1,260.62,32.93Z" transform="translate(-0.91 -2.69)"/></g></g></svg>