<svg xmlns="http://www.w3.org/2000/svg" viewBox="0 0 266.9 31.49"><defs><style>.cls-1{fill:none;stroke:#fff;stroke-miterlimit:10;stroke-width:0.75px;}</style></defs><g id="레이어_2" data-name="레이어 2"><g id="레이어_1-2" data-name="레이어 1"><path class="cls-1" d="M1.45,18.75l-.71-4c0-.18,0-.3,0-.35s.15-.07.33,0c1.48.18,3,.32,4.59.43s3.18.2,4.79.26,3.22.09,4.82.1,3.15,0,4.64,0,2.9-.08,4.23-.15,2.54-.15,3.61-.27L26,15.43l2.29-1.82a.6.6,0,0,1,.37-.15.67.67,0,0,1,.33.22,9.11,9.11,0,0,1,1.31,1.81,9.85,9.85,0,0,1,1,2.39,2.29,2.29,0,0,1,0,.89c0,.19-.22.3-.54.32a15.19,15.19,0,0,1-1.57,0c-1.64-.12-3.4-.21-5.3-.27s-3.83-.12-5.81-.14-3.95,0-5.89,0-3.8.08-5.53.15-3.3.2-4.69.36A.47.47,0,0,1,1.45,18.75Zm3.19,4.71L4,20.63a.54.54,0,0,1,0-.36c0-.07.16-.11.34-.11h7.35v3c-.76,0-1.67.08-2.73.17s-2.34.25-3.82.5C4.9,23.93,4.71,23.79,4.64,23.46Zm.1,9.61V26.51l-.13-1.17c0-.31.12-.46.43-.44l3.2.2a.71.71,0,0,1,.64.47L9,26l1,.57V32a1.1,1.1,0,0,1-.65,1,4.69,4.69,0,0,1-1.83.4l-2.29.1C4.9,33.52,4.74,33.38,4.74,33.07ZM16,13.55a28.62,28.62,0,0,1-4.58-.34A12.9,12.9,0,0,1,8,12.2,5.71,5.71,0,0,1,5.8,10.54,3.72,3.72,0,0,1,5,8.24,3.78,3.78,0,0,1,5.8,5.92,5.78,5.78,0,0,1,8,4.22a12.54,12.54,0,0,1,3.46-1A27.51,27.51,0,0,1,16,2.86a27.42,27.42,0,0,1,4.6.34,12.57,12.57,0,0,1,3.45,1,5.78,5.78,0,0,1,2.17,1.7A3.82,3.82,0,0,1,27,8.24a3.76,3.76,0,0,1-.73,2.3,5.71,5.71,0,0,1-2.17,1.66,12.94,12.94,0,0,1-3.45,1A28.52,28.52,0,0,1,16,13.55ZM6.72,29.84c1,0,2.05,0,3.05-.08a25.77,25.77,0,0,0,2.8-.31,10.77,10.77,0,0,0,2.22-.58l-3.66,1.58,3.36-1.95a.5.5,0,0,1,.7.1,6.35,6.35,0,0,1,.74,1.26,15.53,15.53,0,0,1,.67,1.66,1.72,1.72,0,0,1,.15.86c0,.19-.2.32-.5.38a10.15,10.15,0,0,1-1.56.17c-.79,0-1.64,0-2.56,0L9.38,32.9c-.92,0-1.78-.06-2.59-.1Zm.44-1.95V25.24H12.1v2.65Zm2.59-.23V20.23l-.2,0,1.24-.81a.93.93,0,0,1,.84-.07,11.37,11.37,0,0,1,1.95,1.09,7.67,7.67,0,0,1,1.54,1.33.51.51,0,0,1,0,.74l-.16.24v4.36a.53.53,0,0,1-.47.57c-.36.07-.81.13-1.33.19s-1.05.11-1.58.15-1,.07-1.36.07A.42.42,0,0,1,9.75,27.66ZM16,9.82a11.85,11.85,0,0,0,2.24-.19,3.63,3.63,0,0,0,1.42-.55,1.07,1.07,0,0,0,0-1.82,3.63,3.63,0,0,0-1.42-.55A11.85,11.85,0,0,0,16,6.52a11.93,11.93,0,0,0-2.22.19,3.73,3.73,0,0,0-1.44.55,1.08,1.08,0,0,0,0,1.82,3.73,3.73,0,0,0,1.44.55A11.93,11.93,0,0,0,16,9.82ZM12.47,17l-.17-2.59-.1-1.58a.57.57,0,0,1,.09-.37.47.47,0,0,1,.35-.1h6.11c.34,0,.47.16.41.47s-.05.31-.09.46a1.89,1.89,0,0,1-.12.38L18.69,17Zm3.46,8.32a.75.75,0,0,1-.17-.36l-.57-2.89c0-.18,0-.29,0-.35s.15-.07.33-.05c1,.13,2.16.24,3.33.3s2.29.1,3.37.1,2,0,2.88-.1a7.75,7.75,0,0,0,1.81-.3l-2.59.84,3.16-1.31c.31-.13.53-.06.64.23a6.41,6.41,0,0,1,.47,1.15c.13.42.26.89.37,1.41s.1,1-.1,1.09a4.59,4.59,0,0,1-1.92,0C25.69,25,24.41,25,23.17,25s-2.44,0-3.59.09a27.15,27.15,0,0,0-3.28.37A.55.55,0,0,1,15.93,25.36Zm6.25,8.24A7.34,7.34,0,0,1,18,32.5a3.48,3.48,0,0,1-1.59-3,3.38,3.38,0,0,1,1.59-3,7.58,7.58,0,0,1,4.22-1.06,7.52,7.52,0,0,1,4.33,1.06,3.43,3.43,0,0,1,1.52,3,3.49,3.49,0,0,1-1.58,3A7.4,7.4,0,0,1,22.18,33.6ZM19.36,20.2a.57.57,0,0,1,0-.37c.05-.07.16-.11.34-.14l4.73-.26c.34,0,.46.12.37.43l-.7,3.29H20Zm2.82,10.45a1.43,1.43,0,0,0,.91-.27,1.07,1.07,0,0,0,.33-.88,1.12,1.12,0,0,0-.33-.89,1.38,1.38,0,0,0-.91-.28,1.35,1.35,0,0,0-.87.28,1,1,0,0,0-.37.89,1,1,0,0,0,.37.88A1.41,1.41,0,0,0,22.18,30.65Z" transform="translate(-0.36 -2.49)"/><path class="cls-1" d="M32.73,20.6,32,16.44a.64.64,0,0,1,0-.37c0-.07.16-.08.34,0,1.5.16,3.06.29,4.67.41s3.24.19,4.87.25,3.24.09,4.82.1,3.11,0,4.57,0,2.84-.08,4.1-.15,2.39-.15,3.38-.27l-1.61.78,2.28-1.85a.76.76,0,0,1,.37-.17.59.59,0,0,1,.34.2,12.09,12.09,0,0,1,1.36,1.95,10.5,10.5,0,0,1,1,2.52,2.29,2.29,0,0,1,0,.89c0,.19-.22.3-.53.32a15.37,15.37,0,0,1-1.58,0q-2.36-.17-5.16-.27c-1.87-.07-3.8-.11-5.79-.14s-4,0-5.92,0-3.8.08-5.56.16-3.33.18-4.72.31C33,21.07,32.8,20.94,32.73,20.6Zm14.55-5.68a25.47,25.47,0,0,1-4.57-.37,12.54,12.54,0,0,1-3.5-1.1A6.31,6.31,0,0,1,37,11.63a4.13,4.13,0,0,1-.79-2.52A4.21,4.21,0,0,1,37,6.57a6.33,6.33,0,0,1,2.23-1.83,13.21,13.21,0,0,1,3.5-1.12,27,27,0,0,1,9.14,0,13.14,13.14,0,0,1,3.49,1.12,6.2,6.2,0,0,1,2.22,1.83,4.33,4.33,0,0,1,.77,2.54,4.25,4.25,0,0,1-.77,2.52,6.18,6.18,0,0,1-2.22,1.82,12.46,12.46,0,0,1-3.49,1.1A25.55,25.55,0,0,1,47.28,14.92ZM37.43,33l-.3-6.42-.54-3.53c-.06-.31.07-.46.41-.43l6.18.2a.54.54,0,0,1,.57.5l.17,1V32a1.08,1.08,0,0,1-.66,1,4.53,4.53,0,0,1-1.83.35l-3.49.1A.46.46,0,0,1,37.43,33Zm2.83-6.82V23.12l13.54-.33v3.39Zm0,6.62V29H53.59V32.8Zm7-21.67a8.5,8.5,0,0,0,2.15-.24,3.22,3.22,0,0,0,1.41-.7A1.55,1.55,0,0,0,51.34,9a1.45,1.45,0,0,0-.5-1.11,3.56,3.56,0,0,0-1.41-.67A9,9,0,0,0,47.28,7a9.11,9.11,0,0,0-2.14.23,3.48,3.48,0,0,0-1.42.67A1.42,1.42,0,0,0,43.21,9a1.52,1.52,0,0,0,.51,1.15,3.15,3.15,0,0,0,1.42.7A8.58,8.58,0,0,0,47.28,11.13Zm4,11.22a.85.85,0,0,1,.8-.2c.65.13,1.36.31,2.12.53s1.51.47,2.23.73a11.46,11.46,0,0,1,1.87.82.42.42,0,0,1,.17.64,5.27,5.27,0,0,1-.34.43,3.05,3.05,0,0,1-.44.44L57.22,32a1.14,1.14,0,0,1-.72,1,4.84,4.84,0,0,1-1.86.35l-3.26.1a.41.41,0,0,1-.47-.47V24.2L50,23.52Z" transform="translate(-0.36 -2.49)"/><path class="cls-1" d="M65.25,27.59l-1.17-4.7a.48.48,0,0,1,0-.36c0-.05.16-.08.34-.08,1.59.07,3.33.09,5.22.07s3.83-.08,5.81-.17,3.92-.2,5.81-.34,3.63-.3,5.2-.5a.5.5,0,0,1,.37,0,.58.58,0,0,1,.13.35l.17,2.86a.5.5,0,0,1-.44.57q-2.52.43-5.36.86c-1.89.28-3.78.53-5.68.77s-3.68.43-5.37.6-3.18.31-4.45.42A.52.52,0,0,1,65.25,27.59Zm1.48-17.07-1-4.16a.64.64,0,0,1,0-.37c0-.07.16-.1.34-.1H78.15L78,10.25c-1.77.05-3.53.13-5.29.24s-3.57.27-5.43.47A.49.49,0,0,1,66.73,10.52Zm1.41,13.84V17.71l-.23-2.85a.44.44,0,0,1,0-.37c.05-.07.17-.1.35-.1h5.88c.31,0,.41.14.3.43s-.17.51-.25.77-.14.5-.19.68v7.19a1,1,0,0,1-.65,1,4.62,4.62,0,0,1-1.83.34l-3,0A.41.41,0,0,1,68.14,24.36Zm6.79-4.53a.44.44,0,0,1-.34-.1.56.56,0,0,1,0-.37,43.82,43.82,0,0,0,1.19-6.64,65.43,65.43,0,0,0,.32-6.63H77l1.11-.91a.75.75,0,0,1,.8-.13,16.92,16.92,0,0,1,2.09,1,13.31,13.31,0,0,1,2,1.44c.16.11.24.22.24.3a.73.73,0,0,1-.17.37l-.61.74a43.17,43.17,0,0,1-.57,5,31.5,31.5,0,0,1-1.21,4.8,1,1,0,0,1-.6.6,10.16,10.16,0,0,1-2.44.41C76.64,19.79,75.73,19.83,74.93,19.83ZM84,32.93V6.73l-.3-3.2a.39.39,0,0,1,.44-.47h7.22c.34,0,.43.15.27.44a5.1,5.1,0,0,1-.4.77,5.12,5.12,0,0,1-.51.67v27a1.08,1.08,0,0,1-.65,1,4.6,4.6,0,0,1-1.83.35l-3.77.1A.41.41,0,0,1,84,32.93Zm4-14.48V14.92h1.31L92.4,13a.35.35,0,0,1,.57.21,13.32,13.32,0,0,1,.67,2.62,19.75,19.75,0,0,1,.27,2.62c0,.31-.12.46-.44.43Z" transform="translate(-0.36 -2.49)"/><path class="cls-1" d="M104.16,28.67l-.74-4.17a.65.65,0,0,1,0-.37c0-.07.16-.08.34,0,1.5.15,3.06.29,4.67.4s3.24.2,4.87.25,3.24.09,4.82.1,3.1,0,4.57,0,2.83-.09,4.1-.15,2.39-.16,3.38-.27l-1.62.77,2.29-1.85a.73.73,0,0,1,.37-.17.52.52,0,0,1,.33.21,10.48,10.48,0,0,1,1.36,1.94,10,10,0,0,1,1,2.53,2.24,2.24,0,0,1,0,.88c0,.2-.22.3-.53.32a11.11,11.11,0,0,1-1.58,0c-1.57-.09-3.29-.17-5.16-.25s-3.8-.13-5.8-.15-4,0-5.91,0-3.8.07-5.56.15-3.33.18-4.72.32A.44.44,0,0,1,104.16,28.67Zm3.53-17.41-1.11-4.33a.45.45,0,0,1,0-.37c0-.07.15-.1.33-.1h18V11c-1.81,0-3.63.07-5.46.14s-3.66.14-5.51.23-3.73.2-5.66.34A.53.53,0,0,1,107.69,11.26ZM121.16,24c-.18,0-.29,0-.34-.1a.65.65,0,0,1,0-.37,59.91,59.91,0,0,0,1.48-8.4q.41-4,.4-8.43h1.08l1.14-1a.66.66,0,0,1,.77-.17,14.25,14.25,0,0,1,2.1,1.11,19.39,19.39,0,0,1,2.1,1.54c.16.11.24.22.24.31a.7.7,0,0,1-.17.36l-.57.74a56,56,0,0,1-.68,6.79,49,49,0,0,1-1.51,6.55.91.91,0,0,1-.57.61,9.49,9.49,0,0,1-1.61.32c-.65.07-1.31.13-2,.15Z" transform="translate(-0.36 -2.49)"/><path class="cls-1" d="M135.3,21.71l-.67-3.8a.65.65,0,0,1,0-.37c.05-.06.16-.07.34,0,1.43.18,2.93.32,4.49.44s3.13.19,4.73.25,3.21.09,4.81.1,3.17,0,4.7-.05,3-.1,4.39-.17,2.66-.16,3.83-.27l-1.92.84,2.28-1.78a.76.76,0,0,1,.37-.17.54.54,0,0,1,.34.21,7.79,7.79,0,0,1,1.24,1.67,9.11,9.11,0,0,1,.94,2.29,2.57,2.57,0,0,1,0,.89c-.05.19-.23.3-.54.32a15.4,15.4,0,0,1-1.58,0c-1.68-.12-3.48-.21-5.39-.27s-3.87-.12-5.86-.15-4,0-5.88,0-3.76.07-5.48.15-3.27.2-4.64.35C135.56,22.18,135.37,22.05,135.3,21.71Zm3.53-5.31V10.86l-.67-2.22c-.09-.29,0-.43.33-.4l6.25.53.46.07a1.12,1.12,0,0,1,.42.2l.94.54-1.31.67v5.58a.54.54,0,0,1-.47.57c-.83.16-1.74.28-2.72.37a24.23,24.23,0,0,1-2.76.1A.41.41,0,0,1,138.83,16.4Zm.2-9.2-.8-3.13a.51.51,0,0,1,0-.37c0-.07.16-.09.33-.07,2.85.16,5.69.25,8.54.27s5.69,0,8.53-.06V7.13c-2.13,0-4.59,0-7.39.07s-5.69.23-8.67.43A.49.49,0,0,1,139,7.2Zm1,25.8-.3-5.95-.54-3.49c-.06-.32.07-.46.41-.44l6.18.2a.56.56,0,0,1,.57.51l.17,1V32a1.08,1.08,0,0,1-.66,1,4.53,4.53,0,0,1-1.83.35l-3.49.1A.45.45,0,0,1,140.07,33Zm1.41-21.5V8.67h13.85V11.5Zm1.42,15.12v-3l13.54-.34v3.33Zm0,6.21V29.07h13.33v3.76Zm.84-19.65,2.55.1c.92,0,1.88,0,2.89,0l3.09-.1c1,0,2.12-.11,3.19-.19l3.19-.25-4.73,1.51,4.9-2.25a.83.83,0,0,1,.84.07A6.76,6.76,0,0,1,161,13.36a11,11,0,0,1,1,1.53c.25.56.28.91.1,1.06a4.8,4.8,0,0,1-1.91.28c-1.44.05-2.82.08-4.14.1s-2.57,0-3.74,0l-3.3,0-2.82-.05-2.3-.07ZM153,11.46l.3-6.78-.91-.34L154,3.23a1,1,0,0,1,.84-.17,15.49,15.49,0,0,1,2.24.64,23,23,0,0,1,2.25,1,10.11,10.11,0,0,1,1.69,1c.25.21.27.42.07.64l-.64.71-.6,3.76a.63.63,0,0,1-.54.57l-1.8.24c-.7.09-1.41.16-2.13.22s-1.36.09-1.91.11C153.13,11.93,153,11.78,153,11.46Zm.91,11.39a.85.85,0,0,1,.8-.2c.65.14,1.36.31,2.12.52s1.5.45,2.23.71a11.46,11.46,0,0,1,1.87.82.42.42,0,0,1,.17.64c-.09.13-.21.28-.34.44a4.47,4.47,0,0,1-.44.43L159.86,32a1.14,1.14,0,0,1-.72,1,4.84,4.84,0,0,1-1.86.35l-3.26.1a.41.41,0,0,1-.47-.47V24.73l-.91-.7Z" transform="translate(-0.36 -2.49)"/><path class="cls-1" d="M167.79,26.85l-1.21-4.64a.5.5,0,0,1,0-.35c0-.05.15-.08.33-.08,1.48,0,3.09.06,4.84,0s3.53-.06,5.36-.15,3.6-.21,5.34-.34,3.31-.3,4.72-.5a.45.45,0,0,1,.37.05.5.5,0,0,1,.13.35l.17,2.82a.47.47,0,0,1-.43.54c-1.53.29-3.16.58-4.89.86s-3.47.53-5.21.77-3.38.44-4.94.62-2.91.31-4,.4A.46.46,0,0,1,167.79,26.85Zm8.33-7a10.31,10.31,0,0,1-4.58-1,7.64,7.64,0,0,1-3.13-2.69,6.92,6.92,0,0,1-1.12-3.89,7,7,0,0,1,1.12-3.93,7.64,7.64,0,0,1,3.13-2.69,10.31,10.31,0,0,1,4.58-1,10.21,10.21,0,0,1,4.57,1,7.64,7.64,0,0,1,3.11,2.69,7,7,0,0,1,1.13,3.93,6.93,6.93,0,0,1-1.13,3.89,7.64,7.64,0,0,1-3.11,2.69A10.21,10.21,0,0,1,176.12,19.9Zm0-4.14a2,2,0,0,0,1.25-.42,2.84,2.84,0,0,0,.84-1.19,5,5,0,0,0,.3-1.81,5,5,0,0,0-.3-1.82,2.9,2.9,0,0,0-.84-1.19,2,2,0,0,0-1.25-.42,2,2,0,0,0-1.24.42,2.73,2.73,0,0,0-.84,1.19,5,5,0,0,0-.3,1.82,5,5,0,0,0,.3,1.81,2.67,2.67,0,0,0,.84,1.19A2,2,0,0,0,176.12,15.76Zm11.16,17.17V6.73l-.3-3.2a.38.38,0,0,1,.43-.47h7.23c.33,0,.42.15.27.44a5.14,5.14,0,0,1-.41.77,5.08,5.08,0,0,1-.5.67v27a1.07,1.07,0,0,1-.66,1,4.56,4.56,0,0,1-1.83.35l-3.76.1A.41.41,0,0,1,187.28,32.93Z" transform="translate(-0.36 -2.49)"/><path class="cls-1" d="M208,17.44c-.14-.13-.19-.23-.17-.3s.11-.12.27-.17a17.3,17.3,0,0,0,3.68-1.66,14.93,14.93,0,0,0,3-2.35,10.17,10.17,0,0,0,2-2.88,7.59,7.59,0,0,0,.7-3.19l-.3-1.51.77-1a.75.75,0,0,1,.32-.29,1.12,1.12,0,0,1,.42,0,16.83,16.83,0,0,1,1.73.52c.69.23,1.38.5,2.09.79a17.66,17.66,0,0,1,1.83.87.66.66,0,0,1,.27.25c0,.08,0,.2-.14.36L223.63,8a9.21,9.21,0,0,1-1.19,3.84,15.8,15.8,0,0,1-2.76,3.56,19.21,19.21,0,0,1-3.84,2.91,20.07,20.07,0,0,1-4.51,1.92.85.85,0,0,1-.8-.24Zm1.71-8-1.07-3.79c-.09-.29,0-.44.33-.44h9.51l-.4,3.43-7.76,1.17A.46.46,0,0,1,209.72,9.41Zm13.54,24.16a18.58,18.58,0,0,1-5.31-.72,9.25,9.25,0,0,1-3.88-2.14,4.95,4.95,0,0,1,0-7A9.35,9.35,0,0,1,218,21.56a20,20,0,0,1,10.64,0,9.12,9.12,0,0,1,3.84,2.13,5,5,0,0,1,0,7,9,9,0,0,1-3.84,2.14A18.52,18.52,0,0,1,223.26,33.57Zm0-3.9a4.53,4.53,0,0,0,1.65-.28,2.68,2.68,0,0,0,1.17-.84,2.1,2.1,0,0,0,.44-1.36,2.15,2.15,0,0,0-.44-1.38,2.64,2.64,0,0,0-1.17-.86,4.53,4.53,0,0,0-1.65-.28,4.43,4.43,0,0,0-1.61.28,2.67,2.67,0,0,0-1.18.86,2.2,2.2,0,0,0-.43,1.38,2.15,2.15,0,0,0,.43,1.36,2.71,2.71,0,0,0,1.18.84A4.43,4.43,0,0,0,223.26,29.67Zm5.61-12.36a13.73,13.73,0,0,0-3.42.44c-1,.26-1.84.51-2.56.73a.37.37,0,0,1-.33,0,.5.5,0,0,1-.17-.33L222,14.29a.45.45,0,0,1,.06-.36.46.46,0,0,1,.35,0c.51.07,1.1.12,1.74.15s1.37.06,2.16.09,1.64,0,2.58,0Zm0-6a11.18,11.18,0,0,0-3.07.44l-2.3.7c-.29.09-.45,0-.47-.33l-.44-3.83c0-.18,0-.3.07-.36a.54.54,0,0,1,.37,0c.47.07,1,.13,1.56.17s1.21.08,1.93.09h2.35ZM227.5,20.2V6.56l-.31-3a.39.39,0,0,1,.44-.47h7.16c.33,0,.42.15.26.44a8.08,8.08,0,0,1-.43.77c-.16.25-.32.47-.47.67V19.22a1.07,1.07,0,0,1-.66,1,4.29,4.29,0,0,1-1.83.32l-3.7.1A.41.41,0,0,1,227.5,20.2Z" transform="translate(-0.36 -2.49)"/><path class="cls-1" d="M237.37,24.16c-.27-.2-.26-.39,0-.57a22.57,22.57,0,0,0,3.54-3A16.26,16.26,0,0,0,245,12.82,18.49,18.49,0,0,0,245.37,8l.07-1.21.77-1a.63.63,0,0,1,.74-.27,11.61,11.61,0,0,1,1.59.49c.64.23,1.3.49,2,.79s1.28.58,1.81.87c.16.09.25.17.27.25a.47.47,0,0,1-.13.35l-.84,1.21a15.44,15.44,0,0,1-.57,4.12,20.42,20.42,0,0,1-1.58,4,23,23,0,0,1-2.37,3.64,23.28,23.28,0,0,1-2.94,3.08,17.86,17.86,0,0,1-3.29,2.26.66.66,0,0,1-.78-.1Zm2.12-12.66L238.55,7a.65.65,0,0,1,0-.37c0-.07.16-.1.34-.1h9.27l-.4,4.06q-2.86.27-4.62.54a23.75,23.75,0,0,0-3.14.67C239.73,11.92,239.56,11.81,239.49,11.5ZM255,22a5.72,5.72,0,0,0-2,.42l-1.66.65a.45.45,0,0,1-.37,0,.49.49,0,0,1-.13-.34l-.34-4.2a.49.49,0,0,1,.05-.35.5.5,0,0,1,.36-.05,15.74,15.74,0,0,0,2,.17c.74,0,1.44,0,2.11,0Zm0-7.09a5.08,5.08,0,0,0-1.73.38l-1.52.62c-.18.07-.31.08-.37,0a.47.47,0,0,1-.14-.34L251,11.4A.44.44,0,0,1,251,11c.05-.07.17-.08.35,0q.77.11,1.8.15c.68,0,1.31,0,1.89,0Zm-1.47,17.43V7.3l-.24-3.06a.39.39,0,0,1,.44-.47h5.14a.44.44,0,0,1,.35.1c.06.07.06.19,0,.37L259,5c-.09.27-.15.49-.2.67V31.39a1.06,1.06,0,0,1-.65,1,4.34,4.34,0,0,1-1.84.32l-2.31,0A.41.41,0,0,1,253.57,32.29Zm7.05.64V6.63l-.3-3.1a.39.39,0,0,1,.44-.47h5.77c.32,0,.42.15.31.44s-.24.52-.37.76-.28.46-.44.68V32.06a1.05,1.05,0,0,1-.65,1,4.54,4.54,0,0,1-1.84.3l-2.45,0A.41.41,0,0,1,260.62,32.93Z" transform="translate(-0.36 -2.49)"/></g></g></svg>