<svg xmlns="http://www.w3.org/2000/svg" viewBox="0 0 1307.03 636.92"><defs><style>.cls-1,.cls-2{fill:none;}.cls-1{stroke:#262626;stroke-miterlimit:10;stroke-width:0.86px;}.cls-2{stroke:#fff;stroke-linecap:round;stroke-linejoin:bevel;stroke-width:0.5px;}</style></defs><g id="레이어_2" data-name="레이어 2"><g id="레이어_1-2" data-name="레이어 1"><path class="cls-1" d="M1174.73,64l-87.08,42.27-2.18,1.06-60.08,29.15-46.73,22.68-1.23.6L942.3,176.8l-29.1,14.12-.79.39-23,11.17-20.4,9.9.06,26.44.06,26.43v.8l.06,25.62.06,26.4v.8l.07,25.6.06,26.38v.8l.06,25.58.07,27.16,20.41,9.91,23,11.18.79.38L942.83,460,978,477l1.23.59,46.67,22.65,60,29.11,2.18,1,86.83,42.14,129.87,63,.06-81.13.06-76.46v-2.38l.06-78.93.06-76.64v-2.39l.06-79.11,0-76.81v-2.39l0-79.29.06-79.38ZM889.25,433.12,870,423.86,870,398.23l19.22,7Zm-.07-28.75L870,397.43l-.06-25.65,19.21,4.7Zm-.06-28.76L869.91,371l-.06-25.66,19.21,2.38Zm-.07-28.77-19.21-2.31-.06-25.66,19.21.05ZM889,318.05l-19.21,0-.06-25.67,19.21-2.27Zm-.07-28.79-19.2,2.34-.07-25.69,19.21-4.59Zm-.06-28.81-19.21,4.67-.06-25.7,19.21-6.92Zm-.07-28.82-19.2,7-.06-25.7,19.2-9.25Zm24.15,212.9-23-11.1-.06-28,23,8.41Zm-.07-31.61-23-8.32-.07-28,23,5.62Zm-.06-31.61-23-5.54-.06-28,23,2.84Zm-.07-31.63-23-2.76-.07-28,23,.07ZM912.67,318l-23,0-.06-28,23-2.72Zm-.06-31.66-23,2.81-.07-28,23-5.51Zm-.07-31.67-23,5.59-.06-28,23-8.3ZM912.48,223l-23,8.38-.06-28,23-11.1Zm29.38,235.44-28.13-13.54-.07-30.74,28.13,10.26Zm-.07-35.08-28.13-10.16-.06-30.75,28.13,6.87Zm-.07-35.1L913.6,381.5l-.07-30.77,28.13,3.47Zm-.06-35.13-28.13-3.37L913.46,319l28.13.08ZM941.59,318l-28.13,0-.06-30.8,28.13-3.32Zm-.06-35.16-28.13,3.43-.07-30.81,28.13-6.73Zm-.07-35.18-28.13,6.84-.06-30.83,28.13-10.14Zm-.07-35.19-28.13,10.24-.06-30.84,28.13-13.55Zm36.55,263.36-35.11-16.92-.07-34.14,35.12,12.81Zm-.06-39.44-35.12-12.68-.06-34.16,35.12,8.58ZM977.82,397,942.7,388.5l-.07-34.18,35.12,4.34Zm-.07-39.48-35.12-4.21-.06-34.19,35.12.1Zm-.06-39.5-35.13,0-.06-34.2,35.13-4.16Zm-.07-39.52-35.12,4.28-.07-34.23,35.13-8.4Zm-.06-39.54-35.13,8.53-.06-34.25,35.13-12.66Zm-.06-39.57-35.13,12.79-.07-34.26,35.13-16.93Zm46.75,298.8-45.08-21.71L979.11,438l45.08,16.45Zm-.06-45-45.08-16.28-.06-38.41,45.08,11Zm-.06-45-45.08-10.84L979,358.82l45.1,5.57Zm-.06-45.06L979,357.62l-.06-38.45,45.1.12Zm0-45.1-45.1,0-.06-38.47,45.1-5.33Zm-.06-45.12-45.11,5.49-.06-38.49L1023.9,229Zm-.06-45.16-45.11,11-.06-38.52,45.11-16.26Zm-.06-45.18-45.11,16.42-.07-38.54,45.13-21.73Zm62,345.33-60-28.89-.06-43.84,60,21.89Zm0-52.42-60-21.67,0-43.87,60,14.66Zm0-52.47-60-14.43-.06-43.9,60,7.42Zm0-52.5-60-7.19-.06-43.92,60,.16Zm0-52.54-60,.06-.06-43.95,60-7.1Zm-.05-52.58-60,7.32,0-44,60-14.37Zm0-52.62-60.06,14.59,0-44,60.06-21.65Zm0-52.65-60.06,21.86-.06-44,60.08-28.94Zm86.2,409.14L1088,528.84l0-51.09,83.74,30.55Zm0-62.75L1088,476.16l0-51.13,83.77,20.46Zm0-62.82-83.77-20.15,0-51.17,83.8,10.35Zm0-62.87-83.8-10,0-51.21,83.83.23Zm0-62.92-83.83.07,0-51.25,83.86-9.91Zm0-63L1087.78,265l0-51.29,83.89-20.07Zm0-63-83.89,20.38,0-51.33,83.92-30.24Zm0-63.1-83.92,30.55,0-51.36,83.95-40.44Zm128.24,502.21-125-60.21V509.44l125.09,45.63Zm.06-78.17-125.09-45.18V446.25L1300,476.82Zm0-78.25-125.15-30.11,0-61.34L1300,398.48Zm.06-78.35-125.23-15V319.7l125.29.35Zm0-78.43-125.29.11V256.34l125.36-14.81Zm.06-78.52-125.36,15.27,0-61.51,125.43-30Zm0-78.62L1174.75,191V129.45l125.5-45.23Zm.06-78.7-125.5,45.69V65.91L1300.29,5.43Z"/><path class="cls-1" d="M816.92,212.14h-381V424.39H871.12V212.14ZM490.11,423.59H437.55V398h52.56Zm0-26.43H437.55V371.53h52.56Zm0-26.43H437.55V345.1h52.56Zm0-26.43H437.55V318.66h52.56Zm0-26.43H437.55V292.23h52.56Zm0-26.44H437.55V265.8h52.56Zm0-26.43H437.55V239.37h52.56Zm0-26.43H437.55V212.94h52.56Zm54.19,185H491.74V398H544.3Zm0-26.43H491.74V371.53H544.3Zm0-26.43H491.74V345.1H544.3Zm0-26.43H491.74V318.66H544.3Zm0-26.43H491.74V292.23H544.3Zm0-26.44H491.74V265.8H544.3Zm0-26.43H491.74V239.37H544.3Zm0-26.43H491.74V212.94H544.3Zm54.2,185H545.94V398H598.5Zm0-26.43H545.94V371.53H598.5Zm0-26.43H545.94V345.1H598.5Zm0-26.43H545.94V318.66H598.5Zm0-26.43H545.94V292.23H598.5Zm0-26.44H545.94V265.8H598.5Zm0-26.43H545.94V239.37H598.5Zm0-26.43H545.94V212.94H598.5Zm54.2,185H600.14V398H652.7Zm0-26.43H600.14V371.53H652.7Zm0-26.43H600.14V345.1H652.7Zm0-26.43H600.14V318.66H652.7Zm0-26.43H600.14V292.23H652.7Zm0-26.44H600.14V265.8H652.7Zm0-26.43H600.14V239.37H652.7Zm0-26.43H600.14V212.94H652.7Zm54.19,185H654.33V398h52.56Zm0-26.43H654.33V371.53h52.56Zm0-26.43H654.33V345.1h52.56Zm0-26.43H654.33V318.66h52.56Zm0-26.43H654.33V292.23h52.56Zm0-26.44H654.33V265.8h52.56Zm0-26.43H654.33V239.37h52.56Zm0-26.43H654.33V212.94h52.56Zm54.2,185H708.53V398h52.56Zm0-26.43H708.53V371.53h52.56Zm0-26.43H708.53V345.1h52.56Zm0-26.43H708.53V318.66h52.56Zm0-26.43H708.53V292.23h52.56Zm0-26.44H708.53V265.8h52.56Zm0-26.43H708.53V239.37h52.56Zm0-26.43H708.53V212.94h52.56Zm54.2,185H762.72V398h52.57Zm0-26.43H762.72V371.53h52.57Zm0-26.43H762.72V345.1h52.57Zm0-26.43H762.72V318.66h52.57Zm0-26.43H762.72V292.23h52.57Zm0-26.44H762.72V265.8h52.57Zm0-26.43H762.72V239.37h52.57Zm0-26.43H762.72V212.94h52.57Zm54.19,185H816.92V398h52.56Zm0-26.43H816.92V371.53h52.56Zm0-26.43H816.92V345.1h52.56Zm0-26.43H816.92V318.66h52.56Zm0-26.43H816.92V292.23h52.56Zm0-26.44H816.92V265.8h52.56Zm0-26.43H816.92V239.37h52.56Zm0-26.43H816.92V212.94h52.56Z"/><path class="cls-1" d="M816.92,423.59h-381l-19.68,9.63-23.6,11.54-.78.38-28,13.7-36,17.59-1.22.6-44.93,22-61.39,30-2.17,1.06-83.51,40.84L1.86,635.84H1305.17l-132.78-64.92-83.51-40.84-2.17-1.06-61.39-30-44.93-22-1.23-.6-36-17.59-28-13.7-.78-.38-23.6-11.54-19.68-9.63ZM167.8,633.47H11.57l123.87-61H261.53Zm96.07-62.55H138.54l82.88-40.84H326.58ZM328.21,529H223.57l59.35-29.24h90.19Zm46.1-30h-89.8l44.59-22h78.95ZM409,476.43H330.31L365,459.32h70.21Zm27-17.59H366l27.81-13.7H457Zm21.64-14.08h-63l22.78-11.23h57.47Zm17.72-11.54H418l19-9.36h52.7ZM328.89,633.47H172.66l92.79-61H391.54Zm64.21-62.55H267.77l62.08-40.84H435Zm43-41.9H331.47l44.45-29.24h90.19Zm30.81-30h-89.8l33.4-22h78.95Zm23.17-22.57H411.42l26-17.11h70.21Zm18.05-17.59h-70L459,445.14h63.21Zm14.45-14.08h-63l17.06-11.23H534.1Zm11.85-11.54H477.11l14.23-9.36H544ZM490,633.47H333.76l61.7-61H521.54Zm32.34-62.55H397l41.29-40.84H543.45ZM544,529H439.36l29.56-29.24h90.19Zm15.53-30H469.71l22.21-22h78.95Zm11.66-22.57H492.53l17.29-17.11H580Zm9.1-17.59h-70l13.86-13.7h63.2Zm7.28-14.08h-63l11.35-11.23h57.47Zm6-11.54H536.21l9.46-9.36h52.69Zm57.56,200.25H494.85l30.62-61H651.55Zm.48-62.55H526.23l20.49-40.84H651.88Zm.33-41.9H547.25l14.67-29.24h90.19Zm.23-30H562.31l11-22h79Zm.17-22.57H573.63l8.58-17.11h70.21Zm.14-17.59h-70l6.88-13.7h63.2Zm.1-14.08h-63l5.63-11.23h57.47Zm.09-11.54H595.31l4.69-9.36h52.69ZM812.18,633.47H655.94l-.46-61H781.56ZM780.8,570.92H655.46l-.31-40.84H760.31Zm-21-41.9H655.14l-.22-29.24h90.19Zm-15.06-30H654.91l-.17-22h79ZM733.4,476.43H654.74l-.13-17.11h70.2Zm-8.82-17.59h-70l-.1-13.7h63.2Zm-7.07-14.08h-63l-.08-11.23h57.47Zm-5.79-11.54H654.41l-.08-9.36H707ZM973.27,633.47H817l-31.56-61H911.57ZM910,570.92H784.7l-21.12-40.84H868.74ZM867.67,529H763l-15.11-29.24h90.19Zm-30.35-30H747.51l-11.36-22h79ZM814.5,476.43H735.84L727,459.32h70.21Zm-17.77-17.59h-70l-7.08-13.7h63.2Zm-14.25-14.08h-63l-5.8-11.23h57.47Zm-11.66-11.54H713.5l-4.83-9.36h52.69Zm363.55,200.25H978.13l-62.64-61h126.09Zm-95.11-62.55H913.93L872,530.08H977.18ZM975.56,529H870.93l-30-29.24h90.19Zm-45.64-30H840.11l-22.54-22h78.95Zm-34.31-22.57H817l-17.56-17.11H869.6Zm-26.73-17.59h-70l-14.06-13.7H848Zm-21.42-14.08h-63l-11.52-11.23H830.4Zm-17.54-11.54H772.6l-9.6-9.36h52.69Zm465.54,200.25H1139.23l-93.73-61h126.08Zm-127-62.55H1043.16l-62.71-40.84h105.16Zm-85-41.9H978.82l-44.91-29.24h90.2Zm-60.94-30h-89.8L899,477h78.95Zm-45.8-22.57H898.06l-26.28-17.11H942ZM941,458.84h-70l-21-13.7h63.2Zm-28.59-14.08h-63l-17.23-11.23h57.47ZM889,433.22H831.7l-14.37-9.36H870Z"/><path class="cls-1" d="M1142.87.69H1.86l129.66,63.4,86.63,42.36,2.17,1.06,59.79,29.24,46.53,22.75,1.22.6,35,17.11,29,14.18.78.38L415.58,203l20.33,9.94H871.12L891.45,203l22.95-11.23.78-.38,29-14.18,35-17.11,1.23-.6,46.52-22.75,59.8-29.24,2.17-1.06,86.63-42.36L1305.17.69Zm-653.17,212H437l-19-9.36h57.32ZM474.84,203H417.37l-22.78-11.23h63ZM457,191.39H393.81L366,177.69h70Zm-21.77-14.18H365L330.31,160.1H409Zm-27.2-17.71H329.1l-44.59-22h89.8Zm-34.94-22.75H282.92l-59.35-29.24H328.21Zm-46.53-30.3H221.42L138.53,65.61H263.87ZM261.53,64.09H135.44L11.57,3.06H167.8ZM544,212.67H491.34l-14.23-9.36h57.32ZM534.1,203H476.63l-17.06-11.23h63Zm-11.91-11.61H459l-20.83-13.7h70Zm-14.55-14.18H437.43l-26-17.11h78.66ZM489.46,159.5H410.51l-33.4-22h89.8Zm-23.35-22.75H375.92l-44.46-29.24H436.1ZM435,106.45H329.85L267.77,65.61H393.1ZM391.54,64.09H265.45l-92.79-61H328.89ZM598.36,212.67H545.67l-9.46-9.36h57.31Zm-5-9.67H535.89l-11.35-11.23h63Zm-6-11.61h-63.2l-13.86-13.7h70ZM580,177.21H509.82L492.53,160.1h78.65Zm-9.16-17.71H491.92l-22.21-22h89.81Zm-11.76-22.75H468.92l-29.56-29.24H544Zm-15.66-30.3H438.28L397,65.61H522.33ZM521.54,64.09H395.46l-61.7-61H490ZM652.69,212.67H600l-4.69-9.36h57.31Zm-.07-9.67H595.15l-5.63-11.23h63Zm-.09-11.61h-63.2l-6.88-13.7h70Zm-.11-14.18H582.21l-8.58-17.11h78.66Zm-.13-17.71h-79l-11-22h89.81Zm-.18-22.75H561.92l-14.67-29.24H651.89Zm-.23-30.3H546.72L526.23,65.61H651.56Zm-.33-42.36H525.47l-30.62-61H651.08ZM707,212.67h-52.7l.08-9.36h57.31Zm4.85-9.67H654.41l.08-11.23h63Zm5.82-11.61H654.5l.1-13.7h70Zm7.11-14.18h-70.2l.13-17.11H733.4Zm8.89-17.71h-79l.17-22h89.81Zm11.41-22.75H654.92l.22-29.24H759.78Zm15.2-30.3H655.15l.31-40.84H780.8Zm21.25-42.36H655.48l.46-61H812.18Zm-20.2,148.58H708.67l4.83-9.36h57.32Zm9.78-9.67H713.67l5.8-11.23h63Zm11.73-11.61h-63.2l7.08-13.7h70Zm14.34-14.18H727l8.84-17.11H814.5Zm17.9-17.71h-79l11.36-22h89.81Zm23-22.75H747.92L763,107.51H867.67Zm30.63-30.3H763.58L784.7,65.61H910Zm42.83-42.36H785.48L817,3.06H973.27ZM815.69,212.67H763l9.6-9.36h57.32ZM830.4,203H772.93l11.52-11.23h63ZM848,191.39h-63.2l14.06-13.7h70Zm21.56-14.18H799.39L817,160.1h78.66Zm26.92-17.71H817.57l22.54-22h89.81Zm34.59-22.75H840.92l30-29.24H975.56Zm46.07-30.3H872l41.91-40.84h125.33Zm64.4-42.36H915.49l62.64-61h156.24ZM870,212.67H817.33l14.37-9.36H889ZM889.66,203H832.19l17.23-11.23h63Zm23.56-11.61H850l21-13.7h70ZM942,177.21H871.78l26.28-17.11h78.66Zm35.94-17.71H899l33.74-22h89.8Zm46.18-22.75H933.92l44.9-29.24h104.64Zm61.5-30.3H980.45l62.71-40.84h125.33Zm86-42.36H1045.5l93.73-61h156.23Z"/><path class="cls-1" d="M417.33,202.74l-23.66-11.51-.79-.38-28.1-13.67-36.06-17.53-1.23-.6-45.05-21.91L220.88,107.2l-2.17-1L135,65.43,1.86.69V636.23L135,571.5l83.73-40.72,2.17-1.06,61.56-29.94,45.05-21.91,1.23-.59,36.06-17.54,28.1-13.67.79-.38,23.66-11.51,19.73-9.59V212.34ZM131.85,571.1,6.72,631.5V555.31l125.13-45.69Zm0-63.4L6.72,552.94V476.76l125.13-30.54Zm0-63.4L6.72,474.39V398.2l125.13-15.38Zm0-63.4L6.72,395.83V319.65l125.13-.23Zm0-63.4L6.72,317.28V241.09L131.85,256Zm0-63.4L6.72,238.72V162.53l125.13,30.09Zm0-63.4L6.72,160.16V84l125.13,45.24Zm0-63.39L6.72,81.61V5.42l125.13,60.4Zm86.86,401.87L135,569.59V508.47l83.73-30.57Zm0-52.88L135,506.57V445.45L218.71,425Zm0-52.88L135,443.55V382.43l83.73-10.29Zm0-52.88-83.73,10V319.41l83.73-.15Zm0-52.88L135,317.51V256.39l83.73,10Zm0-52.88L135,254.49V193.37l83.73,20.13Zm0-52.88L135,191.47V130.35l83.73,30.27Zm0-52.88L135,128.45V67.33l83.73,40.41Zm62.13,340.17-60,28.94v-51l60-21.89Zm0-45.35-60,21.67v-51l60-14.64Zm0-45.36-60,14.42v-51l60-7.37Zm0-45.35-60,7.15v-51l60-.1Zm0-45.35-60-.11v-51l60,7.15Zm0-45.36-60-7.37V214l60,14.42Zm0-45.35-60-14.64v-51l60,21.67Zm0-45.36-60-21.89v-51l60,28.94Zm46.65,295-45.05,21.75v-43.8l45.05-16.45Zm0-39.7-45.05,16.29v-43.8l45.05-11Zm0-39.7L282.44,408.1V364.3l45.05-5.54Zm0-39.71-45.05,5.38v-43.8l45.05-.08Zm0-39.7-45.05-.08V274l45.05,5.38Zm0-39.7-45.05-5.54v-43.8l45.05,10.83Zm0-39.7-45.05-11v-43.8L327.49,200Zm0-39.71L282.44,182.3V138.5l45.05,21.75Zm36.32,260.4-35.09,16.93V437.72l35.09-12.81Zm0-35.31-35.09,12.69V398.17l35.09-8.57Zm0-35.3L328.72,397V358.61l35.09-4.31Zm0-35.31-35.09,4.19V319.06l35.09-.07Zm0-35.3-35.09-.07V279.5l35.09,4.19Zm0-35.31-35.09-4.31V240l35.09,8.43Zm0-35.3-35.09-8.57V200.39l35.09,12.69Zm0-35.31L328.72,199.2V160.84l35.09,16.93Zm29.07,233.11-28.1,13.56V424.55l28.1-10.26Zm0-31.79-28.1,10.16V389.37l28.1-6.86Zm0-31.78-28.1,6.75V354.18l28.1-3.46Zm0-31.79-28.1,3.36V319l28.1-.05Zm0-31.78-28.1-.05V283.8l28.1,3.36Zm0-31.78-28.1-3.46V248.62l28.1,6.75Zm0-31.79-28.1-6.85V213.43l28.1,10.16Zm0-31.78-28.1-10.26V178.24l28.1,13.57Zm23.8,211-23,11.11V414l23-8.4Zm0-28.9-23,8.32V382.31l23-5.61Zm0-28.9-23,5.53V350.63l23-2.83Zm0-28.9-23,2.74V318.94l23,0Zm0-28.91-23,0V287.25l23,2.75Zm0-28.9-23-2.83V255.56l23,5.53Zm0-28.9-23-5.61V223.87l23,8.32Zm0-28.9-23-8.4V192.19l23,11.1Zm19.84,192.73-19.19,9.26V405.36l19.19-7Zm0-26.5-19.19,6.94V376.54l19.19-4.68Zm0-26.49-19.19,4.61V347.72l19.19-2.36Zm0-26.5-19.19,2.29v-28l19.19,0Zm0-26.5-19.19,0v-28l19.19,2.29Zm0-26.5-19.19-2.36V261.25l19.19,4.61Zm0-26.5-19.19-4.68V232.43l19.19,6.94Zm0-26.49-19.19-7V203.61l19.19,9.26Z"/><path class="cls-2" d="M134.15,63.52,79.7,36.06l14.51-4.78a1.5,1.5,0,1,0-.94-2.85l-18,5.91a1.5,1.5,0,0,0-1,1.9l5.91,17.95a1.5,1.5,0,1,0,2.85-.94L78.34,38.73,132.8,66.2a1.49,1.49,0,0,0,1.15.09,1.5,1.5,0,0,0,.2-2.77Z"/><path class="cls-2" d="M1172.44,63.52l54.44-27.46-14.5-4.78a1.5,1.5,0,1,1,.94-2.85l18,5.91a1.51,1.51,0,0,1,1,1.9l-5.92,17.95a1.5,1.5,0,1,1-2.85-.94l4.79-14.52L1173.79,66.2a1.49,1.49,0,0,1-1.15.09,1.5,1.5,0,0,1-.2-2.77Z"/><path class="cls-2" d="M1172.44,573l54.44,27.47-14.5,4.78a1.49,1.49,0,0,0-1,1.89,1.51,1.51,0,0,0,1.9,1l18-5.92a1.51,1.51,0,0,0,1-1.89l-5.92-18a1.5,1.5,0,0,0-2.85.94l4.79,14.53-54.46-27.48a1.54,1.54,0,0,0-1.15-.08,1.52,1.52,0,0,0-.87.75A1.5,1.5,0,0,0,1172.44,573Z"/><path class="cls-2" d="M131,573.75,76.58,601.22,91.09,606a1.5,1.5,0,0,1-.94,2.85l-18-5.92a1.49,1.49,0,0,1-1-1.89l5.91-17.95A1.5,1.5,0,1,1,80,584l-4.78,14.52,54.46-27.47a1.5,1.5,0,0,1,1.35,2.67Z"/></g></g></svg>