<svg xmlns="http://www.w3.org/2000/svg" viewBox="0 0 109.4 836.65"><defs><style>.cls-1{fill:none;stroke:#ff2727;stroke-miterlimit:10;}.cls-2{fill:#ff2727;}</style></defs><g id="레이어_2" data-name="레이어 2"><g id="레이어_1-2" data-name="레이어 1"><path class="cls-1" d="M60,836.15H49.35A48.91,48.91,0,0,1,.5,787.3V49.35A48.91,48.91,0,0,1,49.35.5H60A48.92,48.92,0,0,1,108.9,49.35V787.3A48.91,48.91,0,0,1,60,836.15ZM49.35,6.5A42.9,42.9,0,0,0,6.5,49.35V787.3a42.9,42.9,0,0,0,42.85,42.85H60A42.9,42.9,0,0,0,102.9,787.3V49.35A42.9,42.9,0,0,0,60,6.5Z"/><polygon class="cls-2" points="30.16 66.62 18.52 65.72 30.16 64.81 31.06 53.18 31.97 64.81 43.6 65.71 31.97 66.62 31.07 78.26 30.16 66.62"/><polygon class="cls-2" points="72.93 127.91 61.3 127 72.93 126.1 73.83 114.46 74.74 126.1 86.38 127 74.74 127.91 73.84 139.54 72.93 127.91"/><polygon class="cls-2" points="72.93 314.57 61.3 313.67 72.93 312.76 73.83 301.13 74.74 312.76 86.38 313.66 74.74 314.57 73.84 326.21 72.93 314.57"/><polygon class="cls-2" points="72.93 520.24 61.3 519.34 72.93 518.43 73.83 506.8 74.74 518.43 86.38 519.33 74.74 520.24 73.84 531.88 72.93 520.24"/><polygon class="cls-2" points="72.93 706.9 61.3 706 72.93 705.1 73.83 693.46 74.74 705.1 86.38 706 74.74 706.9 73.84 718.54 72.93 706.9"/><polygon class="cls-2" points="30.16 223.58 18.52 222.68 30.16 221.77 31.06 210.14 31.97 221.77 43.6 222.68 31.97 223.58 31.07 235.22 30.16 223.58"/><polygon class="cls-2" points="30.16 465.98 18.52 465.07 30.16 464.17 31.06 452.53 31.97 464.17 43.6 465.07 31.97 465.98 31.07 477.61 30.16 465.98"/><polygon class="cls-2" points="30.16 750.65 18.52 749.75 30.16 748.84 31.06 737.21 31.97 748.84 43.6 749.75 31.97 750.65 31.07 762.29 30.16 750.65"/><text/><path class="cls-2" d="M37.92,120.34v1.11l-8.27,2.93-3.1,1.13v.08c1,.37,2.08.71,3.1,1.07l8.27,3v1.11H24.21V130h9.48c1.07,0,2.47,0,3.59.07V130l-3-1.06-8.51-3.08v-.74l8.51-3.1,3-1.07v-.08c-1.12.06-2.52.1-3.59.1H24.21v-.66Z"/><path class="cls-2" d="M37.92,135v7.36H37.3V135.7H31.84v5.59h-.63V135.7H24.83v6.87h-.62V135Z"/><path class="cls-2" d="M37.92,145.73v.73l-10,6-2.7,1.57v.09c1.32-.07,2.58-.11,3.87-.11h8.82v.68H24.21V154l10-6,2.7-1.57v-.08c-1.28,0-2.46.08-3.76.08H24.21v-.66Z"/><path class="cls-2" d="M29.34,159h8.58v.7H29.49c-3.75,0-4.87,1.82-4.87,3.8s1.12,3.87,4.87,3.87h8.43V168H29.34c-4.25,0-5.38-2.32-5.38-4.55S25.09,159,29.34,159Z"/><path class="cls-2" d="M80.69,54.24v.7H74.61v7.63h6.08v.72H67v-.72h7V54.94H67v-.7Z"/><path class="cls-2" d="M73.87,66.64c4.33,0,7.07,2.32,7.07,5.57s-2.74,5.57-7.07,5.57-7.14-2.32-7.14-5.57S69.55,66.64,73.87,66.64Zm0,10.41c3.93,0,6.41-2,6.41-4.84s-2.48-4.83-6.41-4.83-6.48,1.94-6.48,4.83S69.94,77.05,73.87,77.05Z"/><path class="cls-2" d="M80.69,81.15v1.11l-8.27,2.93-3.1,1.13v.08c1,.38,2.08.72,3.1,1.08l8.27,2.94v1.12H67v-.7h9.48c1.08,0,2.48,0,3.59.07v-.07l-3-1.06L68.51,86.7V86L77,82.87l3-1.08v-.08c-1.11.06-2.51.1-3.59.1H67v-.66Z"/><path class="cls-2" d="M80.69,95.81v7.37h-.62V96.51H74.61v5.59H74V96.51H67.6v6.87H67V95.81Z"/><path class="cls-2" d="M74.1,158.08v3.5h5.33v5.57H68.21v-5.57h5.27v-3.5H66.24v-.56h5.5a27.2,27.2,0,0,0,.68-5.33H67.85v-.57H73v0a27.23,27.23,0,0,1-.66,5.88h6a26.12,26.12,0,0,0,.6-5.33H74.53v-.57h5v.27a27.39,27.39,0,0,1-.57,5.63h2.4v.56Zm4.72,4h-10v4.45h10Z"/><path class="cls-2" d="M70.77,181.83c2-.07,4.12-.21,6-.43l.06.49a79.5,79.5,0,0,1-10.64.62l-.15-.6c1.23,0,2.63,0,4.08-.06V176.5h.62ZM74.14,179a39.37,39.37,0,0,0,.54-6.65H67.07v-.57h8.22v.42a44.14,44.14,0,0,1-.51,6.86Zm7.67-1.38h-3.1v8.84h-.63V169.76h.63V177h3.1Z"/><path class="cls-2" d="M75.78,195.94H66.26v-.56h4.48v-2.32h.62v2.32h4.42ZM71,203.39c-2.19,0-3.65-1.23-3.65-3.12s1.46-3.08,3.65-3.08,3.61,1.19,3.61,3.08S73.19,203.39,71,203.39Zm0-.55c1.79,0,3-1.1,3-2.57s-1.21-2.53-3-2.53-3,1.08-3,2.53S69.21,202.84,71,202.84Zm9.12,5.86v.56H69.36v-4.62H70v4.06ZM79.1,197.78v-4.72h.63v12.73H79.1v-4H75.61v-.56H79.1v-2.86H75.61v-.56Z"/><path class="cls-2" d="M75.84,220.17a7.86,7.86,0,0,1-4.48-4.59,8,8,0,0,1-4.42,4.93l-.36-.51c2.21-.91,4.48-3.27,4.48-6.09v-1.28h.58v1.28c0,2.67,2.35,4.9,4.56,5.75Zm4.59,7.72v.57H69.36v-3.69h9.76v-2.36H69.3v-.56H79.73v3.49H70v2.55Zm-.72-7h-.62V212h.62Z"/><path class="cls-2" d="M66.37,243.2a73.23,73.23,0,0,0,11.24-.61l.08.49a62.8,62.8,0,0,1-11.19.72ZM76,236.11c0,2.25-1.75,3.74-4.32,3.74s-4.35-1.49-4.35-3.74,1.76-3.74,4.35-3.74S76,233.86,76,236.11Zm-8.06,0c0,1.8,1.55,3.17,3.74,3.17s3.72-1.37,3.72-3.17-1.55-3.17-3.72-3.17S68,234.3,68,236.11Zm11.52-5.06v16.68h-.62V231.05Z"/><path class="cls-2" d="M74.23,258.42c-1.11,2.71-3.91,4.78-7.35,5.92l-.32-.53c4.14-1.32,7.31-4,7.54-7.54H67.37v-.57h7.41a6.69,6.69,0,0,1-.34,2.16H79.1v-3.52h.63v10.38H79.1V261.9H74v-.57h5.1v-2.91Zm5.57,9.49c0,1.9-2,3-5.38,3s-5.4-1.12-5.4-3,2-3,5.4-3S79.8,266,79.8,267.91Zm-.6,0c0-1.5-1.93-2.48-4.78-2.48s-4.8,1-4.8,2.48,1.93,2.47,4.8,2.47S79.2,269.4,79.2,267.91Z"/><path class="cls-2" d="M76.37,273.84H77v15.21h-.62V283H72.59v-.57h3.78v-3.63H72.85a13.12,13.12,0,0,1-5.95,7.5l-.41-.49a12.16,12.16,0,0,0,6.19-9.61H67v-.57h6.33a11,11,0,0,1-.33,2.61h3.39Zm3.87-.51V290h-.63V273.33Z"/><path class="cls-2" d="M71.28,342.6c0,2.88,2.59,5.93,4.63,7l-.41.49a10.3,10.3,0,0,1-4.5-5.75,10.7,10.7,0,0,1-4.44,6.09l-.41-.49c2-1.12,4.55-4.31,4.55-7.31V339h.58Zm10.6,2.49H78.82v9H78.2V337.42h.62v7.1h3.06Z"/><path class="cls-2" d="M76.38,364.7a49.6,49.6,0,0,1-8,.56H67.11V360.9h6.74V358h-6.8v-.56h7.41v4.06H67.71v3.23h.63a46.67,46.67,0,0,0,8-.59Zm-7.51,2.62H79v5.52H68.87Zm.6,4.95h8.94v-4.4H69.47Zm12.28-10.65H79v4.78h-.62v-10H79v4.61h2.74Z"/><path class="cls-2" d="M70.77,387.5c2-.07,4.12-.21,6-.43l.06.49a79.5,79.5,0,0,1-10.64.62l-.15-.6c1.23,0,2.63,0,4.08-.06v-5.35h.62Zm3.37-2.85a39.37,39.37,0,0,0,.54-6.65H67.07v-.57h8.22v.42a44.14,44.14,0,0,1-.51,6.86Zm7.67-1.38h-3.1v8.84h-.63V375.43h.63v7.24h3.1Z"/><path class="cls-2" d="M71.28,403.88c0,2.89,2.59,5.93,4.63,7l-.41.49A10.28,10.28,0,0,1,71,405.6a10.64,10.64,0,0,1-4.44,6.08l-.41-.49c2-1.11,4.55-4.3,4.55-7.31v-3.57h.58Zm10.6,2.5H78.82v9H78.2V398.71h.62v7.1h3.06Z"/><path class="cls-2" d="M76.38,426a49.6,49.6,0,0,1-8,.56H67.11v-4.36h6.74v-2.93h-6.8v-.57h7.41v4.07H67.71V426h.63a46.67,46.67,0,0,0,8-.59Zm-7.51,2.62H79v5.52H68.87Zm.6,4.95h8.94v-4.4H69.47Zm12.28-10.65H79v4.78h-.62v-10H79v4.61h2.74Z"/><path class="cls-2" d="M66.37,448.87a73.23,73.23,0,0,0,11.24-.61l.08.49a62.8,62.8,0,0,1-11.19.72ZM76,441.78c0,2.25-1.75,3.74-4.32,3.74s-4.35-1.49-4.35-3.74S69.13,438,71.72,438,76,439.53,76,441.78Zm-8.06,0c0,1.8,1.55,3.17,3.74,3.17s3.72-1.37,3.72-3.17-1.55-3.17-3.72-3.17S68,440,68,441.78Zm11.52-5.06V453.4h-.62V436.72Z"/><path class="cls-2" d="M74.23,464.09c-1.11,2.71-3.91,4.78-7.35,5.92l-.32-.53c4.14-1.32,7.31-4,7.54-7.54H67.37v-.57h7.41a6.69,6.69,0,0,1-.34,2.16H79.1V460h.63v10.38H79.1v-2.82H74V467h5.1v-2.91Zm5.57,9.49c0,1.9-2,3-5.38,3s-5.4-1.12-5.4-3,2-3,5.4-3S79.8,471.67,79.8,473.58Zm-.6,0c0-1.49-1.93-2.48-4.78-2.48s-4.8,1-4.8,2.48,1.93,2.47,4.8,2.47S79.2,475.07,79.2,473.58Z"/><path class="cls-2" d="M76.37,479.51H77v15.21h-.62v-6.08H72.59v-.57h3.78v-3.63H72.85a13.12,13.12,0,0,1-5.95,7.5l-.41-.49a12.16,12.16,0,0,0,6.19-9.61H67v-.57h6.33a11,11,0,0,1-.33,2.61h3.39Zm3.87-.51v16.68h-.63V479Z"/><path class="cls-2" d="M75.33,551.21A7.21,7.21,0,0,1,71,547a7.37,7.37,0,0,1-4.38,4.8l-.34-.53a6.59,6.59,0,0,0,4.42-5.9v-1.66h.58v1.66c0,2.5,2.16,4.52,4.39,5.29ZM68.68,559a22.39,22.39,0,0,0,4.68-.32l.1.57a23.7,23.7,0,0,1-4.78.32H67.9v-3.72h4.4v-2.23H67.85v-.57h5.06v3.37h-4.4V559Zm5.4-6H79v6.52H74.08Zm.61,6h3.72v-5.42H74.69Zm7-11.35H79V552h-.62v-8.92H79v4h2.72Z"/><path class="cls-2" d="M70.77,574.17c2-.08,4.12-.21,6-.44l.06.49a79.51,79.51,0,0,1-10.64.63l-.15-.61c1.23,0,2.63,0,4.08-.06v-5.34h.62Zm3.37-2.86a39.67,39.67,0,0,0,.55-6.65H67.07v-.56h8.22v.41a44.14,44.14,0,0,1-.51,6.86Zm7.67-1.38h-3.1v8.84h-.63V562.09h.63v7.24h3.1Z"/><path class="cls-2" d="M74.1,594v2.76h5.31v5.31h-.63v-4.74H67.94v-.57H73.5V594H66.28v-.56H81.41V594Zm-6.78-2.55c2.28-.32,6.18-1.83,6.18-4.34v-.4H67.68v-.56H80v.56H74.12v.4c0,2.49,3.87,4,6.16,4.34L80,592c-2.21-.37-5.33-1.58-6.23-3.7-.87,2.13-4,3.33-6.22,3.7Z"/><path class="cls-2" d="M81.32,612.82v.57H66.26v-.57Zm-1.86-5c0,1.93-2.15,3-5.68,3s-5.69-1.11-5.69-3,2.16-3,5.69-3S79.46,605.93,79.46,607.85Zm0,7.65v5.29H68.21V615.5Zm-10.71-7.65c0,1.51,2,2.5,5.06,2.5s5.06-1,5.06-2.5-2-2.49-5.06-2.49S68.72,606.34,68.72,607.85Zm.09,8.2v4.18h10v-4.18Z"/><path class="cls-2" d="M66.37,635.53a74.44,74.44,0,0,0,11.24-.6l.08.49a63.62,63.62,0,0,1-11.18.71ZM76,628.45c0,2.24-1.75,3.74-4.32,3.74s-4.34-1.5-4.34-3.74,1.75-3.74,4.34-3.74S76,626.2,76,628.45Zm-8.06,0c0,1.79,1.55,3.17,3.74,3.17s3.72-1.38,3.72-3.17-1.55-3.18-3.72-3.18S68,626.63,68,628.45Zm11.52-5.07v16.68h-.62V623.38Z"/><path class="cls-2" d="M74.23,650.76c-1.11,2.7-3.91,4.78-7.35,5.91l-.32-.53c4.14-1.32,7.31-4,7.54-7.54H67.38V648h7.4a6.68,6.68,0,0,1-.34,2.15h4.67v-3.51h.62v10.37h-.62v-2.82H74v-.56h5.11v-2.91Zm5.57,9.48c0,1.91-2,3-5.38,3s-5.4-1.11-5.4-3,2-3,5.4-3S79.8,658.33,79.8,660.24Zm-.6,0c0-1.49-1.93-2.47-4.78-2.47s-4.8,1-4.8,2.47,1.93,2.48,4.8,2.48S79.2,661.73,79.2,660.24Z"/><path class="cls-2" d="M76.37,666.18H77v15.2h-.62V675.3H72.59v-.57h3.78v-3.62H72.85a13.16,13.16,0,0,1-5.95,7.5l-.41-.5a12.15,12.15,0,0,0,6.19-9.61H67v-.57h6.33a11.51,11.51,0,0,1-.32,2.61h3.38Zm3.87-.51v16.68h-.62V665.67Z"/><path class="cls-2" d="M38.54,284.14v.56h-15v-.56H30.7v-1.59c-3.38-.06-5.38-1.11-5.38-2.95s2.13-2.92,5.69-2.92,5.68,1.05,5.68,2.92-2,2.89-5.36,2.95v1.59Zm-12.48,8.12a25.52,25.52,0,0,0,5.06-.34l.11.57a25.46,25.46,0,0,1-5.17.36h-.82V289.2h4.41v-2.14H25.19v-.56h5.06v3.27h-4.4v2.49ZM31,282c3.06,0,5.08-.92,5.08-2.4s-2-2.38-5.06-2.38-5.07.93-5.07,2.38S28,282,31,282Zm3.6,5.39h3.16V288H30.91v-.56H34v-1.57h.62ZM37,290.92c0,1.32-1.16,2.11-2.67,2.11s-2.62-.79-2.62-2.11,1.13-2.1,2.62-2.1S37,289.61,37,290.92Zm-.59,0c0-.93-.81-1.57-2.08-1.57s-2,.64-2,1.57.82,1.59,2,1.59S36.37,291.84,36.37,290.92Z"/><path class="cls-2" d="M38.54,308.87v.56h-15v-.56h6.38v-6.2h.63v6.2ZM35.77,298H25.13v-.57H36.39v1.7a38.06,38.06,0,0,1-.57,7.44l-.64-.11a35.48,35.48,0,0,0,.59-7.33Z"/><path class="cls-2" d="M38.54,327.85v.57h-15v-.57ZM35.77,317H25.23v-.57H36.37v1.34a42,42,0,0,1-.68,8.2l-.62-.11a39.16,39.16,0,0,0,.7-8.09Z"/><path class="cls-2" d="M38.58,342.25v.57H23.47v-.57Zm-2.64-7.73H25.45V334H36.54v3.42H26.11v2.34H36.94v.56H25.51v-3.45H35.94Zm-10.3,10.34H36.48v5H25.64Zm.61,4.44h9.63v-3.9H26.25Z"/><path class="cls-2" d="M23.6,364.6a74.44,74.44,0,0,0,11.24-.6l.08.49a63.73,63.73,0,0,1-11.19.71Zm9.67-7.08c0,2.24-1.75,3.74-4.32,3.74s-4.35-1.5-4.35-3.74,1.76-3.74,4.35-3.74S33.27,355.27,33.27,357.52Zm-8.06,0c0,1.79,1.55,3.17,3.74,3.17s3.72-1.38,3.72-3.17-1.55-3.18-3.72-3.18S25.21,355.7,25.21,357.52Zm11.52-5.07v16.68h-.62V352.45Z"/><path class="cls-2" d="M31.46,379.83c-1.12,2.7-3.91,4.78-7.35,5.91l-.32-.53c4.14-1.32,7.31-4,7.54-7.53H24.6v-.57H32a7,7,0,0,1-.34,2.15h4.66v-3.51H37v10.37h-.63v-2.81h-5.1v-.57h5.1v-2.91ZM37,389.31c0,1.91-2,3-5.38,3s-5.4-1.12-5.4-3,2-3,5.4-3S37,387.4,37,389.31Zm-.6,0c0-1.49-1.93-2.47-4.78-2.47s-4.8,1-4.8,2.47,1.93,2.48,4.8,2.48S36.43,390.81,36.43,389.31Z"/><path class="cls-2" d="M33.59,395.25h.63v15.2h-.63v-6.08H29.82v-.57h3.77v-3.62H30.08a13.2,13.2,0,0,1-5.95,7.5l-.42-.49a12.17,12.17,0,0,0,6.2-9.62h-5.7V397h6.32a11,11,0,0,1-.32,2.61h3.38Zm3.88-.51v16.68h-.63V394.74Z"/><path class="cls-2" d="M28.51,524c0,2.89,2.59,5.93,4.63,7l-.42.49a10.3,10.3,0,0,1-4.49-5.74,10.7,10.7,0,0,1-4.44,6.08l-.42-.49c2-1.11,4.56-4.31,4.56-7.31v-3.57h.58Zm10.6,2.49H36.05v9h-.62V518.82h.62v7.11h3.06Z"/><path class="cls-2" d="M33.16,547.48a7.35,7.35,0,0,1-4.5-4.32,7.54,7.54,0,0,1-4.45,4.68l-.34-.51c2.22-.85,4.47-3,4.47-5.69V540H24.05v-.56h9.19V540H29v1.66c0,2.54,2.3,4.56,4.51,5.33Zm4.4,6v.57H26.64v-5h.63v4.48Zm-.6-3.27h-.63V537.85H37Z"/><path class="cls-2" d="M32.72,566.26A7.45,7.45,0,0,1,28.47,562a7.59,7.59,0,0,1-4.42,4.72l-.35-.51c2.19-.85,4.45-3.09,4.45-5.72V559H24v-.57h8.84V559H28.76v1.45c0,2.36,2.13,4.48,4.31,5.29Zm4.78,6.23v.57H26.68V568h.62v4.49Zm-1.17-10.74v-4.9H37v12.3h-.63v-6.84h-4.1v-.56Z"/><path class="cls-2" d="M33.67,576.31h.62V591.6h-.62v-8.35H30.74c-.07,3.23-1.43,5.3-3.49,5.3s-3.48-2.19-3.48-5.57,1.38-5.51,3.48-5.51,3.4,2,3.49,5.21h2.93ZM30.14,583c0-2.83-1.16-5-2.89-5s-2.87,2.14-2.87,5,1.15,5,2.87,5S30.14,585.87,30.14,583Zm7.36-7.12v16.66h-.62V575.86Z"/><path class="cls-2" d="M38.62,612.89v.57H23.47v-.57H30.7v-4.72H25.45v-7.5H36.58v7.5H31.33v4.72ZM26,607.64H36V601.2H26Z"/><path class="cls-2" d="M28.15,627.36a4,4,0,1,1,0-8,4,4,0,1,1,0,8Zm0-.56a3.42,3.42,0,1,0-3.55-3.42A3.45,3.45,0,0,0,28.15,626.8Zm9.41,7v.57H26.64v-5.12h.63v4.55Zm-.6-3.26h-.63V618.14H37Z"/><path class="cls-2" d="M28.51,646.58c0,2.89,2.59,5.93,4.63,7l-.42.49a10.3,10.3,0,0,1-4.49-5.74,10.7,10.7,0,0,1-4.44,6.08l-.42-.49c2-1.12,4.56-4.31,4.56-7.31V643h.58Zm10.6,2.49H36.05v9h-.62V641.4h.62v7.11h3.06Z"/><path class="cls-2" d="M33.61,668.68a49.64,49.64,0,0,1-8,.57H24.34v-4.37h6.74V662h-6.8v-.57h7.41v4.06H24.94v3.23h.63a46.63,46.63,0,0,0,8-.58Zm-7.52,2.63H36.24v5.51H26.09Zm.61,5h8.93v-4.41H26.7ZM39,665.6H36.24v4.78h-.62v-10h.62V665H39Z"/><path class="cls-2" d="M38.54,686.89v.57h-15v-.57Zm-12.46,8.37h11v.57H25.47v-3.55H35.9V690H25.41v-.57H36.5v3.4H26.08Zm10.65-10.18H25.64v-4.87H36.52v.56H26.26v3.74H36.73Z"/><path class="cls-2" d="M80.69,730.62V738h-.62v-6.67H74.61v5.59H74v-5.59H67.6v6.87H67v-7.57Z"/><path class="cls-2" d="M80.69,741.35v.74l-10,6L68,749.7v.09c1.32-.07,2.59-.11,3.87-.11h8.82v.68H67v-.75l10-6,2.7-1.57v-.07c-1.28,0-2.45.07-3.76.07H67v-.66Z"/><path class="cls-2" d="M80.69,754.61v3.08c0,4.25-2.72,6.16-6.82,6.16S67,761.94,67,757.71v-3.1Zm-13.09,3c0,3.89,2.66,5.51,6.27,5.51s6.2-1.62,6.2-5.51v-2.29H67.6Z"/></g></g></svg>