<svg xmlns="http://www.w3.org/2000/svg" viewBox="0 0 1183.4 278.02"><defs><style>.cls-1{fill:#8c8c8c}.cls-2{fill:#fff}</style></defs><g id="레이어_2" data-name="레이어 2"><g id="레이어_1-2" data-name="레이어 1"><path class="cls-1" d="M182.76 278.02H91.03L181.37 0h91.72l-90.33 278.02zM364.82 278.02h-91.73L363.43 0h91.73l-90.34 278.02zM546.88 278.02h-91.72L545.49 0h91.73l-90.34 278.02zM728.95 278.02h-91.73L727.55 0h91.73l-90.33 278.02zM911.01 278.02h-91.73L909.61 0h91.73l-90.33 278.02zM1093.07 278.02h-91.73L1091.68 0h91.72l-90.33 278.02z"/><path class="cls-2" d="M182.06 278.02H90.33L0 0h91.73l90.33 278.02zM364.13 278.02H272.4L182.06 0h91.73l90.34 278.02zM546.19 278.02h-91.73L364.13 0h91.72l90.34 278.02zM728.25 278.02h-91.73L546.19 0h91.72l90.34 278.02zM910.31 278.02h-91.73L728.25 0h91.73l90.33 278.02zM1092.37 278.02h-91.73L910.31 0h91.73l90.33 278.02z"/></g></g></svg>